{"glyphs":{"0":{"x_min":54,"x_max":495,"ha":550,"o":"m 275 -15 l 275 -15 q 202 -15 153 15 q 104 44 79 96 q 54 148 54 217 l 54 217 l 54 584 q 54 655 78 709 q 101 762 150 792 q 199 822 275 822 l 275 822 q 351 822 400 792 q 448 762 472 709 q 495 655 495 584 l 495 584 l 495 217 q 495 149 470 97 q 445 44 396 15 q 347 -15 275 -15 m 275 134 l 275 134 q 299 134 310 150 q 320 165 323 186 q 325 206 325 221 l 325 221 l 325 580 q 325 597 323 619 q 321 640 311 657 q 300 673 275 673 l 275 673 q 250 673 240 657 q 229 640 227 619 q 225 597 225 580 l 225 580 l 225 221 q 225 206 228 186 q 231 165 242 150 q 252 134 275 134"},"1":{"x_min":22,"x_max":300,"ha":385,"o":"m 300 0 l 133 0 l 133 645 q 122 639 108 633 q 94 627 79 621 q 63 614 49 608 q 34 602 22 596 l 22 596 l 22 720 q 33 726 53 737 q 73 747 96 760 q 119 773 139 787 q 159 800 169 810 l 169 810 l 300 810 l 300 0"},"2":{"x_min":39,"x_max":486,"ha":514,"o":"m 464 0 l 41 0 l 41 118 l 235 416 q 257 449 277 480 q 296 511 309 543 q 321 575 321 610 l 321 610 q 321 645 307 662 q 293 679 269 679 l 269 679 q 242 679 227 664 q 212 649 207 624 q 201 599 201 568 l 201 568 l 201 528 l 39 528 l 39 571 q 39 643 62 700 q 85 756 135 789 q 185 821 266 821 l 266 821 q 375 821 431 765 q 486 708 486 607 l 486 607 q 486 558 471 516 q 455 474 430 435 q 404 395 375 352 l 375 352 l 227 131 l 464 131 l 464 0"},"3":{"x_min":38,"x_max":483,"ha":514,"o":"m 261 -15 l 261 -15 q 176 -15 128 17 q 79 49 59 107 q 38 164 38 239 l 38 239 l 38 268 l 205 268 q 205 267 205 257 q 205 247 205 239 l 205 239 q 205 199 210 174 q 215 149 228 138 q 241 126 264 126 l 264 126 q 287 126 299 138 q 310 150 314 174 q 318 198 318 234 l 318 234 q 318 294 302 326 q 285 357 233 358 l 233 358 q 232 358 222 358 q 212 358 202 358 l 202 358 l 202 473 q 209 473 216 473 q 223 473 229 473 l 229 473 q 282 473 300 502 q 318 531 318 592 l 318 592 q 318 639 306 664 q 293 689 259 689 l 259 689 q 226 689 216 661 q 205 633 205 589 l 205 589 q 205 579 205 569 q 205 558 205 547 l 205 547 l 38 547 l 38 596 q 38 669 65 720 q 91 770 141 796 q 190 822 259 822 l 259 822 q 329 822 379 797 q 429 772 456 724 q 483 675 483 603 l 483 603 q 483 532 454 484 q 425 436 384 425 l 384 425 q 412 415 435 393 q 457 371 470 334 q 483 296 483 238 l 483 238 q 483 164 462 107 q 440 50 391 18 q 342 -15 261 -15"},"4":{"x_min":25,"x_max":505,"ha":524,"o":"m 430 0 l 274 0 l 274 182 l 25 182 l 25 305 l 236 810 l 430 810 l 430 306 l 505 306 l 505 182 l 430 182 l 430 0 m 274 643 l 152 306 l 274 306 l 274 643"},"5":{"x_min":43,"x_max":476,"ha":509,"o":"m 255 -15 l 255 -15 q 166 -15 121 17 q 75 48 59 105 q 43 162 43 237 l 43 237 l 204 237 q 204 191 209 162 q 214 133 228 121 q 241 108 266 109 l 266 109 q 292 110 303 130 q 314 150 317 188 q 319 225 319 278 l 319 278 q 319 318 315 349 q 310 380 297 399 q 283 417 256 417 l 256 417 q 231 417 215 399 q 199 381 192 343 l 192 343 l 48 343 l 63 810 l 441 810 l 441 670 l 197 670 l 188 503 q 198 517 226 528 q 254 538 286 541 l 286 541 q 348 548 391 519 q 433 489 455 429 q 476 369 476 282 l 476 282 q 476 217 468 163 q 460 108 437 69 q 414 29 370 7 q 326 -15 255 -15"},"6":{"x_min":52,"x_max":497,"ha":538,"o":"m 276 -12 l 276 -12 q 197 -12 148 23 q 98 57 75 117 q 52 177 52 254 l 52 254 l 52 547 q 52 626 71 688 q 89 750 137 786 q 185 821 275 821 l 275 821 q 353 821 398 797 q 443 773 462 727 q 481 681 481 613 l 481 613 q 481 609 482 606 q 482 602 482 599 l 482 599 l 325 599 q 325 648 318 672 q 310 695 276 695 l 276 695 q 253 695 242 681 q 230 667 226 632 q 222 597 222 534 l 222 534 l 222 462 q 234 483 261 495 q 288 506 322 507 l 322 507 q 386 509 425 478 q 463 447 480 394 q 497 340 497 274 l 497 274 q 497 189 477 125 q 457 60 409 24 q 361 -12 276 -12 m 278 111 l 278 111 q 301 111 312 127 q 322 142 326 173 q 329 203 329 248 l 329 248 q 329 288 327 317 q 324 346 313 363 q 302 379 276 379 l 276 379 q 264 379 253 374 q 242 369 234 362 q 226 354 222 347 l 222 347 l 222 215 q 222 188 227 164 q 231 140 244 126 q 256 111 278 111"},"7":{"x_min":20,"x_max":404,"ha":439,"o":"m 228 0 l 65 0 l 241 683 l 20 683 l 20 810 l 404 810 l 404 695 l 228 0"},"8":{"x_min":38,"x_max":484,"ha":521,"o":"m 260 -13 l 260 -13 q 178 -13 129 20 q 80 52 59 110 q 38 167 38 241 l 38 241 q 39 271 45 300 q 50 328 62 353 q 73 377 91 396 q 108 414 132 426 l 132 426 q 101 449 77 493 q 53 536 51 603 l 51 603 q 50 671 74 720 q 97 769 144 795 q 191 821 260 821 l 260 821 q 330 821 377 795 q 423 768 446 720 q 469 671 467 603 l 467 603 q 466 535 443 492 q 420 448 388 426 l 388 426 q 412 414 430 396 q 447 377 459 353 q 470 328 476 300 q 482 271 482 241 l 482 241 q 484 167 463 110 q 441 52 392 20 q 343 -13 260 -13 m 260 110 l 260 110 q 287 110 299 130 q 311 150 314 178 q 317 205 317 228 l 317 228 q 318 259 315 288 q 311 317 299 336 q 287 354 260 354 l 260 354 q 234 354 222 336 q 210 317 207 289 q 203 260 203 228 l 203 228 q 203 205 206 177 q 209 149 222 130 q 234 110 260 110 m 260 486 l 260 486 q 277 486 288 500 q 299 513 305 540 q 310 567 310 607 l 310 607 q 310 648 298 672 q 285 696 260 696 l 260 696 q 235 696 222 672 q 208 648 208 608 l 208 608 q 208 568 214 541 q 219 513 231 500 q 243 486 260 486"},"9":{"x_min":39,"x_max":484,"ha":538,"o":"m 261 -12 l 261 -12 q 183 -12 138 12 q 93 36 74 83 q 55 129 55 197 l 55 197 q 55 200 55 204 q 55 207 55 210 l 55 210 l 211 210 q 211 161 220 138 q 228 114 262 114 l 262 114 q 285 114 296 128 q 307 142 311 178 q 314 213 314 275 l 314 275 l 314 347 q 301 326 275 315 q 248 304 215 302 l 215 302 q 151 301 112 334 q 73 367 56 423 q 39 479 39 545 l 39 545 q 39 630 61 692 q 82 753 131 787 q 180 821 261 821 l 261 821 q 341 821 390 789 q 439 757 462 700 q 484 642 484 564 l 484 564 l 484 262 q 484 183 466 121 q 447 59 399 24 q 351 -12 261 -12 m 263 430 l 263 430 q 283 430 295 441 q 307 452 314 462 l 314 462 l 314 594 q 314 622 310 646 q 306 669 295 684 q 284 698 261 698 l 261 698 q 239 698 228 683 q 217 667 214 637 q 210 606 210 561 l 210 561 q 210 522 213 493 q 215 463 226 447 q 237 430 263 430"},"A":{"x_min":21,"x_max":529,"ha":551,"o":"m 190 0 l 21 0 l 174 810 l 378 810 l 529 0 l 364 0 l 337 171 l 218 171 l 190 0 m 277 594 l 234 278 l 320 278 l 277 594"},"Á":{"x_min":21,"x_max":529,"ha":551,"o":"m 190 0 l 21 0 l 174 810 l 378 810 l 529 0 l 364 0 l 337 171 l 218 171 l 190 0 m 277 594 l 234 278 l 320 278 l 277 594 m 325 874 l 222 874 l 285 1075 l 451 1075 l 325 874"},"Ă":{"x_min":21,"x_max":529,"ha":551,"o":"m 190 0 l 21 0 l 174 810 l 378 810 l 529 0 l 364 0 l 337 171 l 218 171 l 190 0 m 277 594 l 234 278 l 320 278 l 277 594 m 276 875 l 276 875 q 205 875 162 915 q 119 955 119 1031 l 119 1031 l 211 1031 q 211 994 226 976 q 240 958 276 958 l 276 958 q 311 958 326 977 q 341 995 341 1031 l 341 1031 l 433 1031 q 433 955 390 915 q 347 875 276 875"},"Ắ":{"x_min":21,"x_max":529,"ha":551,"o":"m 190 0 l 21 0 l 174 810 l 378 810 l 529 0 l 364 0 l 337 171 l 218 171 l 190 0 m 277 594 l 234 278 l 320 278 l 277 594 m 303 1065 l 209 1065 l 280 1181 l 413 1181 l 303 1065 m 276 871 l 276 871 q 205 871 162 911 q 119 951 119 1027 l 119 1027 l 211 1027 q 211 989 226 972 q 240 954 276 954 l 276 954 q 311 954 326 973 q 341 991 341 1027 l 341 1027 l 433 1027 q 433 951 390 911 q 347 871 276 871"},"Ặ":{"x_min":21,"x_max":529,"ha":551,"o":"m 190 0 l 21 0 l 174 810 l 378 810 l 529 0 l 364 0 l 337 171 l 218 171 l 190 0 m 277 594 l 234 278 l 320 278 l 277 594 m 345 -208 l 206 -208 l 206 -70 l 345 -70 l 345 -208 m 276 875 l 276 875 q 205 875 162 915 q 119 955 119 1031 l 119 1031 l 211 1031 q 211 994 226 976 q 240 958 276 958 l 276 958 q 311 958 326 977 q 341 995 341 1031 l 341 1031 l 433 1031 q 433 955 390 915 q 347 875 276 875"},"Ằ":{"x_min":21,"x_max":529,"ha":551,"o":"m 190 0 l 21 0 l 174 810 l 378 810 l 529 0 l 364 0 l 337 171 l 218 171 l 190 0 m 277 594 l 234 278 l 320 278 l 277 594 m 342 1065 l 249 1065 l 139 1181 l 271 1181 l 342 1065 m 276 871 l 276 871 q 205 871 162 911 q 119 951 119 1027 l 119 1027 l 211 1027 q 211 989 226 972 q 240 954 276 954 l 276 954 q 311 954 326 973 q 341 991 341 1027 l 341 1027 l 433 1027 q 433 951 390 911 q 347 871 276 871"},"Ẳ":{"x_min":21,"x_max":529,"ha":551,"o":"m 190 0 l 21 0 l 174 810 l 378 810 l 529 0 l 364 0 l 337 171 l 218 171 l 190 0 m 277 594 l 234 278 l 320 278 l 277 594 m 289 1034 l 289 1034 l 243 1083 q 260 1097 270 1111 q 280 1124 280 1143 l 280 1143 q 280 1162 268 1173 q 255 1183 234 1183 l 234 1183 q 219 1183 207 1180 q 194 1177 183 1173 l 183 1173 l 183 1241 q 203 1249 224 1253 q 244 1257 266 1257 l 266 1257 q 316 1257 349 1233 q 381 1208 381 1158 l 381 1158 q 381 1112 354 1083 q 326 1054 289 1034 m 276 875 l 276 875 q 205 875 162 915 q 119 955 119 1031 l 119 1031 l 211 1031 q 211 994 226 976 q 240 958 276 958 l 276 958 q 311 958 326 977 q 341 995 341 1031 l 341 1031 l 433 1031 q 433 955 390 915 q 347 875 276 875"},"Ẵ":{"x_min":21,"x_max":529,"ha":551,"o":"m 190 0 l 21 0 l 174 810 l 378 810 l 529 0 l 364 0 l 337 171 l 218 171 l 190 0 m 277 594 l 234 278 l 320 278 l 277 594 m 276 875 l 276 875 q 205 875 162 915 q 119 955 119 1031 l 119 1031 l 211 1031 q 211 994 226 976 q 240 958 276 958 l 276 958 q 311 958 326 977 q 341 995 341 1031 l 341 1031 l 433 1031 q 433 955 390 915 q 347 875 276 875 m 357 1085 l 357 1085 q 332 1085 311 1097 q 290 1109 271 1121 q 252 1132 232 1132 l 232 1132 q 210 1132 203 1120 q 196 1107 196 1091 l 196 1091 l 118 1091 q 118 1132 126 1164 q 134 1196 154 1215 q 174 1233 208 1233 l 208 1233 q 233 1233 253 1222 q 272 1211 291 1200 q 310 1189 331 1189 l 331 1189 q 348 1189 355 1200 q 362 1211 362 1227 l 362 1227 l 434 1227 q 434 1195 430 1162 q 425 1129 409 1107 q 392 1085 357 1085"},"Ǎ":{"x_min":21,"x_max":529,"ha":551,"o":"m 190 0 l 21 0 l 174 810 l 378 810 l 529 0 l 364 0 l 337 171 l 218 171 l 190 0 m 277 594 l 234 278 l 320 278 l 277 594 m 355 871 l 197 871 l 109 1058 l 225 1058 l 276 948 l 327 1058 l 443 1058 l 355 871"},"Â":{"x_min":21,"x_max":529,"ha":551,"o":"m 190 0 l 21 0 l 174 810 l 378 810 l 529 0 l 364 0 l 337 171 l 218 171 l 190 0 m 277 594 l 234 278 l 320 278 l 277 594 m 232 881 l 113 881 l 208 1073 l 341 1073 l 439 881 l 319 881 l 275 1000 l 232 881"},"Ấ":{"x_min":21,"x_max":585,"ha":551,"o":"m 190 0 l 21 0 l 174 810 l 378 810 l 529 0 l 364 0 l 337 171 l 218 171 l 190 0 m 277 594 l 234 278 l 320 278 l 277 594 m 228 881 l 113 881 l 208 1048 l 341 1048 l 439 881 l 323 881 l 275 981 l 228 881 m 497 999 l 411 999 l 464 1122 l 585 1122 l 497 999"},"Ậ":{"x_min":21,"x_max":529,"ha":551,"o":"m 190 0 l 21 0 l 174 810 l 378 810 l 529 0 l 364 0 l 337 171 l 218 171 l 190 0 m 277 594 l 234 278 l 320 278 l 277 594 m 228 881 l 113 881 l 208 1048 l 341 1048 l 439 881 l 323 881 l 275 981 l 228 881 m 345 -208 l 206 -208 l 206 -70 l 345 -70 l 345 -208"},"Ầ":{"x_min":21,"x_max":529,"ha":551,"o":"m 190 0 l 21 0 l 174 810 l 378 810 l 529 0 l 364 0 l 337 171 l 218 171 l 190 0 m 277 594 l 234 278 l 320 278 l 277 594 m 228 881 l 113 881 l 208 1048 l 341 1048 l 439 881 l 323 881 l 275 981 l 228 881 m 527 999 l 440 999 l 352 1122 l 474 1122 l 527 999"},"Ẩ":{"x_min":21,"x_max":543,"ha":551,"o":"m 190 0 l 21 0 l 174 810 l 378 810 l 529 0 l 364 0 l 337 171 l 218 171 l 190 0 m 277 594 l 234 278 l 320 278 l 277 594 m 452 973 l 452 973 l 406 1022 q 423 1036 433 1050 q 443 1063 443 1082 l 443 1082 q 443 1101 431 1112 q 418 1122 397 1122 l 397 1122 q 381 1122 369 1119 q 356 1116 346 1112 l 346 1112 l 346 1180 q 366 1188 386 1192 q 406 1196 428 1196 l 428 1196 q 478 1196 511 1172 q 543 1147 543 1097 l 543 1097 q 543 1049 516 1021 q 488 993 452 973 m 228 881 l 113 881 l 208 1048 l 341 1048 l 439 881 l 323 881 l 275 981 l 228 881"},"Ẫ":{"x_min":21,"x_max":529,"ha":551,"o":"m 190 0 l 21 0 l 174 810 l 378 810 l 529 0 l 364 0 l 337 171 l 218 171 l 190 0 m 277 594 l 234 278 l 320 278 l 277 594 m 228 881 l 113 881 l 208 1048 l 341 1048 l 439 881 l 323 881 l 275 981 l 228 881 m 357 1097 l 357 1097 q 332 1097 311 1109 q 290 1121 271 1133 q 252 1144 232 1144 l 232 1144 q 210 1144 203 1132 q 196 1119 196 1103 l 196 1103 l 118 1103 q 118 1144 126 1176 q 134 1208 154 1227 q 174 1245 208 1245 l 208 1245 q 233 1245 253 1234 q 272 1223 291 1212 q 310 1201 331 1201 l 331 1201 q 348 1201 355 1212 q 362 1223 362 1239 l 362 1239 l 434 1239 q 434 1207 430 1174 q 425 1141 409 1119 q 392 1097 357 1097"},"Ȁ":{"x_min":21,"x_max":529,"ha":551,"o":"m 190 0 l 21 0 l 174 810 l 378 810 l 529 0 l 364 0 l 337 171 l 218 171 l 190 0 m 277 594 l 234 278 l 320 278 l 277 594 m 241 870 l 153 870 l 53 1077 l 177 1077 l 241 870 m 414 870 l 328 870 l 236 1077 l 355 1077 l 414 870"},"Ä":{"x_min":21,"x_max":529,"ha":551,"o":"m 190 0 l 21 0 l 174 810 l 378 810 l 529 0 l 364 0 l 337 171 l 218 171 l 190 0 m 277 594 l 234 278 l 320 278 l 277 594 m 450 894 l 320 894 l 320 1042 l 450 1042 l 450 894 m 232 894 l 102 894 l 102 1042 l 232 1042 l 232 894"},"Ạ":{"x_min":21,"x_max":529,"ha":551,"o":"m 190 0 l 21 0 l 174 810 l 378 810 l 529 0 l 364 0 l 337 171 l 218 171 l 190 0 m 277 594 l 234 278 l 320 278 l 277 594 m 345 -208 l 206 -208 l 206 -70 l 345 -70 l 345 -208"},"À":{"x_min":21,"x_max":529,"ha":551,"o":"m 190 0 l 21 0 l 174 810 l 378 810 l 529 0 l 364 0 l 337 171 l 218 171 l 190 0 m 277 594 l 234 278 l 320 278 l 277 594 m 330 874 l 228 874 l 101 1075 l 269 1075 l 330 874"},"Ả":{"x_min":21,"x_max":529,"ha":551,"o":"m 190 0 l 21 0 l 174 810 l 378 810 l 529 0 l 364 0 l 337 171 l 218 171 l 190 0 m 277 594 l 234 278 l 320 278 l 277 594 m 276 859 l 276 859 l 221 911 q 251 925 272 939 q 293 952 293 975 l 293 975 q 293 995 277 1003 q 261 1010 236 1010 l 236 1010 q 221 1010 204 1008 q 187 1006 174 1003 l 174 1003 l 174 1071 q 222 1084 276 1084 l 276 1084 q 308 1084 336 1074 q 364 1064 381 1043 q 398 1021 398 985 l 398 985 q 398 950 381 926 q 364 902 337 887 q 309 871 276 859"},"Ȃ":{"x_min":21,"x_max":529,"ha":551,"o":"m 190 0 l 21 0 l 174 810 l 378 810 l 529 0 l 364 0 l 337 171 l 218 171 l 190 0 m 277 594 l 234 278 l 320 278 l 277 594 m 211 881 l 119 881 q 119 933 138 968 q 157 1003 193 1022 q 228 1040 276 1040 l 276 1040 q 325 1040 360 1022 q 395 1003 414 968 q 433 933 433 881 l 433 881 l 341 881 q 341 920 326 939 q 311 957 276 957 l 276 957 q 241 957 226 939 q 211 921 211 881 l 211 881"},"Ā":{"x_min":21,"x_max":529,"ha":551,"o":"m 190 0 l 21 0 l 174 810 l 378 810 l 529 0 l 364 0 l 337 171 l 218 171 l 190 0 m 277 594 l 234 278 l 320 278 l 277 594 m 414 898 l 138 898 l 138 975 l 414 975 l 414 898"},"Ą":{"x_min":21,"x_max":548,"ha":551,"o":"m 190 0 l 21 0 l 174 810 l 378 810 l 529 0 l 364 0 l 337 171 l 218 171 l 190 0 m 277 594 l 234 278 l 320 278 l 277 594 m 499 -260 l 499 -260 q 474 -260 446 -256 q 418 -253 394 -242 q 370 -231 355 -209 q 340 -188 340 -152 l 340 -152 q 340 -126 351 -97 q 362 -69 380 -43 q 398 -18 418 0 l 418 0 l 491 0 q 482 -17 474 -37 q 465 -58 460 -79 q 455 -100 455 -121 l 455 -121 q 455 -155 475 -167 q 494 -180 519 -180 l 519 -180 q 527 -180 535 -179 q 543 -179 548 -178 l 548 -178 l 532 -257 q 526 -258 518 -259 q 509 -260 499 -260"},"Å":{"x_min":21,"x_max":529,"ha":551,"o":"m 190 0 l 21 0 l 174 810 l 378 810 l 529 0 l 364 0 l 337 171 l 218 171 l 190 0 m 277 594 l 234 278 l 320 278 l 277 594 m 275 854 l 275 854 q 228 854 194 882 q 159 909 159 963 l 159 963 q 159 1018 194 1046 q 228 1073 275 1073 l 275 1073 q 322 1073 358 1045 q 393 1017 393 963 l 393 963 q 393 909 358 882 q 323 854 275 854 m 275 911 l 275 911 q 300 911 313 927 q 325 942 325 963 l 325 963 q 325 985 313 1001 q 300 1016 275 1016 l 275 1016 q 251 1016 239 1001 q 226 985 226 963 l 226 963 q 226 942 239 927 q 251 911 275 911"},"Ǻ":{"x_min":21,"x_max":529,"ha":551,"o":"m 190 0 l 21 0 l 174 810 l 378 810 l 529 0 l 364 0 l 337 171 l 218 171 l 190 0 m 277 594 l 234 278 l 320 278 l 277 594 m 275 854 l 275 854 q 228 854 194 882 q 159 909 159 963 l 159 963 q 159 1018 194 1046 q 228 1073 275 1073 l 275 1073 q 322 1073 358 1045 q 393 1017 393 963 l 393 963 q 393 909 358 882 q 323 854 275 854 m 275 911 l 275 911 q 300 911 313 927 q 325 942 325 963 l 325 963 q 325 985 313 1001 q 300 1016 275 1016 l 275 1016 q 251 1016 239 1001 q 226 985 226 963 l 226 963 q 226 942 239 927 q 251 911 275 911 m 325 1117 l 222 1117 l 285 1318 l 451 1318 l 325 1117"},"Ã":{"x_min":21,"x_max":529,"ha":551,"o":"m 190 0 l 21 0 l 174 810 l 378 810 l 529 0 l 364 0 l 337 171 l 218 171 l 190 0 m 277 594 l 234 278 l 320 278 l 277 594 m 357 900 l 357 900 q 332 900 311 912 q 290 924 271 936 q 252 947 232 947 l 232 947 q 210 947 203 935 q 196 922 196 906 l 196 906 l 118 906 q 118 947 126 979 q 134 1011 154 1030 q 174 1048 208 1048 l 208 1048 q 233 1048 253 1037 q 272 1026 291 1015 q 310 1004 331 1004 l 331 1004 q 348 1004 355 1015 q 362 1026 362 1042 l 362 1042 l 434 1042 q 434 1010 430 977 q 425 944 409 922 q 392 900 357 900"},"Æ":{"x_min":-13,"x_max":689,"ha":708,"o":"m 166 0 l -13 0 l 340 810 l 689 810 l 689 688 l 519 688 l 519 488 l 639 488 l 639 362 l 519 362 l 519 122 l 689 122 l 689 0 l 366 0 l 366 173 l 235 173 l 166 0 m 366 545 l 271 286 l 366 286 l 366 545"},"Ǽ":{"x_min":-13,"x_max":689,"ha":708,"o":"m 166 0 l -13 0 l 340 810 l 689 810 l 689 688 l 519 688 l 519 488 l 639 488 l 639 362 l 519 362 l 519 122 l 689 122 l 689 0 l 366 0 l 366 173 l 235 173 l 166 0 m 366 545 l 271 286 l 366 286 l 366 545 m 491 874 l 388 874 l 451 1075 l 617 1075 l 491 874"},"B":{"x_min":60,"x_max":554,"ha":588,"o":"m 309 0 l 60 0 l 60 810 l 271 810 q 323 810 370 802 q 416 794 452 772 q 488 749 509 708 q 529 666 529 598 l 529 598 q 529 549 515 516 q 500 482 474 462 q 447 442 410 435 l 410 435 q 457 429 489 405 q 521 380 538 339 q 554 298 554 240 l 554 240 q 554 177 538 132 q 521 86 490 57 q 459 28 414 14 q 368 0 309 0 l 309 0 m 239 368 l 239 125 l 277 125 q 336 125 359 155 q 381 185 381 243 l 381 243 q 381 289 371 316 q 361 343 338 356 q 315 368 276 368 l 276 368 l 239 368 m 239 690 l 239 486 l 274 486 q 315 486 336 499 q 357 511 365 535 q 372 559 372 593 l 372 593 q 372 625 361 647 q 349 668 327 679 q 304 690 270 690 l 270 690 l 239 690"},"Ḃ":{"x_min":60,"x_max":554,"ha":588,"o":"m 309 0 l 60 0 l 60 810 l 271 810 q 323 810 370 802 q 416 794 452 772 q 488 749 509 708 q 529 666 529 598 l 529 598 q 529 549 515 516 q 500 482 474 462 q 447 442 410 435 l 410 435 q 457 429 489 405 q 521 380 538 339 q 554 298 554 240 l 554 240 q 554 177 538 132 q 521 86 490 57 q 459 28 414 14 q 368 0 309 0 l 309 0 m 239 368 l 239 125 l 277 125 q 336 125 359 155 q 381 185 381 243 l 381 243 q 381 289 371 316 q 361 343 338 356 q 315 368 276 368 l 276 368 l 239 368 m 239 690 l 239 486 l 274 486 q 315 486 336 499 q 357 511 365 535 q 372 559 372 593 l 372 593 q 372 625 361 647 q 349 668 327 679 q 304 690 270 690 l 270 690 l 239 690 m 372 884 l 218 884 l 218 1038 l 372 1038 l 372 884"},"C":{"x_min":49,"x_max":525,"ha":563,"o":"m 292 -12 l 292 -12 q 200 -12 147 22 q 93 55 71 116 q 49 176 49 258 l 49 258 l 49 550 q 49 634 71 695 q 93 755 147 788 q 200 821 292 821 l 292 821 q 382 821 433 792 q 483 762 504 709 q 525 656 525 587 l 525 587 l 525 517 l 350 517 l 350 598 q 350 622 348 644 q 345 666 333 681 q 321 695 292 695 l 292 695 q 264 695 251 680 q 237 665 234 643 q 230 620 230 595 l 230 595 l 230 214 q 230 187 235 165 q 239 142 253 129 q 266 115 292 115 l 292 115 q 320 115 332 130 q 344 144 347 167 q 350 190 350 214 l 350 214 l 350 299 l 525 299 l 525 229 q 525 160 505 106 q 484 51 434 20 q 383 -12 292 -12"},"Ć":{"x_min":49,"x_max":525,"ha":563,"o":"m 292 -12 l 292 -12 q 200 -12 147 22 q 93 55 71 116 q 49 176 49 258 l 49 258 l 49 550 q 49 634 71 695 q 93 755 147 788 q 200 821 292 821 l 292 821 q 382 821 433 792 q 483 762 504 709 q 525 656 525 587 l 525 587 l 525 517 l 350 517 l 350 598 q 350 622 348 644 q 345 666 333 681 q 321 695 292 695 l 292 695 q 264 695 251 680 q 237 665 234 643 q 230 620 230 595 l 230 595 l 230 214 q 230 187 235 165 q 239 142 253 129 q 266 115 292 115 l 292 115 q 320 115 332 130 q 344 144 347 167 q 350 190 350 214 l 350 214 l 350 299 l 525 299 l 525 229 q 525 160 505 106 q 484 51 434 20 q 383 -12 292 -12 m 339 874 l 236 874 l 299 1075 l 465 1075 l 339 874"},"Č":{"x_min":49,"x_max":525,"ha":563,"o":"m 292 -12 l 292 -12 q 200 -12 147 22 q 93 55 71 116 q 49 176 49 258 l 49 258 l 49 550 q 49 634 71 695 q 93 755 147 788 q 200 821 292 821 l 292 821 q 382 821 433 792 q 483 762 504 709 q 525 656 525 587 l 525 587 l 525 517 l 350 517 l 350 598 q 350 622 348 644 q 345 666 333 681 q 321 695 292 695 l 292 695 q 264 695 251 680 q 237 665 234 643 q 230 620 230 595 l 230 595 l 230 214 q 230 187 235 165 q 239 142 253 129 q 266 115 292 115 l 292 115 q 320 115 332 130 q 344 144 347 167 q 350 190 350 214 l 350 214 l 350 299 l 525 299 l 525 229 q 525 160 505 106 q 484 51 434 20 q 383 -12 292 -12 m 369 871 l 211 871 l 123 1058 l 239 1058 l 290 948 l 341 1058 l 457 1058 l 369 871"},"Ç":{"x_min":49,"x_max":525,"ha":563,"o":"m 292 -12 l 292 -12 q 200 -12 147 22 q 93 55 71 116 q 49 176 49 258 l 49 258 l 49 550 q 49 634 71 695 q 93 755 147 788 q 200 821 292 821 l 292 821 q 382 821 433 792 q 483 762 504 709 q 525 656 525 587 l 525 587 l 525 517 l 350 517 l 350 598 q 350 622 348 644 q 345 666 333 681 q 321 695 292 695 l 292 695 q 264 695 251 680 q 237 665 234 643 q 230 620 230 595 l 230 595 l 230 214 q 230 187 235 165 q 239 142 253 129 q 266 115 292 115 l 292 115 q 320 115 332 130 q 344 144 347 167 q 350 190 350 214 l 350 214 l 350 299 l 525 299 l 525 229 q 525 160 505 106 q 484 51 434 20 q 383 -12 292 -12 m 302 -277 l 302 -277 q 283 -277 264 -274 q 244 -271 226 -265 l 226 -265 l 226 -195 q 237 -198 252 -200 q 267 -203 283 -203 l 283 -203 q 309 -203 327 -195 q 345 -187 345 -168 l 345 -168 q 345 -149 331 -138 q 316 -127 295 -122 q 274 -117 253 -116 l 253 -116 l 253 0 l 312 0 l 312 -66 q 374 -66 412 -91 q 449 -117 449 -170 l 449 -170 q 449 -208 429 -232 q 408 -256 375 -266 q 341 -277 302 -277"},"Ĉ":{"x_min":49,"x_max":525,"ha":563,"o":"m 292 -12 l 292 -12 q 200 -12 147 22 q 93 55 71 116 q 49 176 49 258 l 49 258 l 49 550 q 49 634 71 695 q 93 755 147 788 q 200 821 292 821 l 292 821 q 382 821 433 792 q 483 762 504 709 q 525 656 525 587 l 525 587 l 525 517 l 350 517 l 350 598 q 350 622 348 644 q 345 666 333 681 q 321 695 292 695 l 292 695 q 264 695 251 680 q 237 665 234 643 q 230 620 230 595 l 230 595 l 230 214 q 230 187 235 165 q 239 142 253 129 q 266 115 292 115 l 292 115 q 320 115 332 130 q 344 144 347 167 q 350 190 350 214 l 350 214 l 350 299 l 525 299 l 525 229 q 525 160 505 106 q 484 51 434 20 q 383 -12 292 -12 m 246 881 l 127 881 l 222 1073 l 355 1073 l 453 881 l 333 881 l 289 1000 l 246 881"},"Ċ":{"x_min":49,"x_max":525,"ha":563,"o":"m 292 -12 l 292 -12 q 200 -12 147 22 q 93 55 71 116 q 49 176 49 258 l 49 258 l 49 550 q 49 634 71 695 q 93 755 147 788 q 200 821 292 821 l 292 821 q 382 821 433 792 q 483 762 504 709 q 525 656 525 587 l 525 587 l 525 517 l 350 517 l 350 598 q 350 622 348 644 q 345 666 333 681 q 321 695 292 695 l 292 695 q 264 695 251 680 q 237 665 234 643 q 230 620 230 595 l 230 595 l 230 214 q 230 187 235 165 q 239 142 253 129 q 266 115 292 115 l 292 115 q 320 115 332 130 q 344 144 347 167 q 350 190 350 214 l 350 214 l 350 299 l 525 299 l 525 229 q 525 160 505 106 q 484 51 434 20 q 383 -12 292 -12 m 367 884 l 213 884 l 213 1038 l 367 1038 l 367 884"},"D":{"x_min":60,"x_max":537,"ha":586,"o":"m 267 0 l 60 0 l 60 810 l 265 810 q 371 810 430 784 q 489 757 513 701 q 537 644 537 554 l 537 554 l 537 260 q 537 169 513 112 q 489 54 431 27 q 372 0 267 0 l 267 0 m 239 685 l 239 124 l 267 124 q 308 124 326 136 q 344 148 349 172 q 353 196 353 232 l 353 232 l 353 585 q 353 621 348 643 q 342 665 324 675 q 306 685 266 685 l 266 685 l 239 685"},"Ǳ":{"x_min":60,"x_max":983,"ha":1011,"o":"m 267 0 l 60 0 l 60 810 l 265 810 q 371 810 430 784 q 489 757 513 701 q 537 644 537 554 l 537 554 l 537 260 q 537 169 513 112 q 489 54 431 27 q 372 0 267 0 l 267 0 m 239 685 l 239 124 l 267 124 q 308 124 326 136 q 344 148 349 172 q 353 196 353 232 l 353 232 l 353 585 q 353 621 348 643 q 342 665 324 675 q 306 685 266 685 l 266 685 l 239 685 m 983 0 l 607 0 l 607 108 l 805 689 l 616 689 l 616 810 l 981 810 l 981 709 l 780 121 l 983 121 l 983 0"},"Ǆ":{"x_min":60,"x_max":983,"ha":1011,"o":"m 267 0 l 60 0 l 60 810 l 265 810 q 371 810 430 784 q 489 757 513 701 q 537 644 537 554 l 537 554 l 537 260 q 537 169 513 112 q 489 54 431 27 q 372 0 267 0 l 267 0 m 239 685 l 239 124 l 267 124 q 308 124 326 136 q 344 148 349 172 q 353 196 353 232 l 353 232 l 353 585 q 353 621 348 643 q 342 665 324 675 q 306 685 266 685 l 266 685 l 239 685 m 983 0 l 607 0 l 607 108 l 805 689 l 616 689 l 616 810 l 981 810 l 981 709 l 780 121 l 983 121 l 983 0 m 874 871 l 716 871 l 628 1058 l 744 1058 l 795 948 l 846 1058 l 962 1058 l 874 871"},"Ď":{"x_min":60,"x_max":537,"ha":586,"o":"m 267 0 l 60 0 l 60 810 l 265 810 q 371 810 430 784 q 489 757 513 701 q 537 644 537 554 l 537 554 l 537 260 q 537 169 513 112 q 489 54 431 27 q 372 0 267 0 l 267 0 m 239 685 l 239 124 l 267 124 q 308 124 326 136 q 344 148 349 172 q 353 196 353 232 l 353 232 l 353 585 q 353 621 348 643 q 342 665 324 675 q 306 685 266 685 l 266 685 l 239 685 m 372 871 l 214 871 l 126 1058 l 242 1058 l 293 948 l 344 1058 l 460 1058 l 372 871"},"Đ":{"x_min":13,"x_max":541,"ha":589,"o":"m 272 0 l 64 0 l 64 374 l 13 374 l 13 456 l 64 456 l 64 810 l 269 810 q 376 810 435 784 q 494 757 518 701 q 541 644 541 554 l 541 554 l 541 260 q 541 169 517 112 q 493 54 435 27 q 376 0 272 0 l 272 0 m 239 374 l 239 124 l 275 124 q 316 124 334 136 q 352 148 357 172 q 362 196 362 232 l 362 232 l 362 585 q 362 621 357 643 q 351 665 333 675 q 314 685 275 685 l 275 685 l 239 685 l 239 456 l 288 456 l 288 374 l 239 374"},"Ḋ":{"x_min":60,"x_max":537,"ha":586,"o":"m 267 0 l 60 0 l 60 810 l 265 810 q 371 810 430 784 q 489 757 513 701 q 537 644 537 554 l 537 554 l 537 260 q 537 169 513 112 q 489 54 431 27 q 372 0 267 0 l 267 0 m 239 685 l 239 124 l 267 124 q 308 124 326 136 q 344 148 349 172 q 353 196 353 232 l 353 232 l 353 585 q 353 621 348 643 q 342 665 324 675 q 306 685 266 685 l 266 685 l 239 685 m 370 884 l 216 884 l 216 1038 l 370 1038 l 370 884"},"ǲ":{"x_min":60,"x_max":952,"ha":978,"o":"m 267 0 l 60 0 l 60 810 l 265 810 q 371 810 430 784 q 489 757 513 701 q 537 644 537 554 l 537 554 l 537 260 q 537 169 513 112 q 489 54 431 27 q 372 0 267 0 l 267 0 m 239 685 l 239 124 l 267 124 q 308 124 326 136 q 344 148 349 172 q 353 196 353 232 l 353 232 l 353 585 q 353 621 348 643 q 342 665 324 675 q 306 685 266 685 l 266 685 l 239 685 m 952 0 l 621 0 l 621 105 l 780 459 l 633 459 l 633 578 l 950 578 l 950 479 l 789 119 l 952 119 l 952 0"},"ǅ":{"x_min":60,"x_max":952,"ha":978,"o":"m 267 0 l 60 0 l 60 810 l 265 810 q 371 810 430 784 q 489 757 513 701 q 537 644 537 554 l 537 554 l 537 260 q 537 169 513 112 q 489 54 431 27 q 372 0 267 0 l 267 0 m 239 685 l 239 124 l 267 124 q 308 124 326 136 q 344 148 349 172 q 353 196 353 232 l 353 232 l 353 585 q 353 621 348 643 q 342 665 324 675 q 306 685 266 685 l 266 685 l 239 685 m 952 0 l 621 0 l 621 105 l 780 459 l 633 459 l 633 578 l 950 578 l 950 479 l 789 119 l 952 119 l 952 0 m 861 639 l 703 639 l 615 826 l 731 826 l 782 716 l 833 826 l 949 826 l 861 639"},"Ð":{"x_min":7,"x_max":529,"ha":563,"o":"m 259 0 l 51 0 l 51 370 l 7 370 l 7 459 l 51 459 l 51 810 l 257 810 q 363 810 422 784 q 481 757 505 701 q 529 644 529 554 l 529 554 l 529 260 q 529 169 505 112 q 481 54 423 27 q 364 0 259 0 l 259 0 m 231 370 l 231 124 l 259 124 q 300 124 318 136 q 336 148 341 172 q 346 196 346 232 l 346 232 l 346 585 q 346 621 341 643 q 335 665 317 675 q 299 685 259 685 l 259 685 l 231 685 l 231 459 l 272 459 l 272 370 l 231 370"},"E":{"x_min":60,"x_max":426,"ha":447,"o":"m 426 0 l 60 0 l 60 810 l 424 810 l 424 688 l 239 688 l 239 487 l 380 487 l 380 363 l 239 363 l 239 121 l 426 121 l 426 0"},"É":{"x_min":60,"x_max":426,"ha":447,"o":"m 426 0 l 60 0 l 60 810 l 424 810 l 424 688 l 239 688 l 239 487 l 380 487 l 380 363 l 239 363 l 239 121 l 426 121 l 426 0 m 293 874 l 190 874 l 253 1075 l 419 1075 l 293 874"},"Ĕ":{"x_min":60,"x_max":426,"ha":447,"o":"m 426 0 l 60 0 l 60 810 l 424 810 l 424 688 l 239 688 l 239 487 l 380 487 l 380 363 l 239 363 l 239 121 l 426 121 l 426 0 m 244 875 l 244 875 q 173 875 130 915 q 87 955 87 1031 l 87 1031 l 179 1031 q 179 994 194 976 q 208 958 244 958 l 244 958 q 279 958 294 977 q 309 995 309 1031 l 309 1031 l 401 1031 q 401 955 358 915 q 315 875 244 875"},"Ě":{"x_min":60,"x_max":426,"ha":447,"o":"m 426 0 l 60 0 l 60 810 l 424 810 l 424 688 l 239 688 l 239 487 l 380 487 l 380 363 l 239 363 l 239 121 l 426 121 l 426 0 m 323 871 l 165 871 l 77 1058 l 193 1058 l 244 948 l 295 1058 l 411 1058 l 323 871"},"Ê":{"x_min":60,"x_max":426,"ha":447,"o":"m 426 0 l 60 0 l 60 810 l 424 810 l 424 688 l 239 688 l 239 487 l 380 487 l 380 363 l 239 363 l 239 121 l 426 121 l 426 0 m 200 881 l 81 881 l 176 1073 l 309 1073 l 407 881 l 287 881 l 243 1000 l 200 881"},"Ế":{"x_min":60,"x_max":553,"ha":447,"o":"m 426 0 l 60 0 l 60 810 l 424 810 l 424 688 l 239 688 l 239 487 l 380 487 l 380 363 l 239 363 l 239 121 l 426 121 l 426 0 m 196 881 l 81 881 l 176 1048 l 309 1048 l 407 881 l 291 881 l 243 981 l 196 881 m 465 999 l 379 999 l 432 1122 l 553 1122 l 465 999"},"Ệ":{"x_min":60,"x_max":426,"ha":447,"o":"m 426 0 l 60 0 l 60 810 l 424 810 l 424 688 l 239 688 l 239 487 l 380 487 l 380 363 l 239 363 l 239 121 l 426 121 l 426 0 m 196 881 l 81 881 l 176 1048 l 309 1048 l 407 881 l 291 881 l 243 981 l 196 881 m 294 -208 l 155 -208 l 155 -70 l 294 -70 l 294 -208"},"Ề":{"x_min":60,"x_max":495,"ha":447,"o":"m 426 0 l 60 0 l 60 810 l 424 810 l 424 688 l 239 688 l 239 487 l 380 487 l 380 363 l 239 363 l 239 121 l 426 121 l 426 0 m 196 881 l 81 881 l 176 1048 l 309 1048 l 407 881 l 291 881 l 243 981 l 196 881 m 495 999 l 408 999 l 320 1122 l 442 1122 l 495 999"},"Ể":{"x_min":60,"x_max":511,"ha":447,"o":"m 426 0 l 60 0 l 60 810 l 424 810 l 424 688 l 239 688 l 239 487 l 380 487 l 380 363 l 239 363 l 239 121 l 426 121 l 426 0 m 420 973 l 420 973 l 374 1022 q 391 1036 401 1050 q 411 1063 411 1082 l 411 1082 q 411 1101 399 1112 q 386 1122 365 1122 l 365 1122 q 349 1122 337 1119 q 324 1116 314 1112 l 314 1112 l 314 1180 q 334 1188 354 1192 q 374 1196 396 1196 l 396 1196 q 446 1196 479 1172 q 511 1147 511 1097 l 511 1097 q 511 1049 484 1021 q 456 993 420 973 m 196 881 l 81 881 l 176 1048 l 309 1048 l 407 881 l 291 881 l 243 981 l 196 881"},"Ễ":{"x_min":60,"x_max":426,"ha":447,"o":"m 426 0 l 60 0 l 60 810 l 424 810 l 424 688 l 239 688 l 239 487 l 380 487 l 380 363 l 239 363 l 239 121 l 426 121 l 426 0 m 196 881 l 81 881 l 176 1048 l 309 1048 l 407 881 l 291 881 l 243 981 l 196 881 m 325 1097 l 325 1097 q 300 1097 279 1109 q 258 1121 239 1133 q 220 1144 200 1144 l 200 1144 q 178 1144 171 1132 q 164 1119 164 1103 l 164 1103 l 86 1103 q 86 1144 94 1176 q 102 1208 122 1227 q 142 1245 176 1245 l 176 1245 q 201 1245 221 1234 q 240 1223 259 1212 q 278 1201 299 1201 l 299 1201 q 316 1201 323 1212 q 330 1223 330 1239 l 330 1239 l 402 1239 q 402 1207 398 1174 q 393 1141 377 1119 q 360 1097 325 1097"},"Ȅ":{"x_min":21,"x_max":426,"ha":447,"o":"m 426 0 l 60 0 l 60 810 l 424 810 l 424 688 l 239 688 l 239 487 l 380 487 l 380 363 l 239 363 l 239 121 l 426 121 l 426 0 m 209 870 l 121 870 l 21 1077 l 145 1077 l 209 870 m 382 870 l 296 870 l 204 1077 l 323 1077 l 382 870"},"Ë":{"x_min":60,"x_max":426,"ha":447,"o":"m 426 0 l 60 0 l 60 810 l 424 810 l 424 688 l 239 688 l 239 487 l 380 487 l 380 363 l 239 363 l 239 121 l 426 121 l 426 0 m 418 894 l 288 894 l 288 1042 l 418 1042 l 418 894 m 200 894 l 70 894 l 70 1042 l 200 1042 l 200 894"},"Ė":{"x_min":60,"x_max":426,"ha":447,"o":"m 426 0 l 60 0 l 60 810 l 424 810 l 424 688 l 239 688 l 239 487 l 380 487 l 380 363 l 239 363 l 239 121 l 426 121 l 426 0 m 321 884 l 167 884 l 167 1038 l 321 1038 l 321 884"},"Ẹ":{"x_min":60,"x_max":426,"ha":447,"o":"m 426 0 l 60 0 l 60 810 l 424 810 l 424 688 l 239 688 l 239 487 l 380 487 l 380 363 l 239 363 l 239 121 l 426 121 l 426 0 m 294 -208 l 155 -208 l 155 -70 l 294 -70 l 294 -208"},"È":{"x_min":60,"x_max":426,"ha":447,"o":"m 426 0 l 60 0 l 60 810 l 424 810 l 424 688 l 239 688 l 239 487 l 380 487 l 380 363 l 239 363 l 239 121 l 426 121 l 426 0 m 298 874 l 196 874 l 69 1075 l 237 1075 l 298 874"},"Ẻ":{"x_min":60,"x_max":426,"ha":447,"o":"m 426 0 l 60 0 l 60 810 l 424 810 l 424 688 l 239 688 l 239 487 l 380 487 l 380 363 l 239 363 l 239 121 l 426 121 l 426 0 m 244 859 l 244 859 l 189 911 q 219 925 240 939 q 261 952 261 975 l 261 975 q 261 995 245 1003 q 229 1010 204 1010 l 204 1010 q 189 1010 172 1008 q 155 1006 142 1003 l 142 1003 l 142 1071 q 190 1084 244 1084 l 244 1084 q 276 1084 304 1074 q 332 1064 349 1043 q 366 1021 366 985 l 366 985 q 366 950 349 926 q 332 902 305 887 q 277 871 244 859"},"Ȇ":{"x_min":60,"x_max":426,"ha":447,"o":"m 426 0 l 60 0 l 60 810 l 424 810 l 424 688 l 239 688 l 239 487 l 380 487 l 380 363 l 239 363 l 239 121 l 426 121 l 426 0 m 179 881 l 87 881 q 87 933 106 968 q 125 1003 161 1022 q 196 1040 244 1040 l 244 1040 q 293 1040 328 1022 q 363 1003 382 968 q 401 933 401 881 l 401 881 l 309 881 q 309 920 294 939 q 279 957 244 957 l 244 957 q 209 957 194 939 q 179 921 179 881 l 179 881"},"Ē":{"x_min":60,"x_max":426,"ha":447,"o":"m 426 0 l 60 0 l 60 810 l 424 810 l 424 688 l 239 688 l 239 487 l 380 487 l 380 363 l 239 363 l 239 121 l 426 121 l 426 0 m 382 898 l 106 898 l 106 975 l 382 975 l 382 898"},"Ę":{"x_min":60,"x_max":426,"ha":447,"o":"m 426 0 l 60 0 l 60 810 l 424 810 l 424 688 l 239 688 l 239 487 l 380 487 l 380 363 l 239 363 l 239 121 l 426 121 l 426 0 m 359 -260 l 359 -260 q 334 -260 306 -256 q 278 -253 254 -242 q 230 -231 215 -209 q 200 -188 200 -152 l 200 -152 q 200 -126 211 -97 q 222 -69 240 -43 q 258 -18 278 0 l 278 0 l 351 0 q 342 -17 334 -37 q 325 -58 320 -79 q 315 -100 315 -121 l 315 -121 q 315 -155 335 -167 q 354 -180 379 -180 l 379 -180 q 387 -180 395 -179 q 403 -179 408 -178 l 408 -178 l 392 -257 q 386 -258 378 -259 q 369 -260 359 -260"},"Ẽ":{"x_min":60,"x_max":426,"ha":447,"o":"m 426 0 l 60 0 l 60 810 l 424 810 l 424 688 l 239 688 l 239 487 l 380 487 l 380 363 l 239 363 l 239 121 l 426 121 l 426 0 m 325 900 l 325 900 q 300 900 279 912 q 258 924 239 936 q 220 947 200 947 l 200 947 q 178 947 171 935 q 164 922 164 906 l 164 906 l 86 906 q 86 947 94 979 q 102 1011 122 1030 q 142 1048 176 1048 l 176 1048 q 201 1048 221 1037 q 240 1026 259 1015 q 278 1004 299 1004 l 299 1004 q 316 1004 323 1015 q 330 1026 330 1042 l 330 1042 l 402 1042 q 402 1010 398 977 q 393 944 377 922 q 360 900 325 900"},"Ə":{"x_min":45,"x_max":533,"ha":582,"o":"m 291 -12 l 291 -12 q 213 -12 158 16 q 103 44 74 100 q 45 155 45 236 l 45 236 l 45 421 l 350 421 l 350 606 q 350 639 343 659 q 336 678 323 687 q 309 695 288 695 l 288 695 q 269 695 256 687 q 242 678 235 659 q 228 639 228 606 l 228 606 l 228 491 l 45 491 l 45 574 q 45 656 74 711 q 103 765 159 793 q 214 821 291 821 l 291 821 q 366 821 420 791 q 474 760 504 703 q 533 645 533 564 l 533 564 l 533 244 q 533 163 504 106 q 474 48 420 18 q 366 -12 291 -12 m 289 114 l 289 114 q 310 114 324 123 q 337 132 344 152 q 350 171 350 202 l 350 202 l 350 313 l 228 313 l 228 202 q 228 171 235 152 q 241 132 255 123 q 269 114 289 114"},"Ʒ":{"x_min":23,"x_max":468,"ha":503,"o":"m 247 -15 l 247 -15 q 162 -15 113 17 q 64 49 44 107 q 23 164 23 239 l 23 239 l 23 268 l 190 268 q 190 267 190 257 q 190 247 190 239 l 190 239 q 190 170 203 141 q 215 112 249 112 l 249 112 q 266 112 277 120 q 287 127 293 142 q 299 156 301 180 q 303 203 303 234 l 303 234 q 303 293 295 328 q 286 363 262 379 q 238 395 190 395 l 190 395 l 103 395 l 103 484 l 255 689 l 47 689 l 47 810 l 435 810 l 435 709 l 241 455 l 202 493 l 266 493 q 348 493 392 460 q 435 427 452 370 q 468 312 468 238 l 468 238 q 468 164 447 107 q 425 50 377 18 q 328 -15 247 -15"},"Ǯ":{"x_min":23,"x_max":468,"ha":503,"o":"m 247 -15 l 247 -15 q 162 -15 113 17 q 64 49 44 107 q 23 164 23 239 l 23 239 l 23 268 l 190 268 q 190 267 190 257 q 190 247 190 239 l 190 239 q 190 170 203 141 q 215 112 249 112 l 249 112 q 266 112 277 120 q 287 127 293 142 q 299 156 301 180 q 303 203 303 234 l 303 234 q 303 293 295 328 q 286 363 262 379 q 238 395 190 395 l 190 395 l 103 395 l 103 484 l 255 689 l 47 689 l 47 810 l 435 810 l 435 709 l 241 455 l 202 493 l 266 493 q 348 493 392 460 q 435 427 452 370 q 468 312 468 238 l 468 238 q 468 164 447 107 q 425 50 377 18 q 328 -15 247 -15 m 331 871 l 173 871 l 85 1058 l 201 1058 l 252 948 l 303 1058 l 419 1058 l 331 871"},"F":{"x_min":60,"x_max":410,"ha":434,"o":"m 239 0 l 60 0 l 60 810 l 410 810 l 410 689 l 239 689 l 239 485 l 388 485 l 388 360 l 239 360 l 239 0"},"Ḟ":{"x_min":60,"x_max":410,"ha":434,"o":"m 239 0 l 60 0 l 60 810 l 410 810 l 410 689 l 239 689 l 239 485 l 388 485 l 388 360 l 239 360 l 239 0 m 295 884 l 141 884 l 141 1038 l 295 1038 l 295 884"},"G":{"x_min":49,"x_max":530,"ha":582,"o":"m 271 -12 l 271 -12 q 187 -12 139 23 q 90 58 70 122 q 49 185 49 268 l 49 268 l 49 540 q 49 626 71 689 q 93 752 147 787 q 200 821 292 821 l 292 821 q 382 821 434 791 q 485 761 507 708 q 529 655 529 584 l 529 584 l 529 532 l 354 532 l 354 598 q 354 624 351 646 q 347 668 335 682 q 322 695 294 695 l 294 695 q 265 695 252 680 q 239 664 236 641 q 232 618 232 593 l 232 593 l 232 218 q 232 191 238 168 q 243 144 258 130 q 272 115 299 115 l 299 115 q 327 115 342 130 q 357 145 363 169 q 369 193 369 220 l 369 220 l 369 315 l 296 315 l 296 420 l 530 420 l 530 0 l 412 0 l 402 67 q 386 33 355 11 q 324 -12 271 -12"},"Ǵ":{"x_min":49,"x_max":530,"ha":582,"o":"m 271 -12 l 271 -12 q 187 -12 139 23 q 90 58 70 122 q 49 185 49 268 l 49 268 l 49 540 q 49 626 71 689 q 93 752 147 787 q 200 821 292 821 l 292 821 q 382 821 434 791 q 485 761 507 708 q 529 655 529 584 l 529 584 l 529 532 l 354 532 l 354 598 q 354 624 351 646 q 347 668 335 682 q 322 695 294 695 l 294 695 q 265 695 252 680 q 239 664 236 641 q 232 618 232 593 l 232 593 l 232 218 q 232 191 238 168 q 243 144 258 130 q 272 115 299 115 l 299 115 q 327 115 342 130 q 357 145 363 169 q 369 193 369 220 l 369 220 l 369 315 l 296 315 l 296 420 l 530 420 l 530 0 l 412 0 l 402 67 q 386 33 355 11 q 324 -12 271 -12 m 340 874 l 237 874 l 300 1075 l 466 1075 l 340 874"},"Ğ":{"x_min":49,"x_max":530,"ha":582,"o":"m 271 -12 l 271 -12 q 187 -12 139 23 q 90 58 70 122 q 49 185 49 268 l 49 268 l 49 540 q 49 626 71 689 q 93 752 147 787 q 200 821 292 821 l 292 821 q 382 821 434 791 q 485 761 507 708 q 529 655 529 584 l 529 584 l 529 532 l 354 532 l 354 598 q 354 624 351 646 q 347 668 335 682 q 322 695 294 695 l 294 695 q 265 695 252 680 q 239 664 236 641 q 232 618 232 593 l 232 593 l 232 218 q 232 191 238 168 q 243 144 258 130 q 272 115 299 115 l 299 115 q 327 115 342 130 q 357 145 363 169 q 369 193 369 220 l 369 220 l 369 315 l 296 315 l 296 420 l 530 420 l 530 0 l 412 0 l 402 67 q 386 33 355 11 q 324 -12 271 -12 m 291 875 l 291 875 q 220 875 177 915 q 134 955 134 1031 l 134 1031 l 226 1031 q 226 994 241 976 q 255 958 291 958 l 291 958 q 326 958 341 977 q 356 995 356 1031 l 356 1031 l 448 1031 q 448 955 405 915 q 362 875 291 875"},"Ǧ":{"x_min":49,"x_max":530,"ha":582,"o":"m 271 -12 l 271 -12 q 187 -12 139 23 q 90 58 70 122 q 49 185 49 268 l 49 268 l 49 540 q 49 626 71 689 q 93 752 147 787 q 200 821 292 821 l 292 821 q 382 821 434 791 q 485 761 507 708 q 529 655 529 584 l 529 584 l 529 532 l 354 532 l 354 598 q 354 624 351 646 q 347 668 335 682 q 322 695 294 695 l 294 695 q 265 695 252 680 q 239 664 236 641 q 232 618 232 593 l 232 593 l 232 218 q 232 191 238 168 q 243 144 258 130 q 272 115 299 115 l 299 115 q 327 115 342 130 q 357 145 363 169 q 369 193 369 220 l 369 220 l 369 315 l 296 315 l 296 420 l 530 420 l 530 0 l 412 0 l 402 67 q 386 33 355 11 q 324 -12 271 -12 m 370 871 l 212 871 l 124 1058 l 240 1058 l 291 948 l 342 1058 l 458 1058 l 370 871"},"Ĝ":{"x_min":49,"x_max":530,"ha":582,"o":"m 271 -12 l 271 -12 q 187 -12 139 23 q 90 58 70 122 q 49 185 49 268 l 49 268 l 49 540 q 49 626 71 689 q 93 752 147 787 q 200 821 292 821 l 292 821 q 382 821 434 791 q 485 761 507 708 q 529 655 529 584 l 529 584 l 529 532 l 354 532 l 354 598 q 354 624 351 646 q 347 668 335 682 q 322 695 294 695 l 294 695 q 265 695 252 680 q 239 664 236 641 q 232 618 232 593 l 232 593 l 232 218 q 232 191 238 168 q 243 144 258 130 q 272 115 299 115 l 299 115 q 327 115 342 130 q 357 145 363 169 q 369 193 369 220 l 369 220 l 369 315 l 296 315 l 296 420 l 530 420 l 530 0 l 412 0 l 402 67 q 386 33 355 11 q 324 -12 271 -12 m 247 881 l 128 881 l 223 1073 l 356 1073 l 454 881 l 334 881 l 290 1000 l 247 881"},"Ģ":{"x_min":49,"x_max":530,"ha":582,"o":"m 271 -12 l 271 -12 q 187 -12 139 23 q 90 58 70 122 q 49 185 49 268 l 49 268 l 49 540 q 49 626 71 689 q 93 752 147 787 q 200 821 292 821 l 292 821 q 382 821 434 791 q 485 761 507 708 q 529 655 529 584 l 529 584 l 529 532 l 354 532 l 354 598 q 354 624 351 646 q 347 668 335 682 q 322 695 294 695 l 294 695 q 265 695 252 680 q 239 664 236 641 q 232 618 232 593 l 232 593 l 232 218 q 232 191 238 168 q 243 144 258 130 q 272 115 299 115 l 299 115 q 327 115 342 130 q 357 145 363 169 q 369 193 369 220 l 369 220 l 369 315 l 296 315 l 296 420 l 530 420 l 530 0 l 412 0 l 402 67 q 386 33 355 11 q 324 -12 271 -12 m 241 -356 l 241 -356 l 228 -302 q 256 -297 278 -280 q 299 -264 299 -221 l 299 -221 l 214 -221 l 214 -69 l 367 -69 l 367 -199 q 367 -273 337 -313 q 307 -354 241 -356"},"Ġ":{"x_min":49,"x_max":530,"ha":582,"o":"m 271 -12 l 271 -12 q 187 -12 139 23 q 90 58 70 122 q 49 185 49 268 l 49 268 l 49 540 q 49 626 71 689 q 93 752 147 787 q 200 821 292 821 l 292 821 q 382 821 434 791 q 485 761 507 708 q 529 655 529 584 l 529 584 l 529 532 l 354 532 l 354 598 q 354 624 351 646 q 347 668 335 682 q 322 695 294 695 l 294 695 q 265 695 252 680 q 239 664 236 641 q 232 618 232 593 l 232 593 l 232 218 q 232 191 238 168 q 243 144 258 130 q 272 115 299 115 l 299 115 q 327 115 342 130 q 357 145 363 169 q 369 193 369 220 l 369 220 l 369 315 l 296 315 l 296 420 l 530 420 l 530 0 l 412 0 l 402 67 q 386 33 355 11 q 324 -12 271 -12 m 368 884 l 214 884 l 214 1038 l 368 1038 l 368 884"},"Ǥ":{"x_min":49,"x_max":586,"ha":582,"o":"m 586 189 l 321 189 l 321 278 l 586 278 l 586 189 m 271 -12 l 271 -12 q 187 -12 139 23 q 90 58 70 122 q 49 185 49 268 l 49 268 l 49 540 q 49 626 71 689 q 93 752 147 787 q 200 821 292 821 l 292 821 q 382 821 434 791 q 485 761 507 708 q 529 655 529 584 l 529 584 l 529 532 l 354 532 l 354 598 q 354 624 351 646 q 347 668 335 682 q 322 695 294 695 l 294 695 q 265 695 252 680 q 239 664 236 641 q 232 618 232 593 l 232 593 l 232 218 q 232 191 238 168 q 243 144 258 130 q 272 115 299 115 l 299 115 q 327 115 342 130 q 357 145 363 169 q 369 193 369 220 l 369 220 l 369 315 l 296 315 l 296 420 l 530 420 l 530 0 l 412 0 l 402 67 q 386 33 355 11 q 324 -12 271 -12"},"H":{"x_min":63,"x_max":547,"ha":610,"o":"m 242 0 l 63 0 l 63 810 l 242 810 l 242 482 l 368 482 l 368 810 l 547 810 l 547 0 l 368 0 l 368 354 l 242 354 l 242 0"},"Ħ":{"x_min":-13,"x_max":553,"ha":540,"o":"m 217 0 l 38 0 l 38 615 l -13 615 l -13 671 l 38 671 l 38 810 l 217 810 l 217 671 l 334 671 l 334 810 l 514 810 l 514 671 l 553 671 l 553 615 l 514 615 l 514 0 l 334 0 l 334 354 l 217 354 l 217 0 m 217 615 l 217 482 l 334 482 l 334 615 l 217 615"},"Ȟ":{"x_min":63,"x_max":547,"ha":610,"o":"m 242 0 l 63 0 l 63 810 l 242 810 l 242 482 l 368 482 l 368 810 l 547 810 l 547 0 l 368 0 l 368 354 l 242 354 l 242 0 m 384 871 l 226 871 l 138 1058 l 254 1058 l 305 948 l 356 1058 l 472 1058 l 384 871"},"Ĥ":{"x_min":63,"x_max":547,"ha":610,"o":"m 242 0 l 63 0 l 63 810 l 242 810 l 242 482 l 368 482 l 368 810 l 547 810 l 547 0 l 368 0 l 368 354 l 242 354 l 242 0 m 261 881 l 142 881 l 237 1073 l 370 1073 l 468 881 l 348 881 l 304 1000 l 261 881"},"I":{"x_min":61,"x_max":240,"ha":301,"o":"m 240 0 l 61 0 l 61 810 l 240 810 l 240 0"},"Ĳ":{"x_min":61,"x_max":590,"ha":650,"o":"m 240 0 l 61 0 l 61 810 l 240 810 l 240 0 m 401 -21 l 314 -21 l 314 104 q 341 104 360 107 q 379 110 390 119 q 401 127 406 144 q 411 160 411 186 l 411 186 l 411 810 l 590 810 l 590 178 q 590 112 574 68 q 557 23 516 1 q 475 -21 401 -21 l 401 -21"},"Í":{"x_min":61,"x_max":325,"ha":301,"o":"m 240 0 l 61 0 l 61 810 l 240 810 l 240 0 m 199 874 l 96 874 l 159 1075 l 325 1075 l 199 874"},"Ĭ":{"x_min":-7,"x_max":307,"ha":301,"o":"m 240 0 l 61 0 l 61 810 l 240 810 l 240 0 m 150 875 l 150 875 q 79 875 36 915 q -7 955 -7 1031 l -7 1031 l 85 1031 q 85 994 100 976 q 114 958 150 958 l 150 958 q 185 958 200 977 q 215 995 215 1031 l 215 1031 l 307 1031 q 307 955 264 915 q 221 875 150 875"},"Î":{"x_min":-13,"x_max":313,"ha":301,"o":"m 240 0 l 61 0 l 61 810 l 240 810 l 240 0 m 106 881 l -13 881 l 82 1073 l 215 1073 l 313 881 l 193 881 l 149 1000 l 106 881"},"Ȉ":{"x_min":-73,"x_max":288,"ha":301,"o":"m 240 0 l 61 0 l 61 810 l 240 810 l 240 0 m 115 870 l 27 870 l -73 1077 l 51 1077 l 115 870 m 288 870 l 202 870 l 110 1077 l 229 1077 l 288 870"},"Ï":{"x_min":-24,"x_max":324,"ha":301,"o":"m 240 0 l 61 0 l 61 810 l 240 810 l 240 0 m 324 894 l 194 894 l 194 1042 l 324 1042 l 324 894 m 106 894 l -24 894 l -24 1042 l 106 1042 l 106 894"},"İ":{"x_min":61,"x_max":240,"ha":301,"o":"m 240 0 l 61 0 l 61 810 l 240 810 l 240 0 m 227 884 l 73 884 l 73 1038 l 227 1038 l 227 884"},"Ị":{"x_min":61,"x_max":240,"ha":301,"o":"m 240 0 l 61 0 l 61 810 l 240 810 l 240 0 m 220 -208 l 81 -208 l 81 -70 l 220 -70 l 220 -208"},"Ì":{"x_min":-25,"x_max":240,"ha":301,"o":"m 240 0 l 61 0 l 61 810 l 240 810 l 240 0 m 204 874 l 102 874 l -25 1075 l 143 1075 l 204 874"},"Ỉ":{"x_min":48,"x_max":272,"ha":301,"o":"m 240 0 l 61 0 l 61 810 l 240 810 l 240 0 m 150 859 l 150 859 l 95 911 q 125 925 146 939 q 167 952 167 975 l 167 975 q 167 995 151 1003 q 135 1010 110 1010 l 110 1010 q 95 1010 78 1008 q 61 1006 48 1003 l 48 1003 l 48 1071 q 96 1084 150 1084 l 150 1084 q 182 1084 210 1074 q 238 1064 255 1043 q 272 1021 272 985 l 272 985 q 272 950 255 926 q 238 902 211 887 q 183 871 150 859"},"Ȋ":{"x_min":-7,"x_max":307,"ha":301,"o":"m 240 0 l 61 0 l 61 810 l 240 810 l 240 0 m 85 881 l -7 881 q -7 933 12 968 q 31 1003 67 1022 q 102 1040 150 1040 l 150 1040 q 199 1040 234 1022 q 269 1003 288 968 q 307 933 307 881 l 307 881 l 215 881 q 215 920 200 939 q 185 957 150 957 l 150 957 q 115 957 100 939 q 85 921 85 881 l 85 881"},"Ī":{"x_min":12,"x_max":288,"ha":301,"o":"m 240 0 l 61 0 l 61 810 l 240 810 l 240 0 m 288 898 l 12 898 l 12 975 l 288 975 l 288 898"},"Į":{"x_min":37,"x_max":245,"ha":301,"o":"m 240 0 l 61 0 l 61 810 l 240 810 l 240 0 m 196 -260 l 196 -260 q 171 -260 143 -256 q 115 -253 91 -242 q 67 -231 52 -209 q 37 -188 37 -152 l 37 -152 q 37 -126 48 -97 q 59 -69 77 -43 q 95 -18 115 0 l 115 0 l 188 0 q 179 -17 171 -37 q 162 -58 157 -79 q 152 -100 152 -121 l 152 -121 q 152 -155 172 -167 q 191 -180 216 -180 l 216 -180 q 224 -180 232 -179 q 240 -179 245 -178 l 245 -178 l 229 -257 q 223 -258 215 -259 q 206 -260 196 -260"},"Ĩ":{"x_min":-8,"x_max":308,"ha":301,"o":"m 240 0 l 61 0 l 61 810 l 240 810 l 240 0 m 231 900 l 231 900 q 206 900 185 912 q 164 924 145 936 q 126 947 106 947 l 106 947 q 84 947 77 935 q 70 922 70 906 l 70 906 l -8 906 q -8 947 0 979 q 8 1011 28 1030 q 48 1048 82 1048 l 82 1048 q 107 1048 127 1037 q 146 1026 165 1015 q 184 1004 205 1004 l 205 1004 q 222 1004 229 1015 q 236 1026 236 1042 l 236 1042 l 308 1042 q 308 1010 304 977 q 299 944 283 922 q 266 900 231 900"},"J":{"x_min":13,"x_max":289,"ha":349,"o":"m 100 -21 l 13 -21 l 13 104 q 40 104 59 107 q 78 110 89 119 q 100 127 105 144 q 110 160 110 186 l 110 186 l 110 810 l 289 810 l 289 178 q 289 112 273 68 q 256 23 215 1 q 174 -21 100 -21 l 100 -21"},"Ĵ":{"x_min":13,"x_max":363,"ha":349,"o":"m 100 -21 l 13 -21 l 13 104 q 40 104 59 107 q 78 110 89 119 q 100 127 105 144 q 110 160 110 186 l 110 186 l 110 810 l 289 810 l 289 178 q 289 112 273 68 q 256 23 215 1 q 174 -21 100 -21 l 100 -21 m 156 881 l 37 881 l 132 1073 l 265 1073 l 363 881 l 243 881 l 199 1000 l 156 881"},"K":{"x_min":60,"x_max":557,"ha":567,"o":"m 239 0 l 60 0 l 60 810 l 239 810 l 239 479 l 375 810 l 550 810 l 400 444 l 557 0 l 375 0 l 258 358 l 239 326 l 239 0"},"Ǩ":{"x_min":60,"x_max":557,"ha":567,"o":"m 239 0 l 60 0 l 60 810 l 239 810 l 239 479 l 375 810 l 550 810 l 400 444 l 557 0 l 375 0 l 258 358 l 239 326 l 239 0 m 376 871 l 218 871 l 130 1058 l 246 1058 l 297 948 l 348 1058 l 464 1058 l 376 871"},"Ķ":{"x_min":60,"x_max":557,"ha":567,"o":"m 239 0 l 60 0 l 60 810 l 239 810 l 239 479 l 375 810 l 550 810 l 400 444 l 557 0 l 375 0 l 258 358 l 239 326 l 239 0 m 234 -356 l 234 -356 l 221 -302 q 249 -297 271 -280 q 292 -264 292 -221 l 292 -221 l 207 -221 l 207 -69 l 360 -69 l 360 -199 q 360 -273 330 -313 q 300 -354 234 -356"},"L":{"x_min":60,"x_max":425,"ha":443,"o":"m 425 0 l 60 0 l 60 810 l 239 810 l 239 121 l 425 121 l 425 0"},"Ǉ":{"x_min":60,"x_max":732,"ha":792,"o":"m 425 0 l 60 0 l 60 810 l 239 810 l 239 121 l 425 121 l 425 0 m 543 -21 l 456 -21 l 456 104 q 483 104 502 107 q 521 110 532 119 q 543 127 548 144 q 553 160 553 186 l 553 186 l 553 810 l 732 810 l 732 178 q 732 112 716 68 q 699 23 658 1 q 617 -21 543 -21 l 543 -21"},"Ĺ":{"x_min":60,"x_max":425,"ha":443,"o":"m 425 0 l 60 0 l 60 810 l 239 810 l 239 121 l 425 121 l 425 0 m 198 874 l 95 874 l 158 1075 l 324 1075 l 198 874"},"Ľ":{"x_min":60,"x_max":454,"ha":443,"o":"m 425 0 l 60 0 l 60 810 l 239 810 l 239 121 l 425 121 l 425 0 m 325 516 l 325 516 l 315 568 q 341 575 364 594 q 386 613 386 656 l 386 656 l 300 656 l 300 810 l 454 810 l 454 676 q 454 602 422 562 q 390 521 325 516"},"Ļ":{"x_min":60,"x_max":425,"ha":443,"o":"m 425 0 l 60 0 l 60 810 l 239 810 l 239 121 l 425 121 l 425 0 m 192 -356 l 192 -356 l 179 -302 q 207 -297 229 -280 q 250 -264 250 -221 l 250 -221 l 165 -221 l 165 -69 l 318 -69 l 318 -199 q 318 -273 288 -313 q 258 -354 192 -356"},"Ŀ":{"x_min":60,"x_max":427,"ha":443,"o":"m 425 0 l 60 0 l 60 810 l 239 810 l 239 121 l 425 121 l 425 0 m 427 378 l 316 378 l 316 530 l 427 530 l 427 378"},"ǈ":{"x_min":60,"x_max":663,"ha":712,"o":"m 425 0 l 60 0 l 60 810 l 239 810 l 239 121 l 425 121 l 425 0 m 513 -180 l 513 -180 q 491 -180 469 -176 q 446 -173 426 -167 l 426 -167 l 426 -50 q 434 -51 442 -52 q 449 -54 455 -54 l 455 -54 q 469 -54 479 -49 q 489 -44 495 -33 q 500 -23 500 -5 l 500 -5 l 500 578 l 662 578 l 662 -25 q 662 -93 625 -136 q 587 -180 513 -180 m 663 676 l 499 676 l 499 789 l 663 789 l 663 676"},"Ł":{"x_min":8,"x_max":433,"ha":450,"o":"m 433 0 l 68 0 l 68 358 l 8 330 l 8 428 l 68 456 l 68 810 l 247 810 l 247 540 l 345 587 l 345 489 l 247 442 l 247 121 l 433 121 l 433 0"},"M":{"x_min":57,"x_max":647,"ha":704,"o":"m 186 0 l 57 0 l 71 810 l 263 810 l 352 339 l 448 810 l 633 810 l 647 0 l 520 0 l 505 539 l 411 0 l 298 0 l 198 543 l 186 0"},"Ṁ":{"x_min":57,"x_max":647,"ha":704,"o":"m 186 0 l 57 0 l 71 810 l 263 810 l 352 339 l 448 810 l 633 810 l 647 0 l 520 0 l 505 539 l 411 0 l 298 0 l 198 543 l 186 0 m 429 884 l 275 884 l 275 1038 l 429 1038 l 429 884"},"N":{"x_min":60,"x_max":500,"ha":561,"o":"m 213 0 l 60 0 l 60 810 l 186 810 l 352 420 l 352 810 l 500 810 l 500 0 l 379 0 l 213 420 l 213 0"},"Ǌ":{"x_min":60,"x_max":850,"ha":910,"o":"m 213 0 l 60 0 l 60 810 l 186 810 l 352 420 l 352 810 l 500 810 l 500 0 l 379 0 l 213 420 l 213 0 m 661 -21 l 574 -21 l 574 104 q 601 104 620 107 q 639 110 650 119 q 661 127 666 144 q 671 160 671 186 l 671 186 l 671 810 l 850 810 l 850 178 q 850 112 834 68 q 817 23 776 1 q 735 -21 661 -21 l 661 -21"},"Ń":{"x_min":60,"x_max":500,"ha":561,"o":"m 213 0 l 60 0 l 60 810 l 186 810 l 352 420 l 352 810 l 500 810 l 500 0 l 379 0 l 213 420 l 213 0 m 329 874 l 226 874 l 289 1075 l 455 1075 l 329 874"},"Ň":{"x_min":60,"x_max":500,"ha":561,"o":"m 213 0 l 60 0 l 60 810 l 186 810 l 352 420 l 352 810 l 500 810 l 500 0 l 379 0 l 213 420 l 213 0 m 359 871 l 201 871 l 113 1058 l 229 1058 l 280 948 l 331 1058 l 447 1058 l 359 871"},"Ņ":{"x_min":60,"x_max":500,"ha":561,"o":"m 213 0 l 60 0 l 60 810 l 186 810 l 352 420 l 352 810 l 500 810 l 500 0 l 379 0 l 213 420 l 213 0 m 230 -356 l 230 -356 l 217 -302 q 245 -297 267 -280 q 288 -264 288 -221 l 288 -221 l 203 -221 l 203 -69 l 356 -69 l 356 -199 q 356 -273 326 -313 q 296 -354 230 -356"},"ǋ":{"x_min":60,"x_max":781,"ha":830,"o":"m 213 0 l 60 0 l 60 810 l 186 810 l 352 420 l 352 810 l 500 810 l 500 0 l 379 0 l 213 420 l 213 0 m 631 -180 l 631 -180 q 609 -180 587 -176 q 564 -173 544 -167 l 544 -167 l 544 -50 q 552 -51 560 -52 q 567 -54 573 -54 l 573 -54 q 587 -54 597 -49 q 607 -44 613 -33 q 618 -23 618 -5 l 618 -5 l 618 578 l 780 578 l 780 -25 q 780 -93 743 -136 q 705 -180 631 -180 m 781 676 l 617 676 l 617 789 l 781 789 l 781 676"},"Ñ":{"x_min":60,"x_max":500,"ha":561,"o":"m 213 0 l 60 0 l 60 810 l 186 810 l 352 420 l 352 810 l 500 810 l 500 0 l 379 0 l 213 420 l 213 0 m 361 900 l 361 900 q 336 900 315 912 q 294 924 275 936 q 256 947 236 947 l 236 947 q 214 947 207 935 q 200 922 200 906 l 200 906 l 122 906 q 122 947 130 979 q 138 1011 158 1030 q 178 1048 212 1048 l 212 1048 q 237 1048 257 1037 q 276 1026 295 1015 q 314 1004 335 1004 l 335 1004 q 352 1004 359 1015 q 366 1026 366 1042 l 366 1042 l 438 1042 q 438 1010 434 977 q 429 944 413 922 q 396 900 361 900"},"Ŋ":{"x_min":63,"x_max":504,"ha":568,"o":"m 319 -209 l 245 -209 l 245 -102 q 290 -102 316 -94 q 342 -86 354 -67 q 365 -48 365 -15 l 365 -15 l 365 76 l 215 420 l 215 0 l 63 0 l 63 810 l 190 810 l 357 420 l 357 810 l 504 810 l 504 0 q 504 -68 489 -115 q 474 -162 434 -185 q 394 -209 319 -209 l 319 -209"},"O":{"x_min":49,"x_max":537,"ha":586,"o":"m 292 -12 l 292 -12 q 201 -12 148 20 q 95 52 72 112 q 49 172 49 255 l 49 255 l 49 556 q 49 640 72 699 q 95 758 148 790 q 201 821 292 821 l 292 821 q 384 821 438 790 q 491 758 514 699 q 537 640 537 556 l 537 556 l 537 255 q 537 172 514 112 q 491 52 438 20 q 384 -12 292 -12 m 292 115 l 292 115 q 320 115 333 129 q 346 143 350 165 q 354 187 354 210 l 354 210 l 354 600 q 354 624 350 646 q 346 667 333 681 q 320 695 292 695 l 292 695 q 266 695 253 681 q 240 667 236 646 q 232 624 232 600 l 232 600 l 232 210 q 232 187 236 165 q 239 143 252 129 q 264 115 292 115"},"Ó":{"x_min":49,"x_max":537,"ha":586,"o":"m 292 -12 l 292 -12 q 201 -12 148 20 q 95 52 72 112 q 49 172 49 255 l 49 255 l 49 556 q 49 640 72 699 q 95 758 148 790 q 201 821 292 821 l 292 821 q 384 821 438 790 q 491 758 514 699 q 537 640 537 556 l 537 556 l 537 255 q 537 172 514 112 q 491 52 438 20 q 384 -12 292 -12 m 292 115 l 292 115 q 320 115 333 129 q 346 143 350 165 q 354 187 354 210 l 354 210 l 354 600 q 354 624 350 646 q 346 667 333 681 q 320 695 292 695 l 292 695 q 266 695 253 681 q 240 667 236 646 q 232 624 232 600 l 232 600 l 232 210 q 232 187 236 165 q 239 143 252 129 q 264 115 292 115 m 342 874 l 239 874 l 302 1075 l 468 1075 l 342 874"},"Ŏ":{"x_min":49,"x_max":537,"ha":586,"o":"m 292 -12 l 292 -12 q 201 -12 148 20 q 95 52 72 112 q 49 172 49 255 l 49 255 l 49 556 q 49 640 72 699 q 95 758 148 790 q 201 821 292 821 l 292 821 q 384 821 438 790 q 491 758 514 699 q 537 640 537 556 l 537 556 l 537 255 q 537 172 514 112 q 491 52 438 20 q 384 -12 292 -12 m 292 115 l 292 115 q 320 115 333 129 q 346 143 350 165 q 354 187 354 210 l 354 210 l 354 600 q 354 624 350 646 q 346 667 333 681 q 320 695 292 695 l 292 695 q 266 695 253 681 q 240 667 236 646 q 232 624 232 600 l 232 600 l 232 210 q 232 187 236 165 q 239 143 252 129 q 264 115 292 115 m 293 875 l 293 875 q 222 875 179 915 q 136 955 136 1031 l 136 1031 l 228 1031 q 228 994 243 976 q 257 958 293 958 l 293 958 q 328 958 343 977 q 358 995 358 1031 l 358 1031 l 450 1031 q 450 955 407 915 q 364 875 293 875"},"Ô":{"x_min":49,"x_max":537,"ha":586,"o":"m 292 -12 l 292 -12 q 201 -12 148 20 q 95 52 72 112 q 49 172 49 255 l 49 255 l 49 556 q 49 640 72 699 q 95 758 148 790 q 201 821 292 821 l 292 821 q 384 821 438 790 q 491 758 514 699 q 537 640 537 556 l 537 556 l 537 255 q 537 172 514 112 q 491 52 438 20 q 384 -12 292 -12 m 292 115 l 292 115 q 320 115 333 129 q 346 143 350 165 q 354 187 354 210 l 354 210 l 354 600 q 354 624 350 646 q 346 667 333 681 q 320 695 292 695 l 292 695 q 266 695 253 681 q 240 667 236 646 q 232 624 232 600 l 232 600 l 232 210 q 232 187 236 165 q 239 143 252 129 q 264 115 292 115 m 249 881 l 130 881 l 225 1073 l 358 1073 l 456 881 l 336 881 l 292 1000 l 249 881"},"Ố":{"x_min":49,"x_max":602,"ha":586,"o":"m 292 -12 l 292 -12 q 201 -12 148 20 q 95 52 72 112 q 49 172 49 255 l 49 255 l 49 556 q 49 640 72 699 q 95 758 148 790 q 201 821 292 821 l 292 821 q 384 821 438 790 q 491 758 514 699 q 537 640 537 556 l 537 556 l 537 255 q 537 172 514 112 q 491 52 438 20 q 384 -12 292 -12 m 292 115 l 292 115 q 320 115 333 129 q 346 143 350 165 q 354 187 354 210 l 354 210 l 354 600 q 354 624 350 646 q 346 667 333 681 q 320 695 292 695 l 292 695 q 266 695 253 681 q 240 667 236 646 q 232 624 232 600 l 232 600 l 232 210 q 232 187 236 165 q 239 143 252 129 q 264 115 292 115 m 245 881 l 130 881 l 225 1048 l 358 1048 l 456 881 l 340 881 l 292 981 l 245 881 m 514 999 l 428 999 l 481 1122 l 602 1122 l 514 999"},"Ộ":{"x_min":49,"x_max":537,"ha":586,"o":"m 292 -12 l 292 -12 q 201 -12 148 20 q 95 52 72 112 q 49 172 49 255 l 49 255 l 49 556 q 49 640 72 699 q 95 758 148 790 q 201 821 292 821 l 292 821 q 384 821 438 790 q 491 758 514 699 q 537 640 537 556 l 537 556 l 537 255 q 537 172 514 112 q 491 52 438 20 q 384 -12 292 -12 m 292 115 l 292 115 q 320 115 333 129 q 346 143 350 165 q 354 187 354 210 l 354 210 l 354 600 q 354 624 350 646 q 346 667 333 681 q 320 695 292 695 l 292 695 q 266 695 253 681 q 240 667 236 646 q 232 624 232 600 l 232 600 l 232 210 q 232 187 236 165 q 239 143 252 129 q 264 115 292 115 m 245 881 l 130 881 l 225 1048 l 358 1048 l 456 881 l 340 881 l 292 981 l 245 881 m 363 -208 l 224 -208 l 224 -70 l 363 -70 l 363 -208"},"Ồ":{"x_min":49,"x_max":544,"ha":586,"o":"m 292 -12 l 292 -12 q 201 -12 148 20 q 95 52 72 112 q 49 172 49 255 l 49 255 l 49 556 q 49 640 72 699 q 95 758 148 790 q 201 821 292 821 l 292 821 q 384 821 438 790 q 491 758 514 699 q 537 640 537 556 l 537 556 l 537 255 q 537 172 514 112 q 491 52 438 20 q 384 -12 292 -12 m 292 115 l 292 115 q 320 115 333 129 q 346 143 350 165 q 354 187 354 210 l 354 210 l 354 600 q 354 624 350 646 q 346 667 333 681 q 320 695 292 695 l 292 695 q 266 695 253 681 q 240 667 236 646 q 232 624 232 600 l 232 600 l 232 210 q 232 187 236 165 q 239 143 252 129 q 264 115 292 115 m 245 881 l 130 881 l 225 1048 l 358 1048 l 456 881 l 340 881 l 292 981 l 245 881 m 544 999 l 457 999 l 369 1122 l 491 1122 l 544 999"},"Ổ":{"x_min":49,"x_max":560,"ha":586,"o":"m 292 -12 l 292 -12 q 201 -12 148 20 q 95 52 72 112 q 49 172 49 255 l 49 255 l 49 556 q 49 640 72 699 q 95 758 148 790 q 201 821 292 821 l 292 821 q 384 821 438 790 q 491 758 514 699 q 537 640 537 556 l 537 556 l 537 255 q 537 172 514 112 q 491 52 438 20 q 384 -12 292 -12 m 292 115 l 292 115 q 320 115 333 129 q 346 143 350 165 q 354 187 354 210 l 354 210 l 354 600 q 354 624 350 646 q 346 667 333 681 q 320 695 292 695 l 292 695 q 266 695 253 681 q 240 667 236 646 q 232 624 232 600 l 232 600 l 232 210 q 232 187 236 165 q 239 143 252 129 q 264 115 292 115 m 469 973 l 469 973 l 423 1022 q 440 1036 450 1050 q 460 1063 460 1082 l 460 1082 q 460 1101 448 1112 q 435 1122 414 1122 l 414 1122 q 398 1122 386 1119 q 373 1116 363 1112 l 363 1112 l 363 1180 q 383 1188 403 1192 q 423 1196 445 1196 l 445 1196 q 495 1196 528 1172 q 560 1147 560 1097 l 560 1097 q 560 1049 533 1021 q 505 993 469 973 m 245 881 l 130 881 l 225 1048 l 358 1048 l 456 881 l 340 881 l 292 981 l 245 881"},"Ỗ":{"x_min":49,"x_max":537,"ha":586,"o":"m 292 -12 l 292 -12 q 201 -12 148 20 q 95 52 72 112 q 49 172 49 255 l 49 255 l 49 556 q 49 640 72 699 q 95 758 148 790 q 201 821 292 821 l 292 821 q 384 821 438 790 q 491 758 514 699 q 537 640 537 556 l 537 556 l 537 255 q 537 172 514 112 q 491 52 438 20 q 384 -12 292 -12 m 292 115 l 292 115 q 320 115 333 129 q 346 143 350 165 q 354 187 354 210 l 354 210 l 354 600 q 354 624 350 646 q 346 667 333 681 q 320 695 292 695 l 292 695 q 266 695 253 681 q 240 667 236 646 q 232 624 232 600 l 232 600 l 232 210 q 232 187 236 165 q 239 143 252 129 q 264 115 292 115 m 245 881 l 130 881 l 225 1048 l 358 1048 l 456 881 l 340 881 l 292 981 l 245 881 m 374 1097 l 374 1097 q 349 1097 328 1109 q 307 1121 288 1133 q 269 1144 249 1144 l 249 1144 q 227 1144 220 1132 q 213 1119 213 1103 l 213 1103 l 135 1103 q 135 1144 143 1176 q 151 1208 171 1227 q 191 1245 225 1245 l 225 1245 q 250 1245 270 1234 q 289 1223 308 1212 q 327 1201 348 1201 l 348 1201 q 365 1201 372 1212 q 379 1223 379 1239 l 379 1239 l 451 1239 q 451 1207 447 1174 q 442 1141 426 1119 q 409 1097 374 1097"},"Ȍ":{"x_min":49,"x_max":537,"ha":586,"o":"m 292 -12 l 292 -12 q 201 -12 148 20 q 95 52 72 112 q 49 172 49 255 l 49 255 l 49 556 q 49 640 72 699 q 95 758 148 790 q 201 821 292 821 l 292 821 q 384 821 438 790 q 491 758 514 699 q 537 640 537 556 l 537 556 l 537 255 q 537 172 514 112 q 491 52 438 20 q 384 -12 292 -12 m 292 115 l 292 115 q 320 115 333 129 q 346 143 350 165 q 354 187 354 210 l 354 210 l 354 600 q 354 624 350 646 q 346 667 333 681 q 320 695 292 695 l 292 695 q 266 695 253 681 q 240 667 236 646 q 232 624 232 600 l 232 600 l 232 210 q 232 187 236 165 q 239 143 252 129 q 264 115 292 115 m 258 870 l 170 870 l 70 1077 l 194 1077 l 258 870 m 431 870 l 345 870 l 253 1077 l 372 1077 l 431 870"},"Ö":{"x_min":49,"x_max":537,"ha":586,"o":"m 292 -12 l 292 -12 q 201 -12 148 20 q 95 52 72 112 q 49 172 49 255 l 49 255 l 49 556 q 49 640 72 699 q 95 758 148 790 q 201 821 292 821 l 292 821 q 384 821 438 790 q 491 758 514 699 q 537 640 537 556 l 537 556 l 537 255 q 537 172 514 112 q 491 52 438 20 q 384 -12 292 -12 m 292 115 l 292 115 q 320 115 333 129 q 346 143 350 165 q 354 187 354 210 l 354 210 l 354 600 q 354 624 350 646 q 346 667 333 681 q 320 695 292 695 l 292 695 q 266 695 253 681 q 240 667 236 646 q 232 624 232 600 l 232 600 l 232 210 q 232 187 236 165 q 239 143 252 129 q 264 115 292 115 m 467 894 l 337 894 l 337 1042 l 467 1042 l 467 894 m 249 894 l 119 894 l 119 1042 l 249 1042 l 249 894"},"Ȫ":{"x_min":49,"x_max":537,"ha":586,"o":"m 292 -12 l 292 -12 q 201 -12 148 20 q 95 52 72 112 q 49 172 49 255 l 49 255 l 49 556 q 49 640 72 699 q 95 758 148 790 q 201 821 292 821 l 292 821 q 384 821 438 790 q 491 758 514 699 q 537 640 537 556 l 537 556 l 537 255 q 537 172 514 112 q 491 52 438 20 q 384 -12 292 -12 m 292 115 l 292 115 q 320 115 333 129 q 346 143 350 165 q 354 187 354 210 l 354 210 l 354 600 q 354 624 350 646 q 346 667 333 681 q 320 695 292 695 l 292 695 q 266 695 253 681 q 240 667 236 646 q 232 624 232 600 l 232 600 l 232 210 q 232 187 236 165 q 239 143 252 129 q 264 115 292 115 m 467 894 l 337 894 l 337 1042 l 467 1042 l 467 894 m 249 894 l 119 894 l 119 1042 l 249 1042 l 249 894 m 431 1130 l 155 1130 l 155 1207 l 431 1207 l 431 1130"},"Ȱ":{"x_min":49,"x_max":537,"ha":586,"o":"m 292 -12 l 292 -12 q 201 -12 148 20 q 95 52 72 112 q 49 172 49 255 l 49 255 l 49 556 q 49 640 72 699 q 95 758 148 790 q 201 821 292 821 l 292 821 q 384 821 438 790 q 491 758 514 699 q 537 640 537 556 l 537 556 l 537 255 q 537 172 514 112 q 491 52 438 20 q 384 -12 292 -12 m 292 115 l 292 115 q 320 115 333 129 q 346 143 350 165 q 354 187 354 210 l 354 210 l 354 600 q 354 624 350 646 q 346 667 333 681 q 320 695 292 695 l 292 695 q 266 695 253 681 q 240 667 236 646 q 232 624 232 600 l 232 600 l 232 210 q 232 187 236 165 q 239 143 252 129 q 264 115 292 115 m 370 884 l 216 884 l 216 1038 l 370 1038 l 370 884 m 431 1126 l 155 1126 l 155 1203 l 431 1203 l 431 1126"},"Ọ":{"x_min":49,"x_max":537,"ha":586,"o":"m 292 -12 l 292 -12 q 201 -12 148 20 q 95 52 72 112 q 49 172 49 255 l 49 255 l 49 556 q 49 640 72 699 q 95 758 148 790 q 201 821 292 821 l 292 821 q 384 821 438 790 q 491 758 514 699 q 537 640 537 556 l 537 556 l 537 255 q 537 172 514 112 q 491 52 438 20 q 384 -12 292 -12 m 292 115 l 292 115 q 320 115 333 129 q 346 143 350 165 q 354 187 354 210 l 354 210 l 354 600 q 354 624 350 646 q 346 667 333 681 q 320 695 292 695 l 292 695 q 266 695 253 681 q 240 667 236 646 q 232 624 232 600 l 232 600 l 232 210 q 232 187 236 165 q 239 143 252 129 q 264 115 292 115 m 363 -208 l 224 -208 l 224 -70 l 363 -70 l 363 -208"},"Ò":{"x_min":49,"x_max":537,"ha":586,"o":"m 292 -12 l 292 -12 q 201 -12 148 20 q 95 52 72 112 q 49 172 49 255 l 49 255 l 49 556 q 49 640 72 699 q 95 758 148 790 q 201 821 292 821 l 292 821 q 384 821 438 790 q 491 758 514 699 q 537 640 537 556 l 537 556 l 537 255 q 537 172 514 112 q 491 52 438 20 q 384 -12 292 -12 m 292 115 l 292 115 q 320 115 333 129 q 346 143 350 165 q 354 187 354 210 l 354 210 l 354 600 q 354 624 350 646 q 346 667 333 681 q 320 695 292 695 l 292 695 q 266 695 253 681 q 240 667 236 646 q 232 624 232 600 l 232 600 l 232 210 q 232 187 236 165 q 239 143 252 129 q 264 115 292 115 m 347 874 l 245 874 l 118 1075 l 286 1075 l 347 874"},"Ỏ":{"x_min":49,"x_max":537,"ha":586,"o":"m 292 -12 l 292 -12 q 201 -12 148 20 q 95 52 72 112 q 49 172 49 255 l 49 255 l 49 556 q 49 640 72 699 q 95 758 148 790 q 201 821 292 821 l 292 821 q 384 821 438 790 q 491 758 514 699 q 537 640 537 556 l 537 556 l 537 255 q 537 172 514 112 q 491 52 438 20 q 384 -12 292 -12 m 292 115 l 292 115 q 320 115 333 129 q 346 143 350 165 q 354 187 354 210 l 354 210 l 354 600 q 354 624 350 646 q 346 667 333 681 q 320 695 292 695 l 292 695 q 266 695 253 681 q 240 667 236 646 q 232 624 232 600 l 232 600 l 232 210 q 232 187 236 165 q 239 143 252 129 q 264 115 292 115 m 293 859 l 293 859 l 238 911 q 268 925 289 939 q 310 952 310 975 l 310 975 q 310 995 294 1003 q 278 1010 253 1010 l 253 1010 q 238 1010 221 1008 q 204 1006 191 1003 l 191 1003 l 191 1071 q 239 1084 293 1084 l 293 1084 q 325 1084 353 1074 q 381 1064 398 1043 q 415 1021 415 985 l 415 985 q 415 950 398 926 q 381 902 354 887 q 326 871 293 859"},"Ơ":{"x_min":49,"x_max":537,"ha":586,"o":"m 292 -12 l 292 -12 q 201 -12 148 20 q 95 52 72 112 q 49 172 49 255 l 49 255 l 49 556 q 49 640 72 699 q 95 758 148 790 q 201 821 292 821 l 292 821 q 384 821 438 790 q 491 758 514 699 q 537 640 537 556 l 537 556 l 537 255 q 537 172 514 112 q 491 52 438 20 q 384 -12 292 -12 m 292 115 l 292 115 q 320 115 333 129 q 346 143 350 165 q 354 187 354 210 l 354 210 l 354 600 q 354 624 350 646 q 346 667 333 681 q 320 695 292 695 l 292 695 q 266 695 253 681 q 240 667 236 646 q 232 624 232 600 l 232 600 l 232 210 q 232 187 236 165 q 239 143 252 129 q 264 115 292 115 m 364 745 l 344 745 l 344 810 l 364 810 q 394 810 406 832 q 418 853 418 896 l 418 896 l 532 896 q 532 820 485 783 q 438 745 364 745 l 364 745"},"Ớ":{"x_min":49,"x_max":537,"ha":586,"o":"m 292 -12 l 292 -12 q 201 -12 148 20 q 95 52 72 112 q 49 172 49 255 l 49 255 l 49 556 q 49 640 72 699 q 95 758 148 790 q 201 821 292 821 l 292 821 q 384 821 438 790 q 491 758 514 699 q 537 640 537 556 l 537 556 l 537 255 q 537 172 514 112 q 491 52 438 20 q 384 -12 292 -12 m 292 115 l 292 115 q 320 115 333 129 q 346 143 350 165 q 354 187 354 210 l 354 210 l 354 600 q 354 624 350 646 q 346 667 333 681 q 320 695 292 695 l 292 695 q 266 695 253 681 q 240 667 236 646 q 232 624 232 600 l 232 600 l 232 210 q 232 187 236 165 q 239 143 252 129 q 264 115 292 115 m 364 745 l 344 745 l 344 810 l 364 810 q 394 810 406 832 q 418 853 418 896 l 418 896 l 532 896 q 532 820 485 783 q 438 745 364 745 l 364 745 m 342 874 l 239 874 l 302 1075 l 468 1075 l 342 874"},"Ợ":{"x_min":49,"x_max":537,"ha":586,"o":"m 292 -12 l 292 -12 q 201 -12 148 20 q 95 52 72 112 q 49 172 49 255 l 49 255 l 49 556 q 49 640 72 699 q 95 758 148 790 q 201 821 292 821 l 292 821 q 384 821 438 790 q 491 758 514 699 q 537 640 537 556 l 537 556 l 537 255 q 537 172 514 112 q 491 52 438 20 q 384 -12 292 -12 m 292 115 l 292 115 q 320 115 333 129 q 346 143 350 165 q 354 187 354 210 l 354 210 l 354 600 q 354 624 350 646 q 346 667 333 681 q 320 695 292 695 l 292 695 q 266 695 253 681 q 240 667 236 646 q 232 624 232 600 l 232 600 l 232 210 q 232 187 236 165 q 239 143 252 129 q 264 115 292 115 m 364 745 l 344 745 l 344 810 l 364 810 q 394 810 406 832 q 418 853 418 896 l 418 896 l 532 896 q 532 820 485 783 q 438 745 364 745 l 364 745 m 363 -208 l 224 -208 l 224 -70 l 363 -70 l 363 -208"},"Ờ":{"x_min":49,"x_max":537,"ha":586,"o":"m 292 -12 l 292 -12 q 201 -12 148 20 q 95 52 72 112 q 49 172 49 255 l 49 255 l 49 556 q 49 640 72 699 q 95 758 148 790 q 201 821 292 821 l 292 821 q 384 821 438 790 q 491 758 514 699 q 537 640 537 556 l 537 556 l 537 255 q 537 172 514 112 q 491 52 438 20 q 384 -12 292 -12 m 292 115 l 292 115 q 320 115 333 129 q 346 143 350 165 q 354 187 354 210 l 354 210 l 354 600 q 354 624 350 646 q 346 667 333 681 q 320 695 292 695 l 292 695 q 266 695 253 681 q 240 667 236 646 q 232 624 232 600 l 232 600 l 232 210 q 232 187 236 165 q 239 143 252 129 q 264 115 292 115 m 364 745 l 344 745 l 344 810 l 364 810 q 394 810 406 832 q 418 853 418 896 l 418 896 l 532 896 q 532 820 485 783 q 438 745 364 745 l 364 745 m 347 874 l 245 874 l 118 1075 l 286 1075 l 347 874"},"Ở":{"x_min":49,"x_max":537,"ha":586,"o":"m 292 -12 l 292 -12 q 201 -12 148 20 q 95 52 72 112 q 49 172 49 255 l 49 255 l 49 556 q 49 640 72 699 q 95 758 148 790 q 201 821 292 821 l 292 821 q 384 821 438 790 q 491 758 514 699 q 537 640 537 556 l 537 556 l 537 255 q 537 172 514 112 q 491 52 438 20 q 384 -12 292 -12 m 292 115 l 292 115 q 320 115 333 129 q 346 143 350 165 q 354 187 354 210 l 354 210 l 354 600 q 354 624 350 646 q 346 667 333 681 q 320 695 292 695 l 292 695 q 266 695 253 681 q 240 667 236 646 q 232 624 232 600 l 232 600 l 232 210 q 232 187 236 165 q 239 143 252 129 q 264 115 292 115 m 364 745 l 344 745 l 344 810 l 364 810 q 394 810 406 832 q 418 853 418 896 l 418 896 l 532 896 q 532 820 485 783 q 438 745 364 745 l 364 745 m 293 859 l 293 859 l 238 911 q 268 925 289 939 q 310 952 310 975 l 310 975 q 310 995 294 1003 q 278 1010 253 1010 l 253 1010 q 238 1010 221 1008 q 204 1006 191 1003 l 191 1003 l 191 1071 q 239 1084 293 1084 l 293 1084 q 325 1084 353 1074 q 381 1064 398 1043 q 415 1021 415 985 l 415 985 q 415 950 398 926 q 381 902 354 887 q 326 871 293 859"},"Ỡ":{"x_min":49,"x_max":537,"ha":586,"o":"m 292 -12 l 292 -12 q 201 -12 148 20 q 95 52 72 112 q 49 172 49 255 l 49 255 l 49 556 q 49 640 72 699 q 95 758 148 790 q 201 821 292 821 l 292 821 q 384 821 438 790 q 491 758 514 699 q 537 640 537 556 l 537 556 l 537 255 q 537 172 514 112 q 491 52 438 20 q 384 -12 292 -12 m 292 115 l 292 115 q 320 115 333 129 q 346 143 350 165 q 354 187 354 210 l 354 210 l 354 600 q 354 624 350 646 q 346 667 333 681 q 320 695 292 695 l 292 695 q 266 695 253 681 q 240 667 236 646 q 232 624 232 600 l 232 600 l 232 210 q 232 187 236 165 q 239 143 252 129 q 264 115 292 115 m 364 745 l 344 745 l 344 810 l 364 810 q 394 810 406 832 q 418 853 418 896 l 418 896 l 532 896 q 532 820 485 783 q 438 745 364 745 l 364 745 m 374 900 l 374 900 q 349 900 328 912 q 307 924 288 936 q 269 947 249 947 l 249 947 q 227 947 220 935 q 213 922 213 906 l 213 906 l 135 906 q 135 947 143 979 q 151 1011 171 1030 q 191 1048 225 1048 l 225 1048 q 250 1048 270 1037 q 289 1026 308 1015 q 327 1004 348 1004 l 348 1004 q 365 1004 372 1015 q 379 1026 379 1042 l 379 1042 l 451 1042 q 451 1010 447 977 q 442 944 426 922 q 409 900 374 900"},"Ő":{"x_min":49,"x_max":539,"ha":586,"o":"m 292 -12 l 292 -12 q 201 -12 148 20 q 95 52 72 112 q 49 172 49 255 l 49 255 l 49 556 q 49 640 72 699 q 95 758 148 790 q 201 821 292 821 l 292 821 q 384 821 438 790 q 491 758 514 699 q 537 640 537 556 l 537 556 l 537 255 q 537 172 514 112 q 491 52 438 20 q 384 -12 292 -12 m 292 115 l 292 115 q 320 115 333 129 q 346 143 350 165 q 354 187 354 210 l 354 210 l 354 600 q 354 624 350 646 q 346 667 333 681 q 320 695 292 695 l 292 695 q 266 695 253 681 q 240 667 236 646 q 232 624 232 600 l 232 600 l 232 210 q 232 187 236 165 q 239 143 252 129 q 264 115 292 115 m 419 865 l 335 865 l 399 1081 l 539 1081 l 419 865 m 241 865 l 157 865 l 217 1081 l 349 1081 l 241 865"},"Ȏ":{"x_min":49,"x_max":537,"ha":586,"o":"m 292 -12 l 292 -12 q 201 -12 148 20 q 95 52 72 112 q 49 172 49 255 l 49 255 l 49 556 q 49 640 72 699 q 95 758 148 790 q 201 821 292 821 l 292 821 q 384 821 438 790 q 491 758 514 699 q 537 640 537 556 l 537 556 l 537 255 q 537 172 514 112 q 491 52 438 20 q 384 -12 292 -12 m 292 115 l 292 115 q 320 115 333 129 q 346 143 350 165 q 354 187 354 210 l 354 210 l 354 600 q 354 624 350 646 q 346 667 333 681 q 320 695 292 695 l 292 695 q 266 695 253 681 q 240 667 236 646 q 232 624 232 600 l 232 600 l 232 210 q 232 187 236 165 q 239 143 252 129 q 264 115 292 115 m 228 881 l 136 881 q 136 933 155 968 q 174 1003 210 1022 q 245 1040 293 1040 l 293 1040 q 342 1040 377 1022 q 412 1003 431 968 q 450 933 450 881 l 450 881 l 358 881 q 358 920 343 939 q 328 957 293 957 l 293 957 q 258 957 243 939 q 228 921 228 881 l 228 881"},"Ō":{"x_min":49,"x_max":537,"ha":586,"o":"m 292 -12 l 292 -12 q 201 -12 148 20 q 95 52 72 112 q 49 172 49 255 l 49 255 l 49 556 q 49 640 72 699 q 95 758 148 790 q 201 821 292 821 l 292 821 q 384 821 438 790 q 491 758 514 699 q 537 640 537 556 l 537 556 l 537 255 q 537 172 514 112 q 491 52 438 20 q 384 -12 292 -12 m 292 115 l 292 115 q 320 115 333 129 q 346 143 350 165 q 354 187 354 210 l 354 210 l 354 600 q 354 624 350 646 q 346 667 333 681 q 320 695 292 695 l 292 695 q 266 695 253 681 q 240 667 236 646 q 232 624 232 600 l 232 600 l 232 210 q 232 187 236 165 q 239 143 252 129 q 264 115 292 115 m 431 898 l 155 898 l 155 975 l 431 975 l 431 898"},"Ǫ":{"x_min":49,"x_max":537,"ha":586,"o":"m 292 -12 l 292 -12 q 201 -12 148 20 q 95 52 72 112 q 49 172 49 255 l 49 255 l 49 556 q 49 640 72 699 q 95 758 148 790 q 201 821 292 821 l 292 821 q 384 821 438 790 q 491 758 514 699 q 537 640 537 556 l 537 556 l 537 255 q 537 172 514 112 q 491 52 438 20 q 384 -12 292 -12 m 292 115 l 292 115 q 320 115 333 129 q 346 143 350 165 q 354 187 354 210 l 354 210 l 354 600 q 354 624 350 646 q 346 667 333 681 q 320 695 292 695 l 292 695 q 266 695 253 681 q 240 667 236 646 q 232 624 232 600 l 232 600 l 232 210 q 232 187 236 165 q 239 143 252 129 q 264 115 292 115 m 363 -260 l 363 -260 q 338 -260 310 -256 q 282 -253 258 -242 q 234 -231 219 -209 q 204 -188 204 -152 l 204 -152 q 204 -126 215 -97 q 226 -69 244 -43 q 262 -18 282 0 l 282 0 l 355 0 q 346 -17 338 -37 q 329 -58 324 -79 q 319 -100 319 -121 l 319 -121 q 319 -155 339 -167 q 358 -180 383 -180 l 383 -180 q 391 -180 399 -179 q 407 -179 412 -178 l 412 -178 l 396 -257 q 390 -258 382 -259 q 373 -260 363 -260"},"Ø":{"x_min":49,"x_max":537,"ha":572,"o":"m 480 869 l 120 -90 l 81 -74 l 440 884 l 480 869 m 292 -12 l 292 -12 q 201 -12 148 20 q 95 52 72 112 q 49 172 49 255 l 49 255 l 49 556 q 49 640 72 699 q 95 758 148 790 q 201 821 292 821 l 292 821 q 384 821 438 790 q 491 758 514 699 q 537 640 537 556 l 537 556 l 537 255 q 537 172 514 112 q 491 52 438 20 q 384 -12 292 -12 m 292 115 l 292 115 q 320 115 333 129 q 346 143 350 165 q 354 187 354 210 l 354 210 l 354 600 q 354 624 350 646 q 346 667 333 681 q 320 695 292 695 l 292 695 q 266 695 253 681 q 240 667 236 646 q 232 624 232 600 l 232 600 l 232 210 q 232 187 236 165 q 239 143 252 129 q 264 115 292 115"},"Ǿ":{"x_min":49,"x_max":537,"ha":572,"o":"m 480 869 l 120 -90 l 81 -74 l 440 884 l 480 869 m 292 -12 l 292 -12 q 201 -12 148 20 q 95 52 72 112 q 49 172 49 255 l 49 255 l 49 556 q 49 640 72 699 q 95 758 148 790 q 201 821 292 821 l 292 821 q 384 821 438 790 q 491 758 514 699 q 537 640 537 556 l 537 556 l 537 255 q 537 172 514 112 q 491 52 438 20 q 384 -12 292 -12 m 292 115 l 292 115 q 320 115 333 129 q 346 143 350 165 q 354 187 354 210 l 354 210 l 354 600 q 354 624 350 646 q 346 667 333 681 q 320 695 292 695 l 292 695 q 266 695 253 681 q 240 667 236 646 q 232 624 232 600 l 232 600 l 232 210 q 232 187 236 165 q 239 143 252 129 q 264 115 292 115 m 335 874 l 232 874 l 295 1075 l 461 1075 l 335 874"},"Õ":{"x_min":49,"x_max":537,"ha":586,"o":"m 292 -12 l 292 -12 q 201 -12 148 20 q 95 52 72 112 q 49 172 49 255 l 49 255 l 49 556 q 49 640 72 699 q 95 758 148 790 q 201 821 292 821 l 292 821 q 384 821 438 790 q 491 758 514 699 q 537 640 537 556 l 537 556 l 537 255 q 537 172 514 112 q 491 52 438 20 q 384 -12 292 -12 m 292 115 l 292 115 q 320 115 333 129 q 346 143 350 165 q 354 187 354 210 l 354 210 l 354 600 q 354 624 350 646 q 346 667 333 681 q 320 695 292 695 l 292 695 q 266 695 253 681 q 240 667 236 646 q 232 624 232 600 l 232 600 l 232 210 q 232 187 236 165 q 239 143 252 129 q 264 115 292 115 m 374 900 l 374 900 q 349 900 328 912 q 307 924 288 936 q 269 947 249 947 l 249 947 q 227 947 220 935 q 213 922 213 906 l 213 906 l 135 906 q 135 947 143 979 q 151 1011 171 1030 q 191 1048 225 1048 l 225 1048 q 250 1048 270 1037 q 289 1026 308 1015 q 327 1004 348 1004 l 348 1004 q 365 1004 372 1015 q 379 1026 379 1042 l 379 1042 l 451 1042 q 451 1010 447 977 q 442 944 426 922 q 409 900 374 900"},"Ȭ":{"x_min":49,"x_max":537,"ha":586,"o":"m 292 -12 l 292 -12 q 201 -12 148 20 q 95 52 72 112 q 49 172 49 255 l 49 255 l 49 556 q 49 640 72 699 q 95 758 148 790 q 201 821 292 821 l 292 821 q 384 821 438 790 q 491 758 514 699 q 537 640 537 556 l 537 556 l 537 255 q 537 172 514 112 q 491 52 438 20 q 384 -12 292 -12 m 292 115 l 292 115 q 320 115 333 129 q 346 143 350 165 q 354 187 354 210 l 354 210 l 354 600 q 354 624 350 646 q 346 667 333 681 q 320 695 292 695 l 292 695 q 266 695 253 681 q 240 667 236 646 q 232 624 232 600 l 232 600 l 232 210 q 232 187 236 165 q 239 143 252 129 q 264 115 292 115 m 374 900 l 374 900 q 349 900 328 912 q 307 924 288 936 q 269 947 249 947 l 249 947 q 227 947 220 935 q 213 922 213 906 l 213 906 l 135 906 q 135 947 143 979 q 151 1011 171 1030 q 191 1048 225 1048 l 225 1048 q 250 1048 270 1037 q 289 1026 308 1015 q 327 1004 348 1004 l 348 1004 q 365 1004 372 1015 q 379 1026 379 1042 l 379 1042 l 451 1042 q 451 1010 447 977 q 442 944 426 922 q 409 900 374 900 m 431 1116 l 155 1116 l 155 1193 l 431 1193 l 431 1116"},"Œ":{"x_min":49,"x_max":692,"ha":718,"o":"m 692 0 l 295 0 q 203 0 149 35 q 95 69 72 132 q 49 194 49 278 l 49 278 l 49 520 q 49 602 72 667 q 94 732 148 770 q 201 807 293 807 l 293 807 l 691 807 l 691 685 l 523 685 l 523 481 l 647 481 l 647 356 l 523 356 l 523 121 l 692 121 l 692 0 m 295 124 l 295 124 l 345 124 l 345 680 l 295 680 q 263 680 249 661 q 235 641 232 612 q 228 582 228 552 l 228 552 l 228 244 q 228 215 232 187 q 236 159 250 142 q 264 124 295 124"},"P":{"x_min":60,"x_max":545,"ha":571,"o":"m 239 0 l 60 0 l 60 810 l 332 810 q 405 810 452 783 q 499 755 522 703 q 545 650 545 575 l 545 575 q 545 481 514 432 q 483 382 430 363 q 377 344 311 344 l 311 344 l 239 344 l 239 0 m 239 684 l 239 469 l 299 469 q 332 469 349 481 q 366 493 372 517 q 377 541 377 578 l 377 578 q 377 609 373 633 q 368 656 351 670 q 334 684 298 684 l 298 684 l 239 684"},"Ṗ":{"x_min":60,"x_max":545,"ha":571,"o":"m 239 0 l 60 0 l 60 810 l 332 810 q 405 810 452 783 q 499 755 522 703 q 545 650 545 575 l 545 575 q 545 481 514 432 q 483 382 430 363 q 377 344 311 344 l 311 344 l 239 344 l 239 0 m 239 684 l 239 469 l 299 469 q 332 469 349 481 q 366 493 372 517 q 377 541 377 578 l 377 578 q 377 609 373 633 q 368 656 351 670 q 334 684 298 684 l 298 684 l 239 684 m 363 884 l 209 884 l 209 1038 l 363 1038 l 363 884"},"Þ":{"x_min":51,"x_max":547,"ha":562,"o":"m 231 0 l 51 0 l 51 810 l 231 810 l 231 702 l 309 702 q 389 702 442 680 q 495 657 521 608 q 547 558 547 477 l 547 477 q 547 405 532 358 q 517 311 487 284 q 456 256 410 245 q 363 234 300 234 l 300 234 l 231 234 l 231 0 m 231 573 l 231 361 l 288 361 q 340 361 362 386 q 384 410 384 468 l 384 468 q 384 522 363 548 q 342 573 292 573 l 292 573 l 231 573"},"Q":{"x_min":49,"x_max":537,"ha":586,"o":"m 513 -53 l 475 -159 q 453 -149 422 -126 q 391 -104 361 -73 q 330 -43 309 -11 l 309 -11 q 305 -12 301 -12 q 297 -12 292 -12 l 292 -12 q 201 -12 148 20 q 95 52 72 112 q 49 172 49 255 l 49 255 l 49 556 q 49 640 72 699 q 95 758 148 790 q 201 821 292 821 l 292 821 q 384 821 438 790 q 491 758 514 699 q 537 640 537 556 l 537 556 l 537 255 q 537 198 527 152 q 516 106 493 72 q 469 38 430 18 l 430 18 q 443 4 457 -9 q 471 -23 485 -34 q 499 -46 513 -53 l 513 -53 m 292 115 l 292 115 q 320 115 333 129 q 346 143 350 165 q 354 187 354 210 l 354 210 l 354 600 q 354 624 350 646 q 346 667 333 681 q 320 695 292 695 l 292 695 q 264 695 252 681 q 239 667 236 646 q 232 624 232 600 l 232 600 l 232 210 q 232 187 236 165 q 239 143 252 129 q 264 115 292 115"},"R":{"x_min":60,"x_max":564,"ha":600,"o":"m 239 0 l 60 0 l 60 810 l 283 810 q 365 810 425 792 q 485 774 519 728 q 552 681 552 596 l 552 596 q 552 546 544 507 q 536 468 515 440 q 493 411 453 392 l 453 392 l 564 0 l 379 0 l 290 363 l 239 363 l 239 0 m 239 690 l 239 466 l 289 466 q 327 466 348 480 q 369 493 378 519 q 386 544 386 580 l 386 580 q 386 632 367 661 q 348 690 297 690 l 297 690 l 239 690"},"Ŕ":{"x_min":60,"x_max":564,"ha":600,"o":"m 239 0 l 60 0 l 60 810 l 283 810 q 365 810 425 792 q 485 774 519 728 q 552 681 552 596 l 552 596 q 552 546 544 507 q 536 468 515 440 q 493 411 453 392 l 453 392 l 564 0 l 379 0 l 290 363 l 239 363 l 239 0 m 239 690 l 239 466 l 289 466 q 327 466 348 480 q 369 493 378 519 q 386 544 386 580 l 386 580 q 386 632 367 661 q 348 690 297 690 l 297 690 l 239 690 m 349 874 l 246 874 l 309 1075 l 475 1075 l 349 874"},"Ř":{"x_min":60,"x_max":564,"ha":600,"o":"m 239 0 l 60 0 l 60 810 l 283 810 q 365 810 425 792 q 485 774 519 728 q 552 681 552 596 l 552 596 q 552 546 544 507 q 536 468 515 440 q 493 411 453 392 l 453 392 l 564 0 l 379 0 l 290 363 l 239 363 l 239 0 m 239 690 l 239 466 l 289 466 q 327 466 348 480 q 369 493 378 519 q 386 544 386 580 l 386 580 q 386 632 367 661 q 348 690 297 690 l 297 690 l 239 690 m 379 871 l 221 871 l 133 1058 l 249 1058 l 300 948 l 351 1058 l 467 1058 l 379 871"},"Ŗ":{"x_min":60,"x_max":564,"ha":600,"o":"m 239 0 l 60 0 l 60 810 l 283 810 q 365 810 425 792 q 485 774 519 728 q 552 681 552 596 l 552 596 q 552 546 544 507 q 536 468 515 440 q 493 411 453 392 l 453 392 l 564 0 l 379 0 l 290 363 l 239 363 l 239 0 m 239 690 l 239 466 l 289 466 q 327 466 348 480 q 369 493 378 519 q 386 544 386 580 l 386 580 q 386 632 367 661 q 348 690 297 690 l 297 690 l 239 690 m 250 -356 l 250 -356 l 237 -302 q 265 -297 287 -280 q 308 -264 308 -221 l 308 -221 l 223 -221 l 223 -69 l 376 -69 l 376 -199 q 376 -273 346 -313 q 316 -354 250 -356"},"Ȑ":{"x_min":60,"x_max":564,"ha":600,"o":"m 239 0 l 60 0 l 60 810 l 283 810 q 365 810 425 792 q 485 774 519 728 q 552 681 552 596 l 552 596 q 552 546 544 507 q 536 468 515 440 q 493 411 453 392 l 453 392 l 564 0 l 379 0 l 290 363 l 239 363 l 239 0 m 239 690 l 239 466 l 289 466 q 327 466 348 480 q 369 493 378 519 q 386 544 386 580 l 386 580 q 386 632 367 661 q 348 690 297 690 l 297 690 l 239 690 m 265 870 l 177 870 l 77 1077 l 201 1077 l 265 870 m 438 870 l 352 870 l 260 1077 l 379 1077 l 438 870"},"Ȓ":{"x_min":60,"x_max":564,"ha":600,"o":"m 239 0 l 60 0 l 60 810 l 283 810 q 365 810 425 792 q 485 774 519 728 q 552 681 552 596 l 552 596 q 552 546 544 507 q 536 468 515 440 q 493 411 453 392 l 453 392 l 564 0 l 379 0 l 290 363 l 239 363 l 239 0 m 239 690 l 239 466 l 289 466 q 327 466 348 480 q 369 493 378 519 q 386 544 386 580 l 386 580 q 386 632 367 661 q 348 690 297 690 l 297 690 l 239 690 m 235 881 l 143 881 q 143 933 162 968 q 181 1003 217 1022 q 252 1040 300 1040 l 300 1040 q 349 1040 384 1022 q 419 1003 438 968 q 457 933 457 881 l 457 881 l 365 881 q 365 920 350 939 q 335 957 300 957 l 300 957 q 265 957 250 939 q 235 921 235 881 l 235 881"},"S":{"x_min":42,"x_max":487,"ha":514,"o":"m 275 -12 l 275 -12 q 199 -12 148 15 q 97 42 71 99 q 45 155 42 245 l 42 245 l 195 268 q 196 216 205 184 q 213 152 229 138 q 244 124 266 124 l 266 124 q 294 124 303 143 q 311 162 311 183 l 311 183 q 311 233 287 268 q 263 302 222 337 l 222 337 l 152 398 q 106 437 75 487 q 43 536 43 609 l 43 609 q 43 712 104 767 q 165 821 270 821 l 270 821 q 335 821 375 799 q 414 777 435 742 q 455 706 463 667 q 470 627 471 591 l 471 591 l 317 572 q 316 608 313 635 q 309 661 298 676 q 287 690 264 690 l 264 690 q 239 690 228 669 q 216 648 216 627 l 216 627 q 216 582 238 554 q 259 525 294 494 l 294 494 l 361 435 q 414 390 451 333 q 487 276 487 192 l 487 192 q 487 135 461 89 q 435 42 388 15 q 340 -12 275 -12"},"Ś":{"x_min":42,"x_max":487,"ha":514,"o":"m 275 -12 l 275 -12 q 199 -12 148 15 q 97 42 71 99 q 45 155 42 245 l 42 245 l 195 268 q 196 216 205 184 q 213 152 229 138 q 244 124 266 124 l 266 124 q 294 124 303 143 q 311 162 311 183 l 311 183 q 311 233 287 268 q 263 302 222 337 l 222 337 l 152 398 q 106 437 75 487 q 43 536 43 609 l 43 609 q 43 712 104 767 q 165 821 270 821 l 270 821 q 335 821 375 799 q 414 777 435 742 q 455 706 463 667 q 470 627 471 591 l 471 591 l 317 572 q 316 608 313 635 q 309 661 298 676 q 287 690 264 690 l 264 690 q 239 690 228 669 q 216 648 216 627 l 216 627 q 216 582 238 554 q 259 525 294 494 l 294 494 l 361 435 q 414 390 451 333 q 487 276 487 192 l 487 192 q 487 135 461 89 q 435 42 388 15 q 340 -12 275 -12 m 306 874 l 203 874 l 266 1075 l 432 1075 l 306 874"},"Š":{"x_min":42,"x_max":487,"ha":514,"o":"m 275 -12 l 275 -12 q 199 -12 148 15 q 97 42 71 99 q 45 155 42 245 l 42 245 l 195 268 q 196 216 205 184 q 213 152 229 138 q 244 124 266 124 l 266 124 q 294 124 303 143 q 311 162 311 183 l 311 183 q 311 233 287 268 q 263 302 222 337 l 222 337 l 152 398 q 106 437 75 487 q 43 536 43 609 l 43 609 q 43 712 104 767 q 165 821 270 821 l 270 821 q 335 821 375 799 q 414 777 435 742 q 455 706 463 667 q 470 627 471 591 l 471 591 l 317 572 q 316 608 313 635 q 309 661 298 676 q 287 690 264 690 l 264 690 q 239 690 228 669 q 216 648 216 627 l 216 627 q 216 582 238 554 q 259 525 294 494 l 294 494 l 361 435 q 414 390 451 333 q 487 276 487 192 l 487 192 q 487 135 461 89 q 435 42 388 15 q 340 -12 275 -12 m 336 871 l 178 871 l 90 1058 l 206 1058 l 257 948 l 308 1058 l 424 1058 l 336 871"},"Ş":{"x_min":42,"x_max":487,"ha":514,"o":"m 275 -12 l 275 -12 q 199 -12 148 15 q 97 42 71 99 q 45 155 42 245 l 42 245 l 195 268 q 196 216 205 184 q 213 152 229 138 q 244 124 266 124 l 266 124 q 294 124 303 143 q 311 162 311 183 l 311 183 q 311 233 287 268 q 263 302 222 337 l 222 337 l 152 398 q 106 437 75 487 q 43 536 43 609 l 43 609 q 43 712 104 767 q 165 821 270 821 l 270 821 q 335 821 375 799 q 414 777 435 742 q 455 706 463 667 q 470 627 471 591 l 471 591 l 317 572 q 316 608 313 635 q 309 661 298 676 q 287 690 264 690 l 264 690 q 239 690 228 669 q 216 648 216 627 l 216 627 q 216 582 238 554 q 259 525 294 494 l 294 494 l 361 435 q 414 390 451 333 q 487 276 487 192 l 487 192 q 487 135 461 89 q 435 42 388 15 q 340 -12 275 -12 m 277 -277 l 277 -277 q 258 -277 239 -274 q 219 -271 201 -265 l 201 -265 l 201 -195 q 212 -198 227 -200 q 242 -203 258 -203 l 258 -203 q 284 -203 302 -195 q 320 -187 320 -168 l 320 -168 q 320 -149 306 -138 q 291 -127 270 -122 q 249 -117 228 -116 l 228 -116 l 228 0 l 287 0 l 287 -66 q 349 -66 387 -91 q 424 -117 424 -170 l 424 -170 q 424 -208 404 -232 q 383 -256 350 -266 q 316 -277 277 -277"},"Ŝ":{"x_min":42,"x_max":487,"ha":514,"o":"m 275 -12 l 275 -12 q 199 -12 148 15 q 97 42 71 99 q 45 155 42 245 l 42 245 l 195 268 q 196 216 205 184 q 213 152 229 138 q 244 124 266 124 l 266 124 q 294 124 303 143 q 311 162 311 183 l 311 183 q 311 233 287 268 q 263 302 222 337 l 222 337 l 152 398 q 106 437 75 487 q 43 536 43 609 l 43 609 q 43 712 104 767 q 165 821 270 821 l 270 821 q 335 821 375 799 q 414 777 435 742 q 455 706 463 667 q 470 627 471 591 l 471 591 l 317 572 q 316 608 313 635 q 309 661 298 676 q 287 690 264 690 l 264 690 q 239 690 228 669 q 216 648 216 627 l 216 627 q 216 582 238 554 q 259 525 294 494 l 294 494 l 361 435 q 414 390 451 333 q 487 276 487 192 l 487 192 q 487 135 461 89 q 435 42 388 15 q 340 -12 275 -12 m 213 881 l 94 881 l 189 1073 l 322 1073 l 420 881 l 300 881 l 256 1000 l 213 881"},"Ș":{"x_min":42,"x_max":487,"ha":514,"o":"m 275 -12 l 275 -12 q 199 -12 148 15 q 97 42 71 99 q 45 155 42 245 l 42 245 l 195 268 q 196 216 205 184 q 213 152 229 138 q 244 124 266 124 l 266 124 q 294 124 303 143 q 311 162 311 183 l 311 183 q 311 233 287 268 q 263 302 222 337 l 222 337 l 152 398 q 106 437 75 487 q 43 536 43 609 l 43 609 q 43 712 104 767 q 165 821 270 821 l 270 821 q 335 821 375 799 q 414 777 435 742 q 455 706 463 667 q 470 627 471 591 l 471 591 l 317 572 q 316 608 313 635 q 309 661 298 676 q 287 690 264 690 l 264 690 q 239 690 228 669 q 216 648 216 627 l 216 627 q 216 582 238 554 q 259 525 294 494 l 294 494 l 361 435 q 414 390 451 333 q 487 276 487 192 l 487 192 q 487 135 461 89 q 435 42 388 15 q 340 -12 275 -12 m 207 -356 l 207 -356 l 194 -302 q 222 -297 244 -280 q 265 -264 265 -221 l 265 -221 l 180 -221 l 180 -69 l 333 -69 l 333 -199 q 333 -273 303 -313 q 273 -354 207 -356"},"Ṡ":{"x_min":42,"x_max":487,"ha":514,"o":"m 275 -12 l 275 -12 q 199 -12 148 15 q 97 42 71 99 q 45 155 42 245 l 42 245 l 195 268 q 196 216 205 184 q 213 152 229 138 q 244 124 266 124 l 266 124 q 294 124 303 143 q 311 162 311 183 l 311 183 q 311 233 287 268 q 263 302 222 337 l 222 337 l 152 398 q 106 437 75 487 q 43 536 43 609 l 43 609 q 43 712 104 767 q 165 821 270 821 l 270 821 q 335 821 375 799 q 414 777 435 742 q 455 706 463 667 q 470 627 471 591 l 471 591 l 317 572 q 316 608 313 635 q 309 661 298 676 q 287 690 264 690 l 264 690 q 239 690 228 669 q 216 648 216 627 l 216 627 q 216 582 238 554 q 259 525 294 494 l 294 494 l 361 435 q 414 390 451 333 q 487 276 487 192 l 487 192 q 487 135 461 89 q 435 42 388 15 q 340 -12 275 -12 m 334 884 l 180 884 l 180 1038 l 334 1038 l 334 884"},"ẞ":{"x_min":54,"x_max":589,"ha":623,"o":"m 331 -12 l 301 -12 l 301 110 l 320 110 q 366 110 392 140 q 417 169 417 232 l 417 232 q 417 293 394 324 q 370 354 320 354 l 320 354 l 311 354 l 311 472 l 420 680 q 406 687 388 691 q 370 695 349 695 l 349 695 q 290 695 262 661 q 234 627 234 562 l 234 562 l 234 0 l 54 0 l 54 557 q 54 635 83 695 q 112 754 173 788 q 234 821 330 821 l 330 821 q 398 821 452 806 q 505 791 551 766 l 551 766 l 551 647 l 419 399 l 360 456 q 476 456 533 399 q 589 342 589 235 l 589 235 q 589 105 523 47 q 456 -12 331 -12 l 331 -12"},"T":{"x_min":11,"x_max":434,"ha":445,"o":"m 313 0 l 133 0 l 133 677 l 11 677 l 11 810 l 434 810 l 434 677 l 313 677 l 313 0"},"Ŧ":{"x_min":11,"x_max":434,"ha":445,"o":"m 402 369 l 42 369 l 42 456 l 402 456 l 402 369 m 313 0 l 133 0 l 133 677 l 11 677 l 11 810 l 434 810 l 434 677 l 313 677 l 313 0"},"Ť":{"x_min":11,"x_max":434,"ha":445,"o":"m 313 0 l 133 0 l 133 677 l 11 677 l 11 810 l 434 810 l 434 677 l 313 677 l 313 0 m 301 871 l 143 871 l 55 1058 l 171 1058 l 222 948 l 273 1058 l 389 1058 l 301 871"},"Ţ":{"x_min":11,"x_max":434,"ha":445,"o":"m 313 0 l 133 0 l 133 677 l 11 677 l 11 810 l 434 810 l 434 677 l 313 677 l 313 0 m 242 -277 l 242 -277 q 223 -277 204 -274 q 184 -271 166 -265 l 166 -265 l 166 -195 q 177 -198 192 -200 q 207 -203 223 -203 l 223 -203 q 249 -203 267 -195 q 285 -187 285 -168 l 285 -168 q 285 -149 271 -138 q 256 -127 235 -122 q 214 -117 193 -116 l 193 -116 l 193 0 l 252 0 l 252 -66 q 314 -66 352 -91 q 389 -117 389 -170 l 389 -170 q 389 -208 369 -232 q 348 -256 315 -266 q 281 -277 242 -277"},"Ț":{"x_min":11,"x_max":434,"ha":445,"o":"m 313 0 l 133 0 l 133 677 l 11 677 l 11 810 l 434 810 l 434 677 l 313 677 l 313 0 m 172 -356 l 172 -356 l 159 -302 q 187 -297 209 -280 q 230 -264 230 -221 l 230 -221 l 145 -221 l 145 -69 l 298 -69 l 298 -199 q 298 -273 268 -313 q 238 -354 172 -356"},"Ṫ":{"x_min":11,"x_max":434,"ha":445,"o":"m 313 0 l 133 0 l 133 677 l 11 677 l 11 810 l 434 810 l 434 677 l 313 677 l 313 0 m 299 884 l 145 884 l 145 1038 l 299 1038 l 299 884"},"U":{"x_min":54,"x_max":534,"ha":588,"o":"m 294 -12 l 294 -12 q 201 -12 149 19 q 96 49 75 108 q 54 166 54 251 l 54 251 l 54 810 l 231 810 l 231 224 q 231 199 235 174 q 239 149 253 133 q 266 117 294 117 l 294 117 q 323 117 336 133 q 349 149 353 174 q 356 199 356 224 l 356 224 l 356 810 l 534 810 l 534 251 q 534 166 513 108 q 491 49 439 19 q 387 -12 294 -12"},"Ú":{"x_min":54,"x_max":534,"ha":588,"o":"m 294 -12 l 294 -12 q 201 -12 149 19 q 96 49 75 108 q 54 166 54 251 l 54 251 l 54 810 l 231 810 l 231 224 q 231 199 235 174 q 239 149 253 133 q 266 117 294 117 l 294 117 q 323 117 336 133 q 349 149 353 174 q 356 199 356 224 l 356 224 l 356 810 l 534 810 l 534 251 q 534 166 513 108 q 491 49 439 19 q 387 -12 294 -12 m 343 874 l 240 874 l 303 1075 l 469 1075 l 343 874"},"Ŭ":{"x_min":54,"x_max":534,"ha":588,"o":"m 294 -12 l 294 -12 q 201 -12 149 19 q 96 49 75 108 q 54 166 54 251 l 54 251 l 54 810 l 231 810 l 231 224 q 231 199 235 174 q 239 149 253 133 q 266 117 294 117 l 294 117 q 323 117 336 133 q 349 149 353 174 q 356 199 356 224 l 356 224 l 356 810 l 534 810 l 534 251 q 534 166 513 108 q 491 49 439 19 q 387 -12 294 -12 m 294 875 l 294 875 q 223 875 180 915 q 137 955 137 1031 l 137 1031 l 229 1031 q 229 994 244 976 q 258 958 294 958 l 294 958 q 329 958 344 977 q 359 995 359 1031 l 359 1031 l 451 1031 q 451 955 408 915 q 365 875 294 875"},"Ǔ":{"x_min":54,"x_max":534,"ha":588,"o":"m 294 -12 l 294 -12 q 201 -12 149 19 q 96 49 75 108 q 54 166 54 251 l 54 251 l 54 810 l 231 810 l 231 224 q 231 199 235 174 q 239 149 253 133 q 266 117 294 117 l 294 117 q 323 117 336 133 q 349 149 353 174 q 356 199 356 224 l 356 224 l 356 810 l 534 810 l 534 251 q 534 166 513 108 q 491 49 439 19 q 387 -12 294 -12 m 373 871 l 215 871 l 127 1058 l 243 1058 l 294 948 l 345 1058 l 461 1058 l 373 871"},"Û":{"x_min":54,"x_max":534,"ha":588,"o":"m 294 -12 l 294 -12 q 201 -12 149 19 q 96 49 75 108 q 54 166 54 251 l 54 251 l 54 810 l 231 810 l 231 224 q 231 199 235 174 q 239 149 253 133 q 266 117 294 117 l 294 117 q 323 117 336 133 q 349 149 353 174 q 356 199 356 224 l 356 224 l 356 810 l 534 810 l 534 251 q 534 166 513 108 q 491 49 439 19 q 387 -12 294 -12 m 250 881 l 131 881 l 226 1073 l 359 1073 l 457 881 l 337 881 l 293 1000 l 250 881"},"Ȕ":{"x_min":54,"x_max":534,"ha":588,"o":"m 294 -12 l 294 -12 q 201 -12 149 19 q 96 49 75 108 q 54 166 54 251 l 54 251 l 54 810 l 231 810 l 231 224 q 231 199 235 174 q 239 149 253 133 q 266 117 294 117 l 294 117 q 323 117 336 133 q 349 149 353 174 q 356 199 356 224 l 356 224 l 356 810 l 534 810 l 534 251 q 534 166 513 108 q 491 49 439 19 q 387 -12 294 -12 m 259 870 l 171 870 l 71 1077 l 195 1077 l 259 870 m 432 870 l 346 870 l 254 1077 l 373 1077 l 432 870"},"Ü":{"x_min":54,"x_max":534,"ha":588,"o":"m 294 -12 l 294 -12 q 201 -12 149 19 q 96 49 75 108 q 54 166 54 251 l 54 251 l 54 810 l 231 810 l 231 224 q 231 199 235 174 q 239 149 253 133 q 266 117 294 117 l 294 117 q 323 117 336 133 q 349 149 353 174 q 356 199 356 224 l 356 224 l 356 810 l 534 810 l 534 251 q 534 166 513 108 q 491 49 439 19 q 387 -12 294 -12 m 468 894 l 338 894 l 338 1042 l 468 1042 l 468 894 m 250 894 l 120 894 l 120 1042 l 250 1042 l 250 894"},"Ụ":{"x_min":54,"x_max":534,"ha":588,"o":"m 294 -12 l 294 -12 q 201 -12 149 19 q 96 49 75 108 q 54 166 54 251 l 54 251 l 54 810 l 231 810 l 231 224 q 231 199 235 174 q 239 149 253 133 q 266 117 294 117 l 294 117 q 323 117 336 133 q 349 149 353 174 q 356 199 356 224 l 356 224 l 356 810 l 534 810 l 534 251 q 534 166 513 108 q 491 49 439 19 q 387 -12 294 -12 m 364 -208 l 225 -208 l 225 -70 l 364 -70 l 364 -208"},"Ù":{"x_min":54,"x_max":534,"ha":588,"o":"m 294 -12 l 294 -12 q 201 -12 149 19 q 96 49 75 108 q 54 166 54 251 l 54 251 l 54 810 l 231 810 l 231 224 q 231 199 235 174 q 239 149 253 133 q 266 117 294 117 l 294 117 q 323 117 336 133 q 349 149 353 174 q 356 199 356 224 l 356 224 l 356 810 l 534 810 l 534 251 q 534 166 513 108 q 491 49 439 19 q 387 -12 294 -12 m 348 874 l 246 874 l 119 1075 l 287 1075 l 348 874"},"Ủ":{"x_min":54,"x_max":534,"ha":588,"o":"m 294 -12 l 294 -12 q 201 -12 149 19 q 96 49 75 108 q 54 166 54 251 l 54 251 l 54 810 l 231 810 l 231 224 q 231 199 235 174 q 239 149 253 133 q 266 117 294 117 l 294 117 q 323 117 336 133 q 349 149 353 174 q 356 199 356 224 l 356 224 l 356 810 l 534 810 l 534 251 q 534 166 513 108 q 491 49 439 19 q 387 -12 294 -12 m 294 859 l 294 859 l 239 911 q 269 925 290 939 q 311 952 311 975 l 311 975 q 311 995 295 1003 q 279 1010 254 1010 l 254 1010 q 239 1010 222 1008 q 205 1006 192 1003 l 192 1003 l 192 1071 q 240 1084 294 1084 l 294 1084 q 326 1084 354 1074 q 382 1064 399 1043 q 416 1021 416 985 l 416 985 q 416 950 399 926 q 382 902 355 887 q 327 871 294 859"},"Ư":{"x_min":54,"x_max":603,"ha":588,"o":"m 294 -12 l 294 -12 q 201 -12 149 19 q 96 49 75 108 q 54 166 54 251 l 54 251 l 54 810 l 231 810 l 231 224 q 231 199 235 174 q 239 149 253 133 q 266 117 294 117 l 294 117 q 323 117 336 133 q 349 149 353 174 q 356 199 356 224 l 356 224 l 356 810 l 534 810 l 534 251 q 534 166 513 108 q 491 49 439 19 q 387 -12 294 -12 m 435 745 l 425 745 l 425 810 l 435 810 q 465 810 477 832 q 489 853 489 896 l 489 896 l 603 896 q 603 820 556 783 q 509 745 435 745 l 435 745"},"Ứ":{"x_min":54,"x_max":603,"ha":588,"o":"m 294 -12 l 294 -12 q 201 -12 149 19 q 96 49 75 108 q 54 166 54 251 l 54 251 l 54 810 l 231 810 l 231 224 q 231 199 235 174 q 239 149 253 133 q 266 117 294 117 l 294 117 q 323 117 336 133 q 349 149 353 174 q 356 199 356 224 l 356 224 l 356 810 l 534 810 l 534 251 q 534 166 513 108 q 491 49 439 19 q 387 -12 294 -12 m 435 745 l 425 745 l 425 810 l 435 810 q 465 810 477 832 q 489 853 489 896 l 489 896 l 603 896 q 603 820 556 783 q 509 745 435 745 l 435 745 m 343 874 l 240 874 l 303 1075 l 469 1075 l 343 874"},"Ự":{"x_min":54,"x_max":603,"ha":588,"o":"m 294 -12 l 294 -12 q 201 -12 149 19 q 96 49 75 108 q 54 166 54 251 l 54 251 l 54 810 l 231 810 l 231 224 q 231 199 235 174 q 239 149 253 133 q 266 117 294 117 l 294 117 q 323 117 336 133 q 349 149 353 174 q 356 199 356 224 l 356 224 l 356 810 l 534 810 l 534 251 q 534 166 513 108 q 491 49 439 19 q 387 -12 294 -12 m 435 745 l 425 745 l 425 810 l 435 810 q 465 810 477 832 q 489 853 489 896 l 489 896 l 603 896 q 603 820 556 783 q 509 745 435 745 l 435 745 m 364 -208 l 225 -208 l 225 -70 l 364 -70 l 364 -208"},"Ừ":{"x_min":54,"x_max":603,"ha":588,"o":"m 294 -12 l 294 -12 q 201 -12 149 19 q 96 49 75 108 q 54 166 54 251 l 54 251 l 54 810 l 231 810 l 231 224 q 231 199 235 174 q 239 149 253 133 q 266 117 294 117 l 294 117 q 323 117 336 133 q 349 149 353 174 q 356 199 356 224 l 356 224 l 356 810 l 534 810 l 534 251 q 534 166 513 108 q 491 49 439 19 q 387 -12 294 -12 m 435 745 l 425 745 l 425 810 l 435 810 q 465 810 477 832 q 489 853 489 896 l 489 896 l 603 896 q 603 820 556 783 q 509 745 435 745 l 435 745 m 348 874 l 246 874 l 119 1075 l 287 1075 l 348 874"},"Ử":{"x_min":54,"x_max":603,"ha":588,"o":"m 294 -12 l 294 -12 q 201 -12 149 19 q 96 49 75 108 q 54 166 54 251 l 54 251 l 54 810 l 231 810 l 231 224 q 231 199 235 174 q 239 149 253 133 q 266 117 294 117 l 294 117 q 323 117 336 133 q 349 149 353 174 q 356 199 356 224 l 356 224 l 356 810 l 534 810 l 534 251 q 534 166 513 108 q 491 49 439 19 q 387 -12 294 -12 m 435 745 l 425 745 l 425 810 l 435 810 q 465 810 477 832 q 489 853 489 896 l 489 896 l 603 896 q 603 820 556 783 q 509 745 435 745 l 435 745 m 294 859 l 294 859 l 239 911 q 269 925 290 939 q 311 952 311 975 l 311 975 q 311 995 295 1003 q 279 1010 254 1010 l 254 1010 q 239 1010 222 1008 q 205 1006 192 1003 l 192 1003 l 192 1071 q 240 1084 294 1084 l 294 1084 q 326 1084 354 1074 q 382 1064 399 1043 q 416 1021 416 985 l 416 985 q 416 950 399 926 q 382 902 355 887 q 327 871 294 859"},"Ữ":{"x_min":54,"x_max":603,"ha":588,"o":"m 294 -12 l 294 -12 q 201 -12 149 19 q 96 49 75 108 q 54 166 54 251 l 54 251 l 54 810 l 231 810 l 231 224 q 231 199 235 174 q 239 149 253 133 q 266 117 294 117 l 294 117 q 323 117 336 133 q 349 149 353 174 q 356 199 356 224 l 356 224 l 356 810 l 534 810 l 534 251 q 534 166 513 108 q 491 49 439 19 q 387 -12 294 -12 m 435 745 l 425 745 l 425 810 l 435 810 q 465 810 477 832 q 489 853 489 896 l 489 896 l 603 896 q 603 820 556 783 q 509 745 435 745 l 435 745 m 375 900 l 375 900 q 350 900 329 912 q 308 924 289 936 q 270 947 250 947 l 250 947 q 228 947 221 935 q 214 922 214 906 l 214 906 l 136 906 q 136 947 144 979 q 152 1011 172 1030 q 192 1048 226 1048 l 226 1048 q 251 1048 271 1037 q 290 1026 309 1015 q 328 1004 349 1004 l 349 1004 q 366 1004 373 1015 q 380 1026 380 1042 l 380 1042 l 452 1042 q 452 1010 448 977 q 443 944 427 922 q 410 900 375 900"},"Ű":{"x_min":54,"x_max":540,"ha":588,"o":"m 294 -12 l 294 -12 q 201 -12 149 19 q 96 49 75 108 q 54 166 54 251 l 54 251 l 54 810 l 231 810 l 231 224 q 231 199 235 174 q 239 149 253 133 q 266 117 294 117 l 294 117 q 323 117 336 133 q 349 149 353 174 q 356 199 356 224 l 356 224 l 356 810 l 534 810 l 534 251 q 534 166 513 108 q 491 49 439 19 q 387 -12 294 -12 m 420 865 l 336 865 l 400 1081 l 540 1081 l 420 865 m 242 865 l 158 865 l 218 1081 l 350 1081 l 242 865"},"Ȗ":{"x_min":54,"x_max":534,"ha":588,"o":"m 294 -12 l 294 -12 q 201 -12 149 19 q 96 49 75 108 q 54 166 54 251 l 54 251 l 54 810 l 231 810 l 231 224 q 231 199 235 174 q 239 149 253 133 q 266 117 294 117 l 294 117 q 323 117 336 133 q 349 149 353 174 q 356 199 356 224 l 356 224 l 356 810 l 534 810 l 534 251 q 534 166 513 108 q 491 49 439 19 q 387 -12 294 -12 m 229 881 l 137 881 q 137 933 156 968 q 175 1003 211 1022 q 246 1040 294 1040 l 294 1040 q 343 1040 378 1022 q 413 1003 432 968 q 451 933 451 881 l 451 881 l 359 881 q 359 920 344 939 q 329 957 294 957 l 294 957 q 259 957 244 939 q 229 921 229 881 l 229 881"},"Ū":{"x_min":54,"x_max":534,"ha":588,"o":"m 294 -12 l 294 -12 q 201 -12 149 19 q 96 49 75 108 q 54 166 54 251 l 54 251 l 54 810 l 231 810 l 231 224 q 231 199 235 174 q 239 149 253 133 q 266 117 294 117 l 294 117 q 323 117 336 133 q 349 149 353 174 q 356 199 356 224 l 356 224 l 356 810 l 534 810 l 534 251 q 534 166 513 108 q 491 49 439 19 q 387 -12 294 -12 m 432 898 l 156 898 l 156 975 l 432 975 l 432 898"},"Ų":{"x_min":54,"x_max":534,"ha":588,"o":"m 294 -12 l 294 -12 q 201 -12 149 19 q 96 49 75 108 q 54 166 54 251 l 54 251 l 54 810 l 231 810 l 231 224 q 231 199 235 174 q 239 149 253 133 q 266 117 294 117 l 294 117 q 323 117 336 133 q 349 149 353 174 q 356 199 356 224 l 356 224 l 356 810 l 534 810 l 534 251 q 534 166 513 108 q 491 49 439 19 q 387 -12 294 -12 m 364 -260 l 364 -260 q 339 -260 311 -256 q 283 -253 259 -242 q 235 -231 220 -209 q 205 -188 205 -152 l 205 -152 q 205 -126 216 -97 q 227 -69 245 -43 q 263 -18 283 0 l 283 0 l 356 0 q 347 -17 339 -37 q 330 -58 325 -79 q 320 -100 320 -121 l 320 -121 q 320 -155 340 -167 q 359 -180 384 -180 l 384 -180 q 392 -180 400 -179 q 408 -179 413 -178 l 413 -178 l 397 -257 q 391 -258 383 -259 q 374 -260 364 -260"},"Ů":{"x_min":54,"x_max":534,"ha":588,"o":"m 294 -12 l 294 -12 q 201 -12 149 19 q 96 49 75 108 q 54 166 54 251 l 54 251 l 54 810 l 231 810 l 231 224 q 231 199 235 174 q 239 149 253 133 q 266 117 294 117 l 294 117 q 323 117 336 133 q 349 149 353 174 q 356 199 356 224 l 356 224 l 356 810 l 534 810 l 534 251 q 534 166 513 108 q 491 49 439 19 q 387 -12 294 -12 m 293 854 l 293 854 q 246 854 212 882 q 177 909 177 963 l 177 963 q 177 1018 212 1046 q 246 1073 293 1073 l 293 1073 q 340 1073 376 1045 q 411 1017 411 963 l 411 963 q 411 909 376 882 q 341 854 293 854 m 293 911 l 293 911 q 318 911 331 927 q 343 942 343 963 l 343 963 q 343 985 331 1001 q 318 1016 293 1016 l 293 1016 q 269 1016 257 1001 q 244 985 244 963 l 244 963 q 244 942 257 927 q 269 911 293 911"},"Ũ":{"x_min":54,"x_max":534,"ha":588,"o":"m 294 -12 l 294 -12 q 201 -12 149 19 q 96 49 75 108 q 54 166 54 251 l 54 251 l 54 810 l 231 810 l 231 224 q 231 199 235 174 q 239 149 253 133 q 266 117 294 117 l 294 117 q 323 117 336 133 q 349 149 353 174 q 356 199 356 224 l 356 224 l 356 810 l 534 810 l 534 251 q 534 166 513 108 q 491 49 439 19 q 387 -12 294 -12 m 375 900 l 375 900 q 350 900 329 912 q 308 924 289 936 q 270 947 250 947 l 250 947 q 228 947 221 935 q 214 922 214 906 l 214 906 l 136 906 q 136 947 144 979 q 152 1011 172 1030 q 192 1048 226 1048 l 226 1048 q 251 1048 271 1037 q 290 1026 309 1015 q 328 1004 349 1004 l 349 1004 q 366 1004 373 1015 q 380 1026 380 1042 l 380 1042 l 452 1042 q 452 1010 448 977 q 443 944 427 922 q 410 900 375 900"},"V":{"x_min":22,"x_max":505,"ha":526,"o":"m 357 0 l 168 0 l 22 810 l 175 810 l 262 260 l 343 810 l 505 810 l 357 0"},"W":{"x_min":27,"x_max":670,"ha":697,"o":"m 283 0 l 125 0 l 27 810 l 179 810 l 227 338 l 288 809 l 407 809 l 471 341 l 520 810 l 670 810 l 573 0 l 417 0 l 348 489 l 283 0"},"Ẃ":{"x_min":27,"x_max":670,"ha":697,"o":"m 283 0 l 125 0 l 27 810 l 179 810 l 227 338 l 288 809 l 407 809 l 471 341 l 520 810 l 670 810 l 573 0 l 417 0 l 348 489 l 283 0 m 398 874 l 295 874 l 358 1075 l 524 1075 l 398 874"},"Ŵ":{"x_min":27,"x_max":670,"ha":697,"o":"m 283 0 l 125 0 l 27 810 l 179 810 l 227 338 l 288 809 l 407 809 l 471 341 l 520 810 l 670 810 l 573 0 l 417 0 l 348 489 l 283 0 m 305 881 l 186 881 l 281 1073 l 414 1073 l 512 881 l 392 881 l 348 1000 l 305 881"},"Ẅ":{"x_min":27,"x_max":670,"ha":697,"o":"m 283 0 l 125 0 l 27 810 l 179 810 l 227 338 l 288 809 l 407 809 l 471 341 l 520 810 l 670 810 l 573 0 l 417 0 l 348 489 l 283 0 m 523 894 l 393 894 l 393 1042 l 523 1042 l 523 894 m 305 894 l 175 894 l 175 1042 l 305 1042 l 305 894"},"Ẁ":{"x_min":27,"x_max":670,"ha":697,"o":"m 283 0 l 125 0 l 27 810 l 179 810 l 227 338 l 288 809 l 407 809 l 471 341 l 520 810 l 670 810 l 573 0 l 417 0 l 348 489 l 283 0 m 403 874 l 301 874 l 174 1075 l 342 1075 l 403 874"},"X":{"x_min":7,"x_max":509,"ha":515,"o":"m 155 0 l 7 0 l 164 436 l 14 810 l 183 810 l 272 591 l 344 810 l 493 810 l 351 389 l 509 0 l 341 0 l 242 242 l 155 0"},"Y":{"x_min":8,"x_max":485,"ha":493,"o":"m 334 0 l 162 0 l 162 331 l 8 810 l 177 810 l 254 554 l 323 810 l 485 810 l 334 331 l 334 0"},"Ý":{"x_min":8,"x_max":485,"ha":493,"o":"m 334 0 l 162 0 l 162 331 l 8 810 l 177 810 l 254 554 l 323 810 l 485 810 l 334 331 l 334 0 m 296 874 l 193 874 l 256 1075 l 422 1075 l 296 874"},"Ŷ":{"x_min":8,"x_max":485,"ha":493,"o":"m 334 0 l 162 0 l 162 331 l 8 810 l 177 810 l 254 554 l 323 810 l 485 810 l 334 331 l 334 0 m 203 881 l 84 881 l 179 1073 l 312 1073 l 410 881 l 290 881 l 246 1000 l 203 881"},"Ÿ":{"x_min":8,"x_max":485,"ha":493,"o":"m 334 0 l 162 0 l 162 331 l 8 810 l 177 810 l 254 554 l 323 810 l 485 810 l 334 331 l 334 0 m 421 894 l 291 894 l 291 1042 l 421 1042 l 421 894 m 203 894 l 73 894 l 73 1042 l 203 1042 l 203 894"},"Ỵ":{"x_min":8,"x_max":485,"ha":493,"o":"m 334 0 l 162 0 l 162 331 l 8 810 l 177 810 l 254 554 l 323 810 l 485 810 l 334 331 l 334 0 m 317 -208 l 178 -208 l 178 -70 l 317 -70 l 317 -208"},"Ỳ":{"x_min":8,"x_max":485,"ha":493,"o":"m 334 0 l 162 0 l 162 331 l 8 810 l 177 810 l 254 554 l 323 810 l 485 810 l 334 331 l 334 0 m 301 874 l 199 874 l 72 1075 l 240 1075 l 301 874"},"Ỷ":{"x_min":8,"x_max":485,"ha":493,"o":"m 334 0 l 162 0 l 162 331 l 8 810 l 177 810 l 254 554 l 323 810 l 485 810 l 334 331 l 334 0 m 247 859 l 247 859 l 192 911 q 222 925 243 939 q 264 952 264 975 l 264 975 q 264 995 248 1003 q 232 1010 207 1010 l 207 1010 q 192 1010 175 1008 q 158 1006 145 1003 l 145 1003 l 145 1071 q 193 1084 247 1084 l 247 1084 q 279 1084 307 1074 q 335 1064 352 1043 q 369 1021 369 985 l 369 985 q 369 950 352 926 q 335 902 308 887 q 280 871 247 859"},"Ȳ":{"x_min":8,"x_max":485,"ha":493,"o":"m 334 0 l 162 0 l 162 331 l 8 810 l 177 810 l 254 554 l 323 810 l 485 810 l 334 331 l 334 0 m 385 898 l 109 898 l 109 975 l 385 975 l 385 898"},"Ỹ":{"x_min":8,"x_max":485,"ha":493,"o":"m 334 0 l 162 0 l 162 331 l 8 810 l 177 810 l 254 554 l 323 810 l 485 810 l 334 331 l 334 0 m 328 900 l 328 900 q 303 900 282 912 q 261 924 242 936 q 223 947 203 947 l 203 947 q 181 947 174 935 q 167 922 167 906 l 167 906 l 89 906 q 89 947 97 979 q 105 1011 125 1030 q 145 1048 179 1048 l 179 1048 q 204 1048 224 1037 q 243 1026 262 1015 q 281 1004 302 1004 l 302 1004 q 319 1004 326 1015 q 333 1026 333 1042 l 333 1042 l 405 1042 q 405 1010 401 977 q 396 944 380 922 q 363 900 328 900"},"Z":{"x_min":29,"x_max":405,"ha":433,"o":"m 405 0 l 29 0 l 29 108 l 227 689 l 38 689 l 38 810 l 403 810 l 403 709 l 202 121 l 405 121 l 405 0"},"Ź":{"x_min":29,"x_max":405,"ha":433,"o":"m 405 0 l 29 0 l 29 108 l 227 689 l 38 689 l 38 810 l 403 810 l 403 709 l 202 121 l 405 121 l 405 0 m 266 874 l 163 874 l 226 1075 l 392 1075 l 266 874"},"Ž":{"x_min":29,"x_max":405,"ha":433,"o":"m 405 0 l 29 0 l 29 108 l 227 689 l 38 689 l 38 810 l 403 810 l 403 709 l 202 121 l 405 121 l 405 0 m 296 871 l 138 871 l 50 1058 l 166 1058 l 217 948 l 268 1058 l 384 1058 l 296 871"},"Ż":{"x_min":29,"x_max":405,"ha":433,"o":"m 405 0 l 29 0 l 29 108 l 227 689 l 38 689 l 38 810 l 403 810 l 403 709 l 202 121 l 405 121 l 405 0 m 294 884 l 140 884 l 140 1038 l 294 1038 l 294 884"},"a":{"x_min":20,"x_max":424,"ha":460,"o":"m 154 -10 l 154 -10 q 110 -10 80 11 q 50 32 35 65 q 20 97 20 131 l 20 131 q 20 185 42 222 q 63 259 98 284 q 133 309 175 327 q 217 344 258 358 l 258 358 l 258 416 q 258 431 255 443 q 252 454 245 461 q 238 467 224 467 l 224 467 q 210 467 203 461 q 195 455 192 445 q 189 434 188 421 l 188 421 l 184 379 l 32 385 q 37 489 88 539 q 138 588 239 588 l 239 588 q 327 588 371 540 q 414 491 414 414 l 414 414 l 414 144 q 414 108 416 81 q 417 54 420 34 q 422 14 424 0 l 424 0 l 278 0 q 275 23 271 50 q 267 77 265 82 l 265 82 q 255 46 228 18 q 200 -10 154 -10 m 212 100 l 212 100 q 222 100 231 104 q 239 108 246 115 q 253 122 258 129 l 258 129 l 258 287 q 238 275 221 263 q 204 250 192 235 q 180 220 174 203 q 167 185 167 163 l 167 163 q 167 134 179 117 q 191 100 212 100"},"á":{"x_min":20,"x_max":424,"ha":460,"o":"m 154 -10 l 154 -10 q 110 -10 80 11 q 50 32 35 65 q 20 97 20 131 l 20 131 q 20 185 42 222 q 63 259 98 284 q 133 309 175 327 q 217 344 258 358 l 258 358 l 258 416 q 258 431 255 443 q 252 454 245 461 q 238 467 224 467 l 224 467 q 210 467 203 461 q 195 455 192 445 q 189 434 188 421 l 188 421 l 184 379 l 32 385 q 37 489 88 539 q 138 588 239 588 l 239 588 q 327 588 371 540 q 414 491 414 414 l 414 414 l 414 144 q 414 108 416 81 q 417 54 420 34 q 422 14 424 0 l 424 0 l 278 0 q 275 23 271 50 q 267 77 265 82 l 265 82 q 255 46 228 18 q 200 -10 154 -10 m 212 100 l 212 100 q 222 100 231 104 q 239 108 246 115 q 253 122 258 129 l 258 129 l 258 287 q 238 275 221 263 q 204 250 192 235 q 180 220 174 203 q 167 185 167 163 l 167 163 q 167 134 179 117 q 191 100 212 100 m 287 642 l 184 642 l 247 843 l 413 843 l 287 642"},"ă":{"x_min":20,"x_max":424,"ha":460,"o":"m 154 -10 l 154 -10 q 110 -10 80 11 q 50 32 35 65 q 20 97 20 131 l 20 131 q 20 185 42 222 q 63 259 98 284 q 133 309 175 327 q 217 344 258 358 l 258 358 l 258 416 q 258 431 255 443 q 252 454 245 461 q 238 467 224 467 l 224 467 q 210 467 203 461 q 195 455 192 445 q 189 434 188 421 l 188 421 l 184 379 l 32 385 q 37 489 88 539 q 138 588 239 588 l 239 588 q 327 588 371 540 q 414 491 414 414 l 414 414 l 414 144 q 414 108 416 81 q 417 54 420 34 q 422 14 424 0 l 424 0 l 278 0 q 275 23 271 50 q 267 77 265 82 l 265 82 q 255 46 228 18 q 200 -10 154 -10 m 212 100 l 212 100 q 222 100 231 104 q 239 108 246 115 q 253 122 258 129 l 258 129 l 258 287 q 238 275 221 263 q 204 250 192 235 q 180 220 174 203 q 167 185 167 163 l 167 163 q 167 134 179 117 q 191 100 212 100 m 238 643 l 238 643 q 167 643 124 683 q 81 723 81 799 l 81 799 l 173 799 q 173 762 188 744 q 202 726 238 726 l 238 726 q 273 726 288 745 q 303 763 303 799 l 303 799 l 395 799 q 395 723 352 683 q 309 643 238 643"},"ắ":{"x_min":20,"x_max":424,"ha":460,"o":"m 154 -10 l 154 -10 q 110 -10 80 11 q 50 32 35 65 q 20 97 20 131 l 20 131 q 20 185 42 222 q 63 259 98 284 q 133 309 175 327 q 217 344 258 358 l 258 358 l 258 416 q 258 431 255 443 q 252 454 245 461 q 238 467 224 467 l 224 467 q 210 467 203 461 q 195 455 192 445 q 189 434 188 421 l 188 421 l 184 379 l 32 385 q 37 489 88 539 q 138 588 239 588 l 239 588 q 327 588 371 540 q 414 491 414 414 l 414 414 l 414 144 q 414 108 416 81 q 417 54 420 34 q 422 14 424 0 l 424 0 l 278 0 q 275 23 271 50 q 267 77 265 82 l 265 82 q 255 46 228 18 q 200 -10 154 -10 m 212 100 l 212 100 q 222 100 231 104 q 239 108 246 115 q 253 122 258 129 l 258 129 l 258 287 q 238 275 221 263 q 204 250 192 235 q 180 220 174 203 q 167 185 167 163 l 167 163 q 167 134 179 117 q 191 100 212 100 m 265 833 l 171 833 l 242 949 l 375 949 l 265 833 m 238 639 l 238 639 q 167 639 124 679 q 81 719 81 795 l 81 795 l 173 795 q 173 757 188 740 q 202 722 238 722 l 238 722 q 273 722 288 741 q 303 759 303 795 l 303 795 l 395 795 q 395 719 352 679 q 309 639 238 639"},"ặ":{"x_min":20,"x_max":424,"ha":460,"o":"m 154 -10 l 154 -10 q 110 -10 80 11 q 50 32 35 65 q 20 97 20 131 l 20 131 q 20 185 42 222 q 63 259 98 284 q 133 309 175 327 q 217 344 258 358 l 258 358 l 258 416 q 258 431 255 443 q 252 454 245 461 q 238 467 224 467 l 224 467 q 210 467 203 461 q 195 455 192 445 q 189 434 188 421 l 188 421 l 184 379 l 32 385 q 37 489 88 539 q 138 588 239 588 l 239 588 q 327 588 371 540 q 414 491 414 414 l 414 414 l 414 144 q 414 108 416 81 q 417 54 420 34 q 422 14 424 0 l 424 0 l 278 0 q 275 23 271 50 q 267 77 265 82 l 265 82 q 255 46 228 18 q 200 -10 154 -10 m 212 100 l 212 100 q 222 100 231 104 q 239 108 246 115 q 253 122 258 129 l 258 129 l 258 287 q 238 275 221 263 q 204 250 192 235 q 180 220 174 203 q 167 185 167 163 l 167 163 q 167 134 179 117 q 191 100 212 100 m 293 -208 l 154 -208 l 154 -70 l 293 -70 l 293 -208 m 238 643 l 238 643 q 167 643 124 683 q 81 723 81 799 l 81 799 l 173 799 q 173 762 188 744 q 202 726 238 726 l 238 726 q 273 726 288 745 q 303 763 303 799 l 303 799 l 395 799 q 395 723 352 683 q 309 643 238 643"},"ằ":{"x_min":20,"x_max":424,"ha":460,"o":"m 154 -10 l 154 -10 q 110 -10 80 11 q 50 32 35 65 q 20 97 20 131 l 20 131 q 20 185 42 222 q 63 259 98 284 q 133 309 175 327 q 217 344 258 358 l 258 358 l 258 416 q 258 431 255 443 q 252 454 245 461 q 238 467 224 467 l 224 467 q 210 467 203 461 q 195 455 192 445 q 189 434 188 421 l 188 421 l 184 379 l 32 385 q 37 489 88 539 q 138 588 239 588 l 239 588 q 327 588 371 540 q 414 491 414 414 l 414 414 l 414 144 q 414 108 416 81 q 417 54 420 34 q 422 14 424 0 l 424 0 l 278 0 q 275 23 271 50 q 267 77 265 82 l 265 82 q 255 46 228 18 q 200 -10 154 -10 m 212 100 l 212 100 q 222 100 231 104 q 239 108 246 115 q 253 122 258 129 l 258 129 l 258 287 q 238 275 221 263 q 204 250 192 235 q 180 220 174 203 q 167 185 167 163 l 167 163 q 167 134 179 117 q 191 100 212 100 m 304 833 l 211 833 l 101 949 l 233 949 l 304 833 m 238 639 l 238 639 q 167 639 124 679 q 81 719 81 795 l 81 795 l 173 795 q 173 757 188 740 q 202 722 238 722 l 238 722 q 273 722 288 741 q 303 759 303 795 l 303 795 l 395 795 q 395 719 352 679 q 309 639 238 639"},"ẳ":{"x_min":20,"x_max":424,"ha":460,"o":"m 154 -10 l 154 -10 q 110 -10 80 11 q 50 32 35 65 q 20 97 20 131 l 20 131 q 20 185 42 222 q 63 259 98 284 q 133 309 175 327 q 217 344 258 358 l 258 358 l 258 416 q 258 431 255 443 q 252 454 245 461 q 238 467 224 467 l 224 467 q 210 467 203 461 q 195 455 192 445 q 189 434 188 421 l 188 421 l 184 379 l 32 385 q 37 489 88 539 q 138 588 239 588 l 239 588 q 327 588 371 540 q 414 491 414 414 l 414 414 l 414 144 q 414 108 416 81 q 417 54 420 34 q 422 14 424 0 l 424 0 l 278 0 q 275 23 271 50 q 267 77 265 82 l 265 82 q 255 46 228 18 q 200 -10 154 -10 m 212 100 l 212 100 q 222 100 231 104 q 239 108 246 115 q 253 122 258 129 l 258 129 l 258 287 q 238 275 221 263 q 204 250 192 235 q 180 220 174 203 q 167 185 167 163 l 167 163 q 167 134 179 117 q 191 100 212 100 m 251 802 l 251 802 l 205 851 q 222 865 232 879 q 242 892 242 911 l 242 911 q 242 930 230 941 q 217 951 196 951 l 196 951 q 181 951 169 948 q 156 945 145 941 l 145 941 l 145 1009 q 165 1017 186 1021 q 206 1025 228 1025 l 228 1025 q 278 1025 311 1001 q 343 976 343 926 l 343 926 q 343 880 316 851 q 288 822 251 802 m 238 643 l 238 643 q 167 643 124 683 q 81 723 81 799 l 81 799 l 173 799 q 173 762 188 744 q 202 726 238 726 l 238 726 q 273 726 288 745 q 303 763 303 799 l 303 799 l 395 799 q 395 723 352 683 q 309 643 238 643"},"ẵ":{"x_min":20,"x_max":424,"ha":460,"o":"m 154 -10 l 154 -10 q 110 -10 80 11 q 50 32 35 65 q 20 97 20 131 l 20 131 q 20 185 42 222 q 63 259 98 284 q 133 309 175 327 q 217 344 258 358 l 258 358 l 258 416 q 258 431 255 443 q 252 454 245 461 q 238 467 224 467 l 224 467 q 210 467 203 461 q 195 455 192 445 q 189 434 188 421 l 188 421 l 184 379 l 32 385 q 37 489 88 539 q 138 588 239 588 l 239 588 q 327 588 371 540 q 414 491 414 414 l 414 414 l 414 144 q 414 108 416 81 q 417 54 420 34 q 422 14 424 0 l 424 0 l 278 0 q 275 23 271 50 q 267 77 265 82 l 265 82 q 255 46 228 18 q 200 -10 154 -10 m 212 100 l 212 100 q 222 100 231 104 q 239 108 246 115 q 253 122 258 129 l 258 129 l 258 287 q 238 275 221 263 q 204 250 192 235 q 180 220 174 203 q 167 185 167 163 l 167 163 q 167 134 179 117 q 191 100 212 100 m 238 643 l 238 643 q 167 643 124 683 q 81 723 81 799 l 81 799 l 173 799 q 173 762 188 744 q 202 726 238 726 l 238 726 q 273 726 288 745 q 303 763 303 799 l 303 799 l 395 799 q 395 723 352 683 q 309 643 238 643 m 319 853 l 319 853 q 294 853 273 865 q 252 877 233 889 q 214 900 194 900 l 194 900 q 172 900 165 888 q 158 875 158 859 l 158 859 l 80 859 q 80 900 88 932 q 96 964 116 983 q 136 1001 170 1001 l 170 1001 q 195 1001 215 990 q 234 979 253 968 q 272 957 293 957 l 293 957 q 310 957 317 968 q 324 979 324 995 l 324 995 l 396 995 q 396 963 392 930 q 387 897 371 875 q 354 853 319 853"},"ǎ":{"x_min":20,"x_max":424,"ha":460,"o":"m 154 -10 l 154 -10 q 110 -10 80 11 q 50 32 35 65 q 20 97 20 131 l 20 131 q 20 185 42 222 q 63 259 98 284 q 133 309 175 327 q 217 344 258 358 l 258 358 l 258 416 q 258 431 255 443 q 252 454 245 461 q 238 467 224 467 l 224 467 q 210 467 203 461 q 195 455 192 445 q 189 434 188 421 l 188 421 l 184 379 l 32 385 q 37 489 88 539 q 138 588 239 588 l 239 588 q 327 588 371 540 q 414 491 414 414 l 414 414 l 414 144 q 414 108 416 81 q 417 54 420 34 q 422 14 424 0 l 424 0 l 278 0 q 275 23 271 50 q 267 77 265 82 l 265 82 q 255 46 228 18 q 200 -10 154 -10 m 212 100 l 212 100 q 222 100 231 104 q 239 108 246 115 q 253 122 258 129 l 258 129 l 258 287 q 238 275 221 263 q 204 250 192 235 q 180 220 174 203 q 167 185 167 163 l 167 163 q 167 134 179 117 q 191 100 212 100 m 317 639 l 159 639 l 71 826 l 187 826 l 238 716 l 289 826 l 405 826 l 317 639"},"â":{"x_min":20,"x_max":424,"ha":460,"o":"m 154 -10 l 154 -10 q 110 -10 80 11 q 50 32 35 65 q 20 97 20 131 l 20 131 q 20 185 42 222 q 63 259 98 284 q 133 309 175 327 q 217 344 258 358 l 258 358 l 258 416 q 258 431 255 443 q 252 454 245 461 q 238 467 224 467 l 224 467 q 210 467 203 461 q 195 455 192 445 q 189 434 188 421 l 188 421 l 184 379 l 32 385 q 37 489 88 539 q 138 588 239 588 l 239 588 q 327 588 371 540 q 414 491 414 414 l 414 414 l 414 144 q 414 108 416 81 q 417 54 420 34 q 422 14 424 0 l 424 0 l 278 0 q 275 23 271 50 q 267 77 265 82 l 265 82 q 255 46 228 18 q 200 -10 154 -10 m 212 100 l 212 100 q 222 100 231 104 q 239 108 246 115 q 253 122 258 129 l 258 129 l 258 287 q 238 275 221 263 q 204 250 192 235 q 180 220 174 203 q 167 185 167 163 l 167 163 q 167 134 179 117 q 191 100 212 100 m 194 649 l 75 649 l 170 841 l 303 841 l 401 649 l 281 649 l 237 768 l 194 649"},"ấ":{"x_min":20,"x_max":547,"ha":460,"o":"m 154 -10 l 154 -10 q 110 -10 80 11 q 50 32 35 65 q 20 97 20 131 l 20 131 q 20 185 42 222 q 63 259 98 284 q 133 309 175 327 q 217 344 258 358 l 258 358 l 258 416 q 258 431 255 443 q 252 454 245 461 q 238 467 224 467 l 224 467 q 210 467 203 461 q 195 455 192 445 q 189 434 188 421 l 188 421 l 184 379 l 32 385 q 37 489 88 539 q 138 588 239 588 l 239 588 q 327 588 371 540 q 414 491 414 414 l 414 414 l 414 144 q 414 108 416 81 q 417 54 420 34 q 422 14 424 0 l 424 0 l 278 0 q 275 23 271 50 q 267 77 265 82 l 265 82 q 255 46 228 18 q 200 -10 154 -10 m 212 100 l 212 100 q 222 100 231 104 q 239 108 246 115 q 253 122 258 129 l 258 129 l 258 287 q 238 275 221 263 q 204 250 192 235 q 180 220 174 203 q 167 185 167 163 l 167 163 q 167 134 179 117 q 191 100 212 100 m 190 649 l 75 649 l 170 816 l 303 816 l 401 649 l 285 649 l 237 749 l 190 649 m 459 767 l 373 767 l 426 890 l 547 890 l 459 767"},"ậ":{"x_min":20,"x_max":424,"ha":460,"o":"m 154 -10 l 154 -10 q 110 -10 80 11 q 50 32 35 65 q 20 97 20 131 l 20 131 q 20 185 42 222 q 63 259 98 284 q 133 309 175 327 q 217 344 258 358 l 258 358 l 258 416 q 258 431 255 443 q 252 454 245 461 q 238 467 224 467 l 224 467 q 210 467 203 461 q 195 455 192 445 q 189 434 188 421 l 188 421 l 184 379 l 32 385 q 37 489 88 539 q 138 588 239 588 l 239 588 q 327 588 371 540 q 414 491 414 414 l 414 414 l 414 144 q 414 108 416 81 q 417 54 420 34 q 422 14 424 0 l 424 0 l 278 0 q 275 23 271 50 q 267 77 265 82 l 265 82 q 255 46 228 18 q 200 -10 154 -10 m 212 100 l 212 100 q 222 100 231 104 q 239 108 246 115 q 253 122 258 129 l 258 129 l 258 287 q 238 275 221 263 q 204 250 192 235 q 180 220 174 203 q 167 185 167 163 l 167 163 q 167 134 179 117 q 191 100 212 100 m 293 -208 l 154 -208 l 154 -70 l 293 -70 l 293 -208 m 190 649 l 75 649 l 170 816 l 303 816 l 401 649 l 285 649 l 237 749 l 190 649"},"ầ":{"x_min":20,"x_max":489,"ha":460,"o":"m 154 -10 l 154 -10 q 110 -10 80 11 q 50 32 35 65 q 20 97 20 131 l 20 131 q 20 185 42 222 q 63 259 98 284 q 133 309 175 327 q 217 344 258 358 l 258 358 l 258 416 q 258 431 255 443 q 252 454 245 461 q 238 467 224 467 l 224 467 q 210 467 203 461 q 195 455 192 445 q 189 434 188 421 l 188 421 l 184 379 l 32 385 q 37 489 88 539 q 138 588 239 588 l 239 588 q 327 588 371 540 q 414 491 414 414 l 414 414 l 414 144 q 414 108 416 81 q 417 54 420 34 q 422 14 424 0 l 424 0 l 278 0 q 275 23 271 50 q 267 77 265 82 l 265 82 q 255 46 228 18 q 200 -10 154 -10 m 212 100 l 212 100 q 222 100 231 104 q 239 108 246 115 q 253 122 258 129 l 258 129 l 258 287 q 238 275 221 263 q 204 250 192 235 q 180 220 174 203 q 167 185 167 163 l 167 163 q 167 134 179 117 q 191 100 212 100 m 190 649 l 75 649 l 170 816 l 303 816 l 401 649 l 285 649 l 237 749 l 190 649 m 489 767 l 402 767 l 314 890 l 436 890 l 489 767"},"ẩ":{"x_min":20,"x_max":505,"ha":460,"o":"m 154 -10 l 154 -10 q 110 -10 80 11 q 50 32 35 65 q 20 97 20 131 l 20 131 q 20 185 42 222 q 63 259 98 284 q 133 309 175 327 q 217 344 258 358 l 258 358 l 258 416 q 258 431 255 443 q 252 454 245 461 q 238 467 224 467 l 224 467 q 210 467 203 461 q 195 455 192 445 q 189 434 188 421 l 188 421 l 184 379 l 32 385 q 37 489 88 539 q 138 588 239 588 l 239 588 q 327 588 371 540 q 414 491 414 414 l 414 414 l 414 144 q 414 108 416 81 q 417 54 420 34 q 422 14 424 0 l 424 0 l 278 0 q 275 23 271 50 q 267 77 265 82 l 265 82 q 255 46 228 18 q 200 -10 154 -10 m 212 100 l 212 100 q 222 100 231 104 q 239 108 246 115 q 253 122 258 129 l 258 129 l 258 287 q 238 275 221 263 q 204 250 192 235 q 180 220 174 203 q 167 185 167 163 l 167 163 q 167 134 179 117 q 191 100 212 100 m 414 741 l 414 741 l 368 790 q 385 804 395 818 q 405 831 405 850 l 405 850 q 405 869 393 880 q 380 890 359 890 l 359 890 q 343 890 331 887 q 318 884 308 880 l 308 880 l 308 948 q 328 956 348 960 q 368 964 390 964 l 390 964 q 440 964 473 940 q 505 915 505 865 l 505 865 q 505 817 478 789 q 450 761 414 741 m 190 649 l 75 649 l 170 816 l 303 816 l 401 649 l 285 649 l 237 749 l 190 649"},"ẫ":{"x_min":20,"x_max":424,"ha":460,"o":"m 154 -10 l 154 -10 q 110 -10 80 11 q 50 32 35 65 q 20 97 20 131 l 20 131 q 20 185 42 222 q 63 259 98 284 q 133 309 175 327 q 217 344 258 358 l 258 358 l 258 416 q 258 431 255 443 q 252 454 245 461 q 238 467 224 467 l 224 467 q 210 467 203 461 q 195 455 192 445 q 189 434 188 421 l 188 421 l 184 379 l 32 385 q 37 489 88 539 q 138 588 239 588 l 239 588 q 327 588 371 540 q 414 491 414 414 l 414 414 l 414 144 q 414 108 416 81 q 417 54 420 34 q 422 14 424 0 l 424 0 l 278 0 q 275 23 271 50 q 267 77 265 82 l 265 82 q 255 46 228 18 q 200 -10 154 -10 m 212 100 l 212 100 q 222 100 231 104 q 239 108 246 115 q 253 122 258 129 l 258 129 l 258 287 q 238 275 221 263 q 204 250 192 235 q 180 220 174 203 q 167 185 167 163 l 167 163 q 167 134 179 117 q 191 100 212 100 m 190 649 l 75 649 l 170 816 l 303 816 l 401 649 l 285 649 l 237 749 l 190 649 m 319 865 l 319 865 q 294 865 273 877 q 252 889 233 901 q 214 912 194 912 l 194 912 q 172 912 165 900 q 158 887 158 871 l 158 871 l 80 871 q 80 912 88 944 q 96 976 116 995 q 136 1013 170 1013 l 170 1013 q 195 1013 215 1002 q 234 991 253 980 q 272 969 293 969 l 293 969 q 310 969 317 980 q 324 991 324 1007 l 324 1007 l 396 1007 q 396 975 392 942 q 387 909 371 887 q 354 865 319 865"},"ȁ":{"x_min":15,"x_max":424,"ha":460,"o":"m 154 -10 l 154 -10 q 110 -10 80 11 q 50 32 35 65 q 20 97 20 131 l 20 131 q 20 185 42 222 q 63 259 98 284 q 133 309 175 327 q 217 344 258 358 l 258 358 l 258 416 q 258 431 255 443 q 252 454 245 461 q 238 467 224 467 l 224 467 q 210 467 203 461 q 195 455 192 445 q 189 434 188 421 l 188 421 l 184 379 l 32 385 q 37 489 88 539 q 138 588 239 588 l 239 588 q 327 588 371 540 q 414 491 414 414 l 414 414 l 414 144 q 414 108 416 81 q 417 54 420 34 q 422 14 424 0 l 424 0 l 278 0 q 275 23 271 50 q 267 77 265 82 l 265 82 q 255 46 228 18 q 200 -10 154 -10 m 212 100 l 212 100 q 222 100 231 104 q 239 108 246 115 q 253 122 258 129 l 258 129 l 258 287 q 238 275 221 263 q 204 250 192 235 q 180 220 174 203 q 167 185 167 163 l 167 163 q 167 134 179 117 q 191 100 212 100 m 203 638 l 115 638 l 15 845 l 139 845 l 203 638 m 376 638 l 290 638 l 198 845 l 317 845 l 376 638"},"ä":{"x_min":20,"x_max":424,"ha":460,"o":"m 154 -10 l 154 -10 q 110 -10 80 11 q 50 32 35 65 q 20 97 20 131 l 20 131 q 20 185 42 222 q 63 259 98 284 q 133 309 175 327 q 217 344 258 358 l 258 358 l 258 416 q 258 431 255 443 q 252 454 245 461 q 238 467 224 467 l 224 467 q 210 467 203 461 q 195 455 192 445 q 189 434 188 421 l 188 421 l 184 379 l 32 385 q 37 489 88 539 q 138 588 239 588 l 239 588 q 327 588 371 540 q 414 491 414 414 l 414 414 l 414 144 q 414 108 416 81 q 417 54 420 34 q 422 14 424 0 l 424 0 l 278 0 q 275 23 271 50 q 267 77 265 82 l 265 82 q 255 46 228 18 q 200 -10 154 -10 m 212 100 l 212 100 q 222 100 231 104 q 239 108 246 115 q 253 122 258 129 l 258 129 l 258 287 q 238 275 221 263 q 204 250 192 235 q 180 220 174 203 q 167 185 167 163 l 167 163 q 167 134 179 117 q 191 100 212 100 m 412 662 l 282 662 l 282 810 l 412 810 l 412 662 m 194 662 l 64 662 l 64 810 l 194 810 l 194 662"},"ạ":{"x_min":20,"x_max":424,"ha":460,"o":"m 154 -10 l 154 -10 q 110 -10 80 11 q 50 32 35 65 q 20 97 20 131 l 20 131 q 20 185 42 222 q 63 259 98 284 q 133 309 175 327 q 217 344 258 358 l 258 358 l 258 416 q 258 431 255 443 q 252 454 245 461 q 238 467 224 467 l 224 467 q 210 467 203 461 q 195 455 192 445 q 189 434 188 421 l 188 421 l 184 379 l 32 385 q 37 489 88 539 q 138 588 239 588 l 239 588 q 327 588 371 540 q 414 491 414 414 l 414 414 l 414 144 q 414 108 416 81 q 417 54 420 34 q 422 14 424 0 l 424 0 l 278 0 q 275 23 271 50 q 267 77 265 82 l 265 82 q 255 46 228 18 q 200 -10 154 -10 m 212 100 l 212 100 q 222 100 231 104 q 239 108 246 115 q 253 122 258 129 l 258 129 l 258 287 q 238 275 221 263 q 204 250 192 235 q 180 220 174 203 q 167 185 167 163 l 167 163 q 167 134 179 117 q 191 100 212 100 m 293 -208 l 154 -208 l 154 -70 l 293 -70 l 293 -208"},"à":{"x_min":20,"x_max":424,"ha":460,"o":"m 154 -10 l 154 -10 q 110 -10 80 11 q 50 32 35 65 q 20 97 20 131 l 20 131 q 20 185 42 222 q 63 259 98 284 q 133 309 175 327 q 217 344 258 358 l 258 358 l 258 416 q 258 431 255 443 q 252 454 245 461 q 238 467 224 467 l 224 467 q 210 467 203 461 q 195 455 192 445 q 189 434 188 421 l 188 421 l 184 379 l 32 385 q 37 489 88 539 q 138 588 239 588 l 239 588 q 327 588 371 540 q 414 491 414 414 l 414 414 l 414 144 q 414 108 416 81 q 417 54 420 34 q 422 14 424 0 l 424 0 l 278 0 q 275 23 271 50 q 267 77 265 82 l 265 82 q 255 46 228 18 q 200 -10 154 -10 m 212 100 l 212 100 q 222 100 231 104 q 239 108 246 115 q 253 122 258 129 l 258 129 l 258 287 q 238 275 221 263 q 204 250 192 235 q 180 220 174 203 q 167 185 167 163 l 167 163 q 167 134 179 117 q 191 100 212 100 m 292 642 l 190 642 l 63 843 l 231 843 l 292 642"},"ả":{"x_min":20,"x_max":424,"ha":460,"o":"m 154 -10 l 154 -10 q 110 -10 80 11 q 50 32 35 65 q 20 97 20 131 l 20 131 q 20 185 42 222 q 63 259 98 284 q 133 309 175 327 q 217 344 258 358 l 258 358 l 258 416 q 258 431 255 443 q 252 454 245 461 q 238 467 224 467 l 224 467 q 210 467 203 461 q 195 455 192 445 q 189 434 188 421 l 188 421 l 184 379 l 32 385 q 37 489 88 539 q 138 588 239 588 l 239 588 q 327 588 371 540 q 414 491 414 414 l 414 414 l 414 144 q 414 108 416 81 q 417 54 420 34 q 422 14 424 0 l 424 0 l 278 0 q 275 23 271 50 q 267 77 265 82 l 265 82 q 255 46 228 18 q 200 -10 154 -10 m 212 100 l 212 100 q 222 100 231 104 q 239 108 246 115 q 253 122 258 129 l 258 129 l 258 287 q 238 275 221 263 q 204 250 192 235 q 180 220 174 203 q 167 185 167 163 l 167 163 q 167 134 179 117 q 191 100 212 100 m 238 627 l 238 627 l 183 679 q 213 693 234 707 q 255 720 255 743 l 255 743 q 255 763 239 771 q 223 778 198 778 l 198 778 q 183 778 166 776 q 149 774 136 771 l 136 771 l 136 839 q 184 852 238 852 l 238 852 q 270 852 298 842 q 326 832 343 811 q 360 789 360 753 l 360 753 q 360 718 343 694 q 326 670 299 655 q 271 639 238 627"},"ȃ":{"x_min":20,"x_max":424,"ha":460,"o":"m 154 -10 l 154 -10 q 110 -10 80 11 q 50 32 35 65 q 20 97 20 131 l 20 131 q 20 185 42 222 q 63 259 98 284 q 133 309 175 327 q 217 344 258 358 l 258 358 l 258 416 q 258 431 255 443 q 252 454 245 461 q 238 467 224 467 l 224 467 q 210 467 203 461 q 195 455 192 445 q 189 434 188 421 l 188 421 l 184 379 l 32 385 q 37 489 88 539 q 138 588 239 588 l 239 588 q 327 588 371 540 q 414 491 414 414 l 414 414 l 414 144 q 414 108 416 81 q 417 54 420 34 q 422 14 424 0 l 424 0 l 278 0 q 275 23 271 50 q 267 77 265 82 l 265 82 q 255 46 228 18 q 200 -10 154 -10 m 212 100 l 212 100 q 222 100 231 104 q 239 108 246 115 q 253 122 258 129 l 258 129 l 258 287 q 238 275 221 263 q 204 250 192 235 q 180 220 174 203 q 167 185 167 163 l 167 163 q 167 134 179 117 q 191 100 212 100 m 173 649 l 81 649 q 81 701 100 736 q 119 771 155 790 q 190 808 238 808 l 238 808 q 287 808 322 790 q 357 771 376 736 q 395 701 395 649 l 395 649 l 303 649 q 303 688 288 707 q 273 725 238 725 l 238 725 q 203 725 188 707 q 173 689 173 649 l 173 649"},"ā":{"x_min":20,"x_max":424,"ha":460,"o":"m 154 -10 l 154 -10 q 110 -10 80 11 q 50 32 35 65 q 20 97 20 131 l 20 131 q 20 185 42 222 q 63 259 98 284 q 133 309 175 327 q 217 344 258 358 l 258 358 l 258 416 q 258 431 255 443 q 252 454 245 461 q 238 467 224 467 l 224 467 q 210 467 203 461 q 195 455 192 445 q 189 434 188 421 l 188 421 l 184 379 l 32 385 q 37 489 88 539 q 138 588 239 588 l 239 588 q 327 588 371 540 q 414 491 414 414 l 414 414 l 414 144 q 414 108 416 81 q 417 54 420 34 q 422 14 424 0 l 424 0 l 278 0 q 275 23 271 50 q 267 77 265 82 l 265 82 q 255 46 228 18 q 200 -10 154 -10 m 212 100 l 212 100 q 222 100 231 104 q 239 108 246 115 q 253 122 258 129 l 258 129 l 258 287 q 238 275 221 263 q 204 250 192 235 q 180 220 174 203 q 167 185 167 163 l 167 163 q 167 134 179 117 q 191 100 212 100 m 376 666 l 100 666 l 100 743 l 376 743 l 376 666"},"ą":{"x_min":20,"x_max":451,"ha":460,"o":"m 154 -10 l 154 -10 q 110 -10 80 11 q 50 32 35 65 q 20 97 20 131 l 20 131 q 20 185 42 222 q 63 259 98 284 q 133 309 175 327 q 217 344 258 358 l 258 358 l 258 416 q 258 431 255 443 q 252 454 245 461 q 238 467 224 467 l 224 467 q 210 467 203 461 q 195 455 192 445 q 189 434 188 421 l 188 421 l 184 379 l 32 385 q 37 489 88 539 q 138 588 239 588 l 239 588 q 327 588 371 540 q 414 491 414 414 l 414 414 l 414 144 q 414 108 416 81 q 417 54 420 34 q 422 14 424 0 l 424 0 l 278 0 q 275 23 271 50 q 267 77 265 82 l 265 82 q 255 46 228 18 q 200 -10 154 -10 m 212 100 l 212 100 q 222 100 231 104 q 239 108 246 115 q 253 122 258 129 l 258 129 l 258 287 q 238 275 221 263 q 204 250 192 235 q 180 220 174 203 q 167 185 167 163 l 167 163 q 167 134 179 117 q 191 100 212 100 m 402 -260 l 402 -260 q 377 -260 349 -256 q 321 -253 297 -242 q 273 -231 258 -209 q 243 -188 243 -152 l 243 -152 q 243 -126 254 -97 q 265 -69 283 -43 q 301 -18 321 0 l 321 0 l 394 0 q 385 -17 377 -37 q 368 -58 363 -79 q 358 -100 358 -121 l 358 -121 q 358 -155 378 -167 q 397 -180 422 -180 l 422 -180 q 430 -180 438 -179 q 446 -179 451 -178 l 451 -178 l 435 -257 q 429 -258 421 -259 q 412 -260 402 -260"},"å":{"x_min":20,"x_max":424,"ha":460,"o":"m 154 -10 l 154 -10 q 110 -10 80 11 q 50 32 35 65 q 20 97 20 131 l 20 131 q 20 185 42 222 q 63 259 98 284 q 133 309 175 327 q 217 344 258 358 l 258 358 l 258 416 q 258 431 255 443 q 252 454 245 461 q 238 467 224 467 l 224 467 q 210 467 203 461 q 195 455 192 445 q 189 434 188 421 l 188 421 l 184 379 l 32 385 q 37 489 88 539 q 138 588 239 588 l 239 588 q 327 588 371 540 q 414 491 414 414 l 414 414 l 414 144 q 414 108 416 81 q 417 54 420 34 q 422 14 424 0 l 424 0 l 278 0 q 275 23 271 50 q 267 77 265 82 l 265 82 q 255 46 228 18 q 200 -10 154 -10 m 212 100 l 212 100 q 222 100 231 104 q 239 108 246 115 q 253 122 258 129 l 258 129 l 258 287 q 238 275 221 263 q 204 250 192 235 q 180 220 174 203 q 167 185 167 163 l 167 163 q 167 134 179 117 q 191 100 212 100 m 237 622 l 237 622 q 190 622 156 650 q 121 677 121 731 l 121 731 q 121 786 156 814 q 190 841 237 841 l 237 841 q 284 841 320 813 q 355 785 355 731 l 355 731 q 355 677 320 650 q 285 622 237 622 m 237 679 l 237 679 q 262 679 275 695 q 287 710 287 731 l 287 731 q 287 753 275 769 q 262 784 237 784 l 237 784 q 213 784 201 769 q 188 753 188 731 l 188 731 q 188 710 201 695 q 213 679 237 679"},"ǻ":{"x_min":20,"x_max":424,"ha":460,"o":"m 154 -10 l 154 -10 q 110 -10 80 11 q 50 32 35 65 q 20 97 20 131 l 20 131 q 20 185 42 222 q 63 259 98 284 q 133 309 175 327 q 217 344 258 358 l 258 358 l 258 416 q 258 431 255 443 q 252 454 245 461 q 238 467 224 467 l 224 467 q 210 467 203 461 q 195 455 192 445 q 189 434 188 421 l 188 421 l 184 379 l 32 385 q 37 489 88 539 q 138 588 239 588 l 239 588 q 327 588 371 540 q 414 491 414 414 l 414 414 l 414 144 q 414 108 416 81 q 417 54 420 34 q 422 14 424 0 l 424 0 l 278 0 q 275 23 271 50 q 267 77 265 82 l 265 82 q 255 46 228 18 q 200 -10 154 -10 m 212 100 l 212 100 q 222 100 231 104 q 239 108 246 115 q 253 122 258 129 l 258 129 l 258 287 q 238 275 221 263 q 204 250 192 235 q 180 220 174 203 q 167 185 167 163 l 167 163 q 167 134 179 117 q 191 100 212 100 m 237 622 l 237 622 q 190 622 156 650 q 121 677 121 731 l 121 731 q 121 786 156 814 q 190 841 237 841 l 237 841 q 284 841 320 813 q 355 785 355 731 l 355 731 q 355 677 320 650 q 285 622 237 622 m 237 679 l 237 679 q 262 679 275 695 q 287 710 287 731 l 287 731 q 287 753 275 769 q 262 784 237 784 l 237 784 q 213 784 201 769 q 188 753 188 731 l 188 731 q 188 710 201 695 q 213 679 237 679 m 287 885 l 184 885 l 247 1086 l 413 1086 l 287 885"},"ã":{"x_min":20,"x_max":424,"ha":460,"o":"m 154 -10 l 154 -10 q 110 -10 80 11 q 50 32 35 65 q 20 97 20 131 l 20 131 q 20 185 42 222 q 63 259 98 284 q 133 309 175 327 q 217 344 258 358 l 258 358 l 258 416 q 258 431 255 443 q 252 454 245 461 q 238 467 224 467 l 224 467 q 210 467 203 461 q 195 455 192 445 q 189 434 188 421 l 188 421 l 184 379 l 32 385 q 37 489 88 539 q 138 588 239 588 l 239 588 q 327 588 371 540 q 414 491 414 414 l 414 414 l 414 144 q 414 108 416 81 q 417 54 420 34 q 422 14 424 0 l 424 0 l 278 0 q 275 23 271 50 q 267 77 265 82 l 265 82 q 255 46 228 18 q 200 -10 154 -10 m 212 100 l 212 100 q 222 100 231 104 q 239 108 246 115 q 253 122 258 129 l 258 129 l 258 287 q 238 275 221 263 q 204 250 192 235 q 180 220 174 203 q 167 185 167 163 l 167 163 q 167 134 179 117 q 191 100 212 100 m 319 668 l 319 668 q 294 668 273 680 q 252 692 233 704 q 214 715 194 715 l 194 715 q 172 715 165 703 q 158 690 158 674 l 158 674 l 80 674 q 80 715 88 747 q 96 779 116 798 q 136 816 170 816 l 170 816 q 195 816 215 805 q 234 794 253 783 q 272 772 293 772 l 293 772 q 310 772 317 783 q 324 794 324 810 l 324 810 l 396 810 q 396 778 392 745 q 387 712 371 690 q 354 668 319 668"},"æ":{"x_min":36,"x_max":640,"ha":678,"o":"m 189 -12 l 189 -12 q 119 -12 78 27 q 36 66 36 133 l 36 133 q 36 190 60 226 q 84 262 124 283 q 163 304 209 315 l 209 315 l 269 329 l 269 410 q 269 442 261 455 q 252 467 235 467 l 235 467 q 222 467 214 460 q 205 452 201 434 q 196 416 196 382 l 196 382 l 38 387 q 38 484 82 536 q 125 588 219 588 l 219 588 q 280 588 314 563 q 347 538 352 503 l 352 503 l 335 503 q 338 527 358 546 q 378 565 411 577 q 443 588 482 588 l 482 588 q 563 588 602 549 q 640 509 640 449 l 640 449 q 640 401 621 371 q 601 341 567 324 q 533 307 490 297 l 490 297 l 424 282 l 424 168 q 424 138 430 121 q 435 104 455 104 l 455 104 q 469 104 475 112 q 481 119 483 133 q 485 147 485 164 l 485 164 l 485 202 l 635 202 l 635 155 q 635 102 617 65 q 598 27 562 8 q 525 -12 471 -12 l 471 -12 q 442 -12 413 -1 q 384 9 363 31 q 342 52 335 83 l 335 83 q 324 52 301 31 q 278 10 249 -1 q 220 -12 189 -12 m 225 98 l 225 98 q 239 98 249 105 q 258 111 264 125 q 269 138 269 160 l 269 160 l 269 257 l 238 244 q 217 235 204 223 q 191 210 185 195 q 179 179 179 158 l 179 158 q 179 141 184 128 q 189 114 199 106 q 209 98 225 98 m 423 414 l 423 356 l 439 359 q 473 366 489 381 q 505 396 505 424 l 505 424 q 505 444 496 457 q 486 470 466 470 l 466 470 q 451 470 442 464 q 432 457 428 445 q 423 433 423 414 l 423 414"},"ǽ":{"x_min":36,"x_max":640,"ha":678,"o":"m 189 -12 l 189 -12 q 119 -12 78 27 q 36 66 36 133 l 36 133 q 36 190 60 226 q 84 262 124 283 q 163 304 209 315 l 209 315 l 269 329 l 269 410 q 269 442 261 455 q 252 467 235 467 l 235 467 q 222 467 214 460 q 205 452 201 434 q 196 416 196 382 l 196 382 l 38 387 q 38 484 82 536 q 125 588 219 588 l 219 588 q 280 588 314 563 q 347 538 352 503 l 352 503 l 335 503 q 338 527 358 546 q 378 565 411 577 q 443 588 482 588 l 482 588 q 563 588 602 549 q 640 509 640 449 l 640 449 q 640 401 621 371 q 601 341 567 324 q 533 307 490 297 l 490 297 l 424 282 l 424 168 q 424 138 430 121 q 435 104 455 104 l 455 104 q 469 104 475 112 q 481 119 483 133 q 485 147 485 164 l 485 164 l 485 202 l 635 202 l 635 155 q 635 102 617 65 q 598 27 562 8 q 525 -12 471 -12 l 471 -12 q 442 -12 413 -1 q 384 9 363 31 q 342 52 335 83 l 335 83 q 324 52 301 31 q 278 10 249 -1 q 220 -12 189 -12 m 225 98 l 225 98 q 239 98 249 105 q 258 111 264 125 q 269 138 269 160 l 269 160 l 269 257 l 238 244 q 217 235 204 223 q 191 210 185 195 q 179 179 179 158 l 179 158 q 179 141 184 128 q 189 114 199 106 q 209 98 225 98 m 423 414 l 423 356 l 439 359 q 473 366 489 381 q 505 396 505 424 l 505 424 q 505 444 496 457 q 486 470 466 470 l 466 470 q 451 470 442 464 q 432 457 428 445 q 423 433 423 414 l 423 414 m 390 642 l 287 642 l 350 843 l 516 843 l 390 642"},"b":{"x_min":51,"x_max":464,"ha":506,"o":"m 338 -10 l 338 -10 q 306 -10 275 5 q 243 19 214 44 l 214 44 l 214 0 l 51 0 l 51 810 l 214 810 l 214 536 q 244 562 277 575 q 309 588 340 588 l 340 588 q 373 588 397 575 q 420 562 435 539 q 450 515 457 484 q 464 453 464 418 l 464 418 l 464 169 q 464 115 450 75 q 435 35 407 13 q 379 -10 338 -10 m 259 95 l 259 95 q 275 95 284 104 q 293 113 297 128 q 301 142 301 160 l 301 160 l 301 430 q 301 447 297 461 q 293 474 285 482 q 276 490 261 490 l 261 490 q 248 490 237 485 q 225 479 214 471 l 214 471 l 214 111 q 225 104 237 100 q 248 95 259 95"},"ḃ":{"x_min":51,"x_max":464,"ha":506,"o":"m 338 -10 l 338 -10 q 306 -10 275 5 q 243 19 214 44 l 214 44 l 214 0 l 51 0 l 51 810 l 214 810 l 214 536 q 244 562 277 575 q 309 588 340 588 l 340 588 q 373 588 397 575 q 420 562 435 539 q 450 515 457 484 q 464 453 464 418 l 464 418 l 464 169 q 464 115 450 75 q 435 35 407 13 q 379 -10 338 -10 m 259 95 l 259 95 q 275 95 284 104 q 293 113 297 128 q 301 142 301 160 l 301 160 l 301 430 q 301 447 297 461 q 293 474 285 482 q 276 490 261 490 l 261 490 q 248 490 237 485 q 225 479 214 471 l 214 471 l 214 111 q 225 104 237 100 q 248 95 259 95 m 210 884 l 56 884 l 56 1038 l 210 1038 l 210 884"},"c":{"x_min":39,"x_max":434,"ha":468,"o":"m 239 -10 l 239 -10 q 176 -10 132 13 q 87 36 63 79 q 39 122 39 183 l 39 183 l 39 395 q 39 457 63 500 q 87 543 132 566 q 176 588 239 588 l 239 588 q 301 588 345 569 q 388 550 411 512 q 434 473 434 414 l 434 414 l 434 353 l 277 353 l 277 419 q 277 442 273 455 q 268 467 260 472 q 251 477 239 477 l 239 477 q 227 477 219 471 q 211 464 207 450 q 203 435 203 409 l 203 409 l 203 169 q 203 130 213 116 q 222 102 240 102 l 240 102 q 253 102 261 108 q 269 113 273 126 q 277 138 277 159 l 277 159 l 277 236 l 434 236 l 434 166 q 434 108 411 69 q 387 29 344 10 q 300 -10 239 -10"},"ć":{"x_min":39,"x_max":434,"ha":468,"o":"m 239 -10 l 239 -10 q 176 -10 132 13 q 87 36 63 79 q 39 122 39 183 l 39 183 l 39 395 q 39 457 63 500 q 87 543 132 566 q 176 588 239 588 l 239 588 q 301 588 345 569 q 388 550 411 512 q 434 473 434 414 l 434 414 l 434 353 l 277 353 l 277 419 q 277 442 273 455 q 268 467 260 472 q 251 477 239 477 l 239 477 q 227 477 219 471 q 211 464 207 450 q 203 435 203 409 l 203 409 l 203 169 q 203 130 213 116 q 222 102 240 102 l 240 102 q 253 102 261 108 q 269 113 273 126 q 277 138 277 159 l 277 159 l 277 236 l 434 236 l 434 166 q 434 108 411 69 q 387 29 344 10 q 300 -10 239 -10 m 284 642 l 181 642 l 244 843 l 410 843 l 284 642"},"č":{"x_min":39,"x_max":434,"ha":468,"o":"m 239 -10 l 239 -10 q 176 -10 132 13 q 87 36 63 79 q 39 122 39 183 l 39 183 l 39 395 q 39 457 63 500 q 87 543 132 566 q 176 588 239 588 l 239 588 q 301 588 345 569 q 388 550 411 512 q 434 473 434 414 l 434 414 l 434 353 l 277 353 l 277 419 q 277 442 273 455 q 268 467 260 472 q 251 477 239 477 l 239 477 q 227 477 219 471 q 211 464 207 450 q 203 435 203 409 l 203 409 l 203 169 q 203 130 213 116 q 222 102 240 102 l 240 102 q 253 102 261 108 q 269 113 273 126 q 277 138 277 159 l 277 159 l 277 236 l 434 236 l 434 166 q 434 108 411 69 q 387 29 344 10 q 300 -10 239 -10 m 314 639 l 156 639 l 68 826 l 184 826 l 235 716 l 286 826 l 402 826 l 314 639"},"ç":{"x_min":39,"x_max":434,"ha":468,"o":"m 239 -10 l 239 -10 q 176 -10 132 13 q 87 36 63 79 q 39 122 39 183 l 39 183 l 39 395 q 39 457 63 500 q 87 543 132 566 q 176 588 239 588 l 239 588 q 301 588 345 569 q 388 550 411 512 q 434 473 434 414 l 434 414 l 434 353 l 277 353 l 277 419 q 277 442 273 455 q 268 467 260 472 q 251 477 239 477 l 239 477 q 227 477 219 471 q 211 464 207 450 q 203 435 203 409 l 203 409 l 203 169 q 203 130 213 116 q 222 102 240 102 l 240 102 q 253 102 261 108 q 269 113 273 126 q 277 138 277 159 l 277 159 l 277 236 l 434 236 l 434 166 q 434 108 411 69 q 387 29 344 10 q 300 -10 239 -10 m 255 -277 l 255 -277 q 236 -277 217 -274 q 197 -271 179 -265 l 179 -265 l 179 -195 q 190 -198 205 -200 q 220 -203 236 -203 l 236 -203 q 262 -203 280 -195 q 298 -187 298 -168 l 298 -168 q 298 -149 284 -138 q 269 -127 248 -122 q 227 -117 206 -116 l 206 -116 l 206 0 l 265 0 l 265 -66 q 327 -66 365 -91 q 402 -117 402 -170 l 402 -170 q 402 -208 382 -232 q 361 -256 328 -266 q 294 -277 255 -277"},"ĉ":{"x_min":39,"x_max":434,"ha":468,"o":"m 239 -10 l 239 -10 q 176 -10 132 13 q 87 36 63 79 q 39 122 39 183 l 39 183 l 39 395 q 39 457 63 500 q 87 543 132 566 q 176 588 239 588 l 239 588 q 301 588 345 569 q 388 550 411 512 q 434 473 434 414 l 434 414 l 434 353 l 277 353 l 277 419 q 277 442 273 455 q 268 467 260 472 q 251 477 239 477 l 239 477 q 227 477 219 471 q 211 464 207 450 q 203 435 203 409 l 203 409 l 203 169 q 203 130 213 116 q 222 102 240 102 l 240 102 q 253 102 261 108 q 269 113 273 126 q 277 138 277 159 l 277 159 l 277 236 l 434 236 l 434 166 q 434 108 411 69 q 387 29 344 10 q 300 -10 239 -10 m 191 649 l 72 649 l 167 841 l 300 841 l 398 649 l 278 649 l 234 768 l 191 649"},"ċ":{"x_min":39,"x_max":434,"ha":468,"o":"m 239 -10 l 239 -10 q 176 -10 132 13 q 87 36 63 79 q 39 122 39 183 l 39 183 l 39 395 q 39 457 63 500 q 87 543 132 566 q 176 588 239 588 l 239 588 q 301 588 345 569 q 388 550 411 512 q 434 473 434 414 l 434 414 l 434 353 l 277 353 l 277 419 q 277 442 273 455 q 268 467 260 472 q 251 477 239 477 l 239 477 q 227 477 219 471 q 211 464 207 450 q 203 435 203 409 l 203 409 l 203 169 q 203 130 213 116 q 222 102 240 102 l 240 102 q 253 102 261 108 q 269 113 273 126 q 277 138 277 159 l 277 159 l 277 236 l 434 236 l 434 166 q 434 108 411 69 q 387 29 344 10 q 300 -10 239 -10 m 312 652 l 158 652 l 158 806 l 312 806 l 312 652"},"d":{"x_min":42,"x_max":453,"ha":503,"o":"m 176 -10 l 176 -10 q 112 -10 77 35 q 42 80 42 168 l 42 168 l 42 407 q 42 461 57 502 q 72 542 102 565 q 132 588 176 588 l 176 588 q 208 588 237 576 q 266 563 290 542 l 290 542 l 290 810 l 453 810 l 453 0 l 290 0 l 290 45 q 263 19 234 5 q 205 -10 176 -10 m 247 94 l 247 94 q 255 94 267 98 q 278 102 290 109 l 290 109 l 290 474 q 280 479 269 483 q 258 487 248 487 l 248 487 q 226 487 216 469 q 206 450 206 424 l 206 424 l 206 158 q 206 140 210 126 q 214 111 223 103 q 232 94 247 94"},"ď":{"x_min":42,"x_max":657,"ha":640,"o":"m 176 -10 l 176 -10 q 112 -10 77 35 q 42 80 42 168 l 42 168 l 42 407 q 42 461 57 502 q 72 542 102 565 q 132 588 176 588 l 176 588 q 208 588 237 576 q 266 563 290 542 l 290 542 l 290 810 l 453 810 l 453 0 l 290 0 l 290 45 q 263 19 234 5 q 205 -10 176 -10 m 247 94 l 247 94 q 255 94 267 98 q 278 102 290 109 l 290 109 l 290 474 q 280 479 269 483 q 258 487 248 487 l 248 487 q 226 487 216 469 q 206 450 206 424 l 206 424 l 206 158 q 206 140 210 126 q 214 111 223 103 q 232 94 247 94 m 528 517 l 528 517 l 518 569 q 544 576 567 595 q 589 614 589 657 l 589 657 l 503 657 l 503 811 l 657 811 l 657 677 q 657 603 625 563 q 593 522 528 517"},"đ":{"x_min":39,"x_max":497,"ha":500,"o":"m 173 -10 l 173 -10 q 109 -10 74 35 q 39 80 39 168 l 39 168 l 39 407 q 39 461 54 502 q 69 542 99 565 q 129 588 173 588 l 173 588 q 205 588 233 576 q 261 563 285 542 l 285 542 l 285 681 l 151 681 l 151 747 l 285 747 l 285 810 l 448 810 l 448 747 l 497 747 l 497 681 l 448 681 l 448 0 l 285 0 l 285 45 q 260 19 232 5 q 203 -10 173 -10 m 244 94 l 244 94 q 252 94 263 98 q 274 102 285 109 l 285 109 l 285 474 q 275 479 265 483 q 255 487 245 487 l 245 487 q 223 487 213 469 q 203 450 203 424 l 203 424 l 203 158 q 203 140 207 126 q 211 111 220 103 q 229 94 244 94"},"ḋ":{"x_min":42,"x_max":453,"ha":503,"o":"m 176 -10 l 176 -10 q 112 -10 77 35 q 42 80 42 168 l 42 168 l 42 407 q 42 461 57 502 q 72 542 102 565 q 132 588 176 588 l 176 588 q 208 588 237 576 q 266 563 290 542 l 290 542 l 290 810 l 453 810 l 453 0 l 290 0 l 290 45 q 263 19 234 5 q 205 -10 176 -10 m 247 94 l 247 94 q 255 94 267 98 q 278 102 290 109 l 290 109 l 290 474 q 280 479 269 483 q 258 487 248 487 l 248 487 q 226 487 216 469 q 206 450 206 424 l 206 424 l 206 158 q 206 140 210 126 q 214 111 223 103 q 232 94 247 94 m 448 884 l 294 884 l 294 1038 l 448 1038 l 448 884"},"ǳ":{"x_min":42,"x_max":869,"ha":895,"o":"m 176 -10 l 176 -10 q 112 -10 77 35 q 42 80 42 168 l 42 168 l 42 407 q 42 461 57 502 q 72 542 102 565 q 132 588 176 588 l 176 588 q 208 588 237 576 q 266 563 290 542 l 290 542 l 290 810 l 453 810 l 453 0 l 290 0 l 290 45 q 263 19 234 5 q 205 -10 176 -10 m 247 94 l 247 94 q 255 94 267 98 q 278 102 290 109 l 290 109 l 290 474 q 280 479 269 483 q 258 487 248 487 l 248 487 q 226 487 216 469 q 206 450 206 424 l 206 424 l 206 158 q 206 140 210 126 q 214 111 223 103 q 232 94 247 94 m 869 0 l 538 0 l 538 105 l 697 459 l 550 459 l 550 578 l 867 578 l 867 479 l 706 119 l 869 119 l 869 0"},"ǆ":{"x_min":42,"x_max":869,"ha":895,"o":"m 176 -10 l 176 -10 q 112 -10 77 35 q 42 80 42 168 l 42 168 l 42 407 q 42 461 57 502 q 72 542 102 565 q 132 588 176 588 l 176 588 q 208 588 237 576 q 266 563 290 542 l 290 542 l 290 810 l 453 810 l 453 0 l 290 0 l 290 45 q 263 19 234 5 q 205 -10 176 -10 m 247 94 l 247 94 q 255 94 267 98 q 278 102 290 109 l 290 109 l 290 474 q 280 479 269 483 q 258 487 248 487 l 248 487 q 226 487 216 469 q 206 450 206 424 l 206 424 l 206 158 q 206 140 210 126 q 214 111 223 103 q 232 94 247 94 m 869 0 l 538 0 l 538 105 l 697 459 l 550 459 l 550 578 l 867 578 l 867 479 l 706 119 l 869 119 l 869 0 m 778 639 l 620 639 l 532 826 l 648 826 l 699 716 l 750 826 l 866 826 l 778 639"},"ð":{"x_min":54,"x_max":477,"ha":520,"o":"m 262 -14 l 262 -14 q 205 -14 158 9 q 111 32 83 82 q 54 131 54 211 l 54 211 l 54 380 q 54 443 78 488 q 102 533 142 558 q 182 582 230 582 l 230 582 q 253 582 273 577 q 292 572 306 564 l 306 564 q 305 603 298 632 q 291 661 282 673 l 282 673 l 195 627 l 177 668 l 256 710 q 246 724 216 733 q 185 742 136 742 l 136 742 l 143 844 q 229 844 286 827 q 342 809 373 776 l 373 776 l 459 823 l 477 782 l 402 741 q 416 717 432 679 q 447 641 458 584 q 469 526 469 443 l 469 443 l 469 215 q 469 125 441 76 q 413 26 366 6 q 319 -14 262 -14 m 266 94 l 266 94 q 282 94 291 104 q 299 113 303 131 q 306 149 306 173 l 306 173 q 306 210 306 247 q 306 283 306 320 q 306 356 306 393 q 306 429 306 465 l 306 465 q 298 470 289 474 q 280 477 269 477 l 269 477 q 246 477 234 460 q 222 443 218 403 q 213 362 213 289 l 213 289 q 213 217 216 174 q 219 131 231 113 q 242 94 266 94"},"e":{"x_min":39,"x_max":432,"ha":470,"o":"m 240 -10 l 240 -10 q 177 -10 132 13 q 87 35 63 79 q 39 122 39 183 l 39 183 l 39 395 q 39 457 63 500 q 87 543 133 566 q 178 588 240 588 l 240 588 q 304 588 347 566 q 389 544 411 501 q 432 458 432 395 l 432 395 l 432 279 l 200 279 l 200 168 q 200 146 205 132 q 210 118 219 112 q 228 106 240 106 l 240 106 q 252 106 262 112 q 271 117 277 129 q 282 141 282 162 l 282 162 l 282 223 l 432 223 l 432 167 q 432 79 381 35 q 330 -10 240 -10 m 200 404 l 200 355 l 282 355 l 282 413 q 282 436 277 449 q 271 462 262 467 q 252 472 239 472 l 239 472 q 227 472 219 466 q 210 460 205 446 q 200 431 200 404 l 200 404"},"é":{"x_min":39,"x_max":432,"ha":470,"o":"m 240 -10 l 240 -10 q 177 -10 132 13 q 87 35 63 79 q 39 122 39 183 l 39 183 l 39 395 q 39 457 63 500 q 87 543 133 566 q 178 588 240 588 l 240 588 q 304 588 347 566 q 389 544 411 501 q 432 458 432 395 l 432 395 l 432 279 l 200 279 l 200 168 q 200 146 205 132 q 210 118 219 112 q 228 106 240 106 l 240 106 q 252 106 262 112 q 271 117 277 129 q 282 141 282 162 l 282 162 l 282 223 l 432 223 l 432 167 q 432 79 381 35 q 330 -10 240 -10 m 200 404 l 200 355 l 282 355 l 282 413 q 282 436 277 449 q 271 462 262 467 q 252 472 239 472 l 239 472 q 227 472 219 466 q 210 460 205 446 q 200 431 200 404 l 200 404 m 287 642 l 184 642 l 247 843 l 413 843 l 287 642"},"ĕ":{"x_min":39,"x_max":432,"ha":470,"o":"m 240 -10 l 240 -10 q 177 -10 132 13 q 87 35 63 79 q 39 122 39 183 l 39 183 l 39 395 q 39 457 63 500 q 87 543 133 566 q 178 588 240 588 l 240 588 q 304 588 347 566 q 389 544 411 501 q 432 458 432 395 l 432 395 l 432 279 l 200 279 l 200 168 q 200 146 205 132 q 210 118 219 112 q 228 106 240 106 l 240 106 q 252 106 262 112 q 271 117 277 129 q 282 141 282 162 l 282 162 l 282 223 l 432 223 l 432 167 q 432 79 381 35 q 330 -10 240 -10 m 200 404 l 200 355 l 282 355 l 282 413 q 282 436 277 449 q 271 462 262 467 q 252 472 239 472 l 239 472 q 227 472 219 466 q 210 460 205 446 q 200 431 200 404 l 200 404 m 238 643 l 238 643 q 167 643 124 683 q 81 723 81 799 l 81 799 l 173 799 q 173 762 188 744 q 202 726 238 726 l 238 726 q 273 726 288 745 q 303 763 303 799 l 303 799 l 395 799 q 395 723 352 683 q 309 643 238 643"},"ě":{"x_min":39,"x_max":432,"ha":470,"o":"m 240 -10 l 240 -10 q 177 -10 132 13 q 87 35 63 79 q 39 122 39 183 l 39 183 l 39 395 q 39 457 63 500 q 87 543 133 566 q 178 588 240 588 l 240 588 q 304 588 347 566 q 389 544 411 501 q 432 458 432 395 l 432 395 l 432 279 l 200 279 l 200 168 q 200 146 205 132 q 210 118 219 112 q 228 106 240 106 l 240 106 q 252 106 262 112 q 271 117 277 129 q 282 141 282 162 l 282 162 l 282 223 l 432 223 l 432 167 q 432 79 381 35 q 330 -10 240 -10 m 200 404 l 200 355 l 282 355 l 282 413 q 282 436 277 449 q 271 462 262 467 q 252 472 239 472 l 239 472 q 227 472 219 466 q 210 460 205 446 q 200 431 200 404 l 200 404 m 317 639 l 159 639 l 71 826 l 187 826 l 238 716 l 289 826 l 405 826 l 317 639"},"ê":{"x_min":39,"x_max":432,"ha":470,"o":"m 240 -10 l 240 -10 q 177 -10 132 13 q 87 35 63 79 q 39 122 39 183 l 39 183 l 39 395 q 39 457 63 500 q 87 543 133 566 q 178 588 240 588 l 240 588 q 304 588 347 566 q 389 544 411 501 q 432 458 432 395 l 432 395 l 432 279 l 200 279 l 200 168 q 200 146 205 132 q 210 118 219 112 q 228 106 240 106 l 240 106 q 252 106 262 112 q 271 117 277 129 q 282 141 282 162 l 282 162 l 282 223 l 432 223 l 432 167 q 432 79 381 35 q 330 -10 240 -10 m 200 404 l 200 355 l 282 355 l 282 413 q 282 436 277 449 q 271 462 262 467 q 252 472 239 472 l 239 472 q 227 472 219 466 q 210 460 205 446 q 200 431 200 404 l 200 404 m 194 649 l 75 649 l 170 841 l 303 841 l 401 649 l 281 649 l 237 768 l 194 649"},"ế":{"x_min":39,"x_max":547,"ha":470,"o":"m 240 -10 l 240 -10 q 177 -10 132 13 q 87 35 63 79 q 39 122 39 183 l 39 183 l 39 395 q 39 457 63 500 q 87 543 133 566 q 178 588 240 588 l 240 588 q 304 588 347 566 q 389 544 411 501 q 432 458 432 395 l 432 395 l 432 279 l 200 279 l 200 168 q 200 146 205 132 q 210 118 219 112 q 228 106 240 106 l 240 106 q 252 106 262 112 q 271 117 277 129 q 282 141 282 162 l 282 162 l 282 223 l 432 223 l 432 167 q 432 79 381 35 q 330 -10 240 -10 m 200 404 l 200 355 l 282 355 l 282 413 q 282 436 277 449 q 271 462 262 467 q 252 472 239 472 l 239 472 q 227 472 219 466 q 210 460 205 446 q 200 431 200 404 l 200 404 m 190 649 l 75 649 l 170 816 l 303 816 l 401 649 l 285 649 l 237 749 l 190 649 m 459 767 l 373 767 l 426 890 l 547 890 l 459 767"},"ệ":{"x_min":39,"x_max":432,"ha":470,"o":"m 240 -10 l 240 -10 q 177 -10 132 13 q 87 35 63 79 q 39 122 39 183 l 39 183 l 39 395 q 39 457 63 500 q 87 543 133 566 q 178 588 240 588 l 240 588 q 304 588 347 566 q 389 544 411 501 q 432 458 432 395 l 432 395 l 432 279 l 200 279 l 200 168 q 200 146 205 132 q 210 118 219 112 q 228 106 240 106 l 240 106 q 252 106 262 112 q 271 117 277 129 q 282 141 282 162 l 282 162 l 282 223 l 432 223 l 432 167 q 432 79 381 35 q 330 -10 240 -10 m 200 404 l 200 355 l 282 355 l 282 413 q 282 436 277 449 q 271 462 262 467 q 252 472 239 472 l 239 472 q 227 472 219 466 q 210 460 205 446 q 200 431 200 404 l 200 404 m 305 -208 l 166 -208 l 166 -70 l 305 -70 l 305 -208 m 190 649 l 75 649 l 170 816 l 303 816 l 401 649 l 285 649 l 237 749 l 190 649"},"ề":{"x_min":39,"x_max":489,"ha":470,"o":"m 240 -10 l 240 -10 q 177 -10 132 13 q 87 35 63 79 q 39 122 39 183 l 39 183 l 39 395 q 39 457 63 500 q 87 543 133 566 q 178 588 240 588 l 240 588 q 304 588 347 566 q 389 544 411 501 q 432 458 432 395 l 432 395 l 432 279 l 200 279 l 200 168 q 200 146 205 132 q 210 118 219 112 q 228 106 240 106 l 240 106 q 252 106 262 112 q 271 117 277 129 q 282 141 282 162 l 282 162 l 282 223 l 432 223 l 432 167 q 432 79 381 35 q 330 -10 240 -10 m 200 404 l 200 355 l 282 355 l 282 413 q 282 436 277 449 q 271 462 262 467 q 252 472 239 472 l 239 472 q 227 472 219 466 q 210 460 205 446 q 200 431 200 404 l 200 404 m 190 649 l 75 649 l 170 816 l 303 816 l 401 649 l 285 649 l 237 749 l 190 649 m 489 767 l 402 767 l 314 890 l 436 890 l 489 767"},"ể":{"x_min":39,"x_max":505,"ha":470,"o":"m 240 -10 l 240 -10 q 177 -10 132 13 q 87 35 63 79 q 39 122 39 183 l 39 183 l 39 395 q 39 457 63 500 q 87 543 133 566 q 178 588 240 588 l 240 588 q 304 588 347 566 q 389 544 411 501 q 432 458 432 395 l 432 395 l 432 279 l 200 279 l 200 168 q 200 146 205 132 q 210 118 219 112 q 228 106 240 106 l 240 106 q 252 106 262 112 q 271 117 277 129 q 282 141 282 162 l 282 162 l 282 223 l 432 223 l 432 167 q 432 79 381 35 q 330 -10 240 -10 m 200 404 l 200 355 l 282 355 l 282 413 q 282 436 277 449 q 271 462 262 467 q 252 472 239 472 l 239 472 q 227 472 219 466 q 210 460 205 446 q 200 431 200 404 l 200 404 m 414 741 l 414 741 l 368 790 q 385 804 395 818 q 405 831 405 850 l 405 850 q 405 869 393 880 q 380 890 359 890 l 359 890 q 343 890 331 887 q 318 884 308 880 l 308 880 l 308 948 q 328 956 348 960 q 368 964 390 964 l 390 964 q 440 964 473 940 q 505 915 505 865 l 505 865 q 505 817 478 789 q 450 761 414 741 m 190 649 l 75 649 l 170 816 l 303 816 l 401 649 l 285 649 l 237 749 l 190 649"},"ễ":{"x_min":39,"x_max":432,"ha":470,"o":"m 240 -10 l 240 -10 q 177 -10 132 13 q 87 35 63 79 q 39 122 39 183 l 39 183 l 39 395 q 39 457 63 500 q 87 543 133 566 q 178 588 240 588 l 240 588 q 304 588 347 566 q 389 544 411 501 q 432 458 432 395 l 432 395 l 432 279 l 200 279 l 200 168 q 200 146 205 132 q 210 118 219 112 q 228 106 240 106 l 240 106 q 252 106 262 112 q 271 117 277 129 q 282 141 282 162 l 282 162 l 282 223 l 432 223 l 432 167 q 432 79 381 35 q 330 -10 240 -10 m 200 404 l 200 355 l 282 355 l 282 413 q 282 436 277 449 q 271 462 262 467 q 252 472 239 472 l 239 472 q 227 472 219 466 q 210 460 205 446 q 200 431 200 404 l 200 404 m 190 649 l 75 649 l 170 816 l 303 816 l 401 649 l 285 649 l 237 749 l 190 649 m 319 865 l 319 865 q 294 865 273 877 q 252 889 233 901 q 214 912 194 912 l 194 912 q 172 912 165 900 q 158 887 158 871 l 158 871 l 80 871 q 80 912 88 944 q 96 976 116 995 q 136 1013 170 1013 l 170 1013 q 195 1013 215 1002 q 234 991 253 980 q 272 969 293 969 l 293 969 q 310 969 317 980 q 324 991 324 1007 l 324 1007 l 396 1007 q 396 975 392 942 q 387 909 371 887 q 354 865 319 865"},"ȅ":{"x_min":15,"x_max":432,"ha":470,"o":"m 240 -10 l 240 -10 q 177 -10 132 13 q 87 35 63 79 q 39 122 39 183 l 39 183 l 39 395 q 39 457 63 500 q 87 543 133 566 q 178 588 240 588 l 240 588 q 304 588 347 566 q 389 544 411 501 q 432 458 432 395 l 432 395 l 432 279 l 200 279 l 200 168 q 200 146 205 132 q 210 118 219 112 q 228 106 240 106 l 240 106 q 252 106 262 112 q 271 117 277 129 q 282 141 282 162 l 282 162 l 282 223 l 432 223 l 432 167 q 432 79 381 35 q 330 -10 240 -10 m 200 404 l 200 355 l 282 355 l 282 413 q 282 436 277 449 q 271 462 262 467 q 252 472 239 472 l 239 472 q 227 472 219 466 q 210 460 205 446 q 200 431 200 404 l 200 404 m 203 638 l 115 638 l 15 845 l 139 845 l 203 638 m 376 638 l 290 638 l 198 845 l 317 845 l 376 638"},"ë":{"x_min":39,"x_max":432,"ha":470,"o":"m 240 -10 l 240 -10 q 177 -10 132 13 q 87 35 63 79 q 39 122 39 183 l 39 183 l 39 395 q 39 457 63 500 q 87 543 133 566 q 178 588 240 588 l 240 588 q 304 588 347 566 q 389 544 411 501 q 432 458 432 395 l 432 395 l 432 279 l 200 279 l 200 168 q 200 146 205 132 q 210 118 219 112 q 228 106 240 106 l 240 106 q 252 106 262 112 q 271 117 277 129 q 282 141 282 162 l 282 162 l 282 223 l 432 223 l 432 167 q 432 79 381 35 q 330 -10 240 -10 m 200 404 l 200 355 l 282 355 l 282 413 q 282 436 277 449 q 271 462 262 467 q 252 472 239 472 l 239 472 q 227 472 219 466 q 210 460 205 446 q 200 431 200 404 l 200 404 m 412 662 l 282 662 l 282 810 l 412 810 l 412 662 m 194 662 l 64 662 l 64 810 l 194 810 l 194 662"},"ė":{"x_min":39,"x_max":432,"ha":470,"o":"m 240 -10 l 240 -10 q 177 -10 132 13 q 87 35 63 79 q 39 122 39 183 l 39 183 l 39 395 q 39 457 63 500 q 87 543 133 566 q 178 588 240 588 l 240 588 q 304 588 347 566 q 389 544 411 501 q 432 458 432 395 l 432 395 l 432 279 l 200 279 l 200 168 q 200 146 205 132 q 210 118 219 112 q 228 106 240 106 l 240 106 q 252 106 262 112 q 271 117 277 129 q 282 141 282 162 l 282 162 l 282 223 l 432 223 l 432 167 q 432 79 381 35 q 330 -10 240 -10 m 200 404 l 200 355 l 282 355 l 282 413 q 282 436 277 449 q 271 462 262 467 q 252 472 239 472 l 239 472 q 227 472 219 466 q 210 460 205 446 q 200 431 200 404 l 200 404 m 315 652 l 161 652 l 161 806 l 315 806 l 315 652"},"ẹ":{"x_min":39,"x_max":432,"ha":470,"o":"m 240 -10 l 240 -10 q 177 -10 132 13 q 87 35 63 79 q 39 122 39 183 l 39 183 l 39 395 q 39 457 63 500 q 87 543 133 566 q 178 588 240 588 l 240 588 q 304 588 347 566 q 389 544 411 501 q 432 458 432 395 l 432 395 l 432 279 l 200 279 l 200 168 q 200 146 205 132 q 210 118 219 112 q 228 106 240 106 l 240 106 q 252 106 262 112 q 271 117 277 129 q 282 141 282 162 l 282 162 l 282 223 l 432 223 l 432 167 q 432 79 381 35 q 330 -10 240 -10 m 200 404 l 200 355 l 282 355 l 282 413 q 282 436 277 449 q 271 462 262 467 q 252 472 239 472 l 239 472 q 227 472 219 466 q 210 460 205 446 q 200 431 200 404 l 200 404 m 305 -208 l 166 -208 l 166 -70 l 305 -70 l 305 -208"},"è":{"x_min":39,"x_max":432,"ha":470,"o":"m 240 -10 l 240 -10 q 177 -10 132 13 q 87 35 63 79 q 39 122 39 183 l 39 183 l 39 395 q 39 457 63 500 q 87 543 133 566 q 178 588 240 588 l 240 588 q 304 588 347 566 q 389 544 411 501 q 432 458 432 395 l 432 395 l 432 279 l 200 279 l 200 168 q 200 146 205 132 q 210 118 219 112 q 228 106 240 106 l 240 106 q 252 106 262 112 q 271 117 277 129 q 282 141 282 162 l 282 162 l 282 223 l 432 223 l 432 167 q 432 79 381 35 q 330 -10 240 -10 m 200 404 l 200 355 l 282 355 l 282 413 q 282 436 277 449 q 271 462 262 467 q 252 472 239 472 l 239 472 q 227 472 219 466 q 210 460 205 446 q 200 431 200 404 l 200 404 m 292 642 l 190 642 l 63 843 l 231 843 l 292 642"},"ẻ":{"x_min":39,"x_max":432,"ha":470,"o":"m 240 -10 l 240 -10 q 177 -10 132 13 q 87 35 63 79 q 39 122 39 183 l 39 183 l 39 395 q 39 457 63 500 q 87 543 133 566 q 178 588 240 588 l 240 588 q 304 588 347 566 q 389 544 411 501 q 432 458 432 395 l 432 395 l 432 279 l 200 279 l 200 168 q 200 146 205 132 q 210 118 219 112 q 228 106 240 106 l 240 106 q 252 106 262 112 q 271 117 277 129 q 282 141 282 162 l 282 162 l 282 223 l 432 223 l 432 167 q 432 79 381 35 q 330 -10 240 -10 m 200 404 l 200 355 l 282 355 l 282 413 q 282 436 277 449 q 271 462 262 467 q 252 472 239 472 l 239 472 q 227 472 219 466 q 210 460 205 446 q 200 431 200 404 l 200 404 m 238 627 l 238 627 l 183 679 q 213 693 234 707 q 255 720 255 743 l 255 743 q 255 763 239 771 q 223 778 198 778 l 198 778 q 183 778 166 776 q 149 774 136 771 l 136 771 l 136 839 q 184 852 238 852 l 238 852 q 270 852 298 842 q 326 832 343 811 q 360 789 360 753 l 360 753 q 360 718 343 694 q 326 670 299 655 q 271 639 238 627"},"ȇ":{"x_min":39,"x_max":432,"ha":470,"o":"m 240 -10 l 240 -10 q 177 -10 132 13 q 87 35 63 79 q 39 122 39 183 l 39 183 l 39 395 q 39 457 63 500 q 87 543 133 566 q 178 588 240 588 l 240 588 q 304 588 347 566 q 389 544 411 501 q 432 458 432 395 l 432 395 l 432 279 l 200 279 l 200 168 q 200 146 205 132 q 210 118 219 112 q 228 106 240 106 l 240 106 q 252 106 262 112 q 271 117 277 129 q 282 141 282 162 l 282 162 l 282 223 l 432 223 l 432 167 q 432 79 381 35 q 330 -10 240 -10 m 200 404 l 200 355 l 282 355 l 282 413 q 282 436 277 449 q 271 462 262 467 q 252 472 239 472 l 239 472 q 227 472 219 466 q 210 460 205 446 q 200 431 200 404 l 200 404 m 173 649 l 81 649 q 81 701 100 736 q 119 771 155 790 q 190 808 238 808 l 238 808 q 287 808 322 790 q 357 771 376 736 q 395 701 395 649 l 395 649 l 303 649 q 303 688 288 707 q 273 725 238 725 l 238 725 q 203 725 188 707 q 173 689 173 649 l 173 649"},"ē":{"x_min":39,"x_max":432,"ha":470,"o":"m 240 -10 l 240 -10 q 177 -10 132 13 q 87 35 63 79 q 39 122 39 183 l 39 183 l 39 395 q 39 457 63 500 q 87 543 133 566 q 178 588 240 588 l 240 588 q 304 588 347 566 q 389 544 411 501 q 432 458 432 395 l 432 395 l 432 279 l 200 279 l 200 168 q 200 146 205 132 q 210 118 219 112 q 228 106 240 106 l 240 106 q 252 106 262 112 q 271 117 277 129 q 282 141 282 162 l 282 162 l 282 223 l 432 223 l 432 167 q 432 79 381 35 q 330 -10 240 -10 m 200 404 l 200 355 l 282 355 l 282 413 q 282 436 277 449 q 271 462 262 467 q 252 472 239 472 l 239 472 q 227 472 219 466 q 210 460 205 446 q 200 431 200 404 l 200 404 m 376 666 l 100 666 l 100 743 l 376 743 l 376 666"},"ę":{"x_min":39,"x_max":432,"ha":470,"o":"m 240 -10 l 240 -10 q 177 -10 132 13 q 87 35 63 79 q 39 122 39 183 l 39 183 l 39 395 q 39 457 63 500 q 87 543 133 566 q 178 588 240 588 l 240 588 q 304 588 347 566 q 389 544 411 501 q 432 458 432 395 l 432 395 l 432 279 l 200 279 l 200 168 q 200 146 205 132 q 210 118 219 112 q 228 106 240 106 l 240 106 q 252 106 262 112 q 271 117 277 129 q 282 141 282 162 l 282 162 l 282 223 l 432 223 l 432 167 q 432 79 381 35 q 330 -10 240 -10 m 200 404 l 200 355 l 282 355 l 282 413 q 282 436 277 449 q 271 462 262 467 q 252 472 239 472 l 239 472 q 227 472 219 466 q 210 460 205 446 q 200 431 200 404 l 200 404 m 315 -250 l 315 -250 q 290 -250 262 -246 q 234 -243 210 -232 q 186 -221 171 -199 q 156 -178 156 -142 l 156 -142 q 156 -116 167 -87 q 178 -59 196 -33 q 214 -8 234 10 l 234 10 l 307 10 q 298 -7 290 -27 q 281 -48 276 -69 q 271 -90 271 -111 l 271 -111 q 271 -145 291 -157 q 310 -170 335 -170 l 335 -170 q 343 -170 351 -169 q 359 -169 364 -168 l 364 -168 l 348 -247 q 342 -248 334 -249 q 325 -250 315 -250"},"ẽ":{"x_min":39,"x_max":432,"ha":470,"o":"m 240 -10 l 240 -10 q 177 -10 132 13 q 87 35 63 79 q 39 122 39 183 l 39 183 l 39 395 q 39 457 63 500 q 87 543 133 566 q 178 588 240 588 l 240 588 q 304 588 347 566 q 389 544 411 501 q 432 458 432 395 l 432 395 l 432 279 l 200 279 l 200 168 q 200 146 205 132 q 210 118 219 112 q 228 106 240 106 l 240 106 q 252 106 262 112 q 271 117 277 129 q 282 141 282 162 l 282 162 l 282 223 l 432 223 l 432 167 q 432 79 381 35 q 330 -10 240 -10 m 200 404 l 200 355 l 282 355 l 282 413 q 282 436 277 449 q 271 462 262 467 q 252 472 239 472 l 239 472 q 227 472 219 466 q 210 460 205 446 q 200 431 200 404 l 200 404 m 319 668 l 319 668 q 294 668 273 680 q 252 692 233 704 q 214 715 194 715 l 194 715 q 172 715 165 703 q 158 690 158 674 l 158 674 l 80 674 q 80 715 88 747 q 96 779 116 798 q 136 816 170 816 l 170 816 q 195 816 215 805 q 234 794 253 783 q 272 772 293 772 l 293 772 q 310 772 317 783 q 324 794 324 810 l 324 810 l 396 810 q 396 778 392 745 q 387 712 371 690 q 354 668 319 668"},"ə":{"x_min":38,"x_max":431,"ha":470,"o":"m 230 -12 l 230 -12 q 166 -12 124 10 q 81 32 60 75 q 38 118 38 181 l 38 181 l 38 297 l 269 297 l 269 409 q 269 430 265 444 q 260 458 252 465 q 243 472 230 472 l 230 472 q 218 472 209 467 q 199 462 194 450 q 188 437 188 416 l 188 416 l 188 355 l 38 355 l 38 412 q 38 499 89 544 q 140 588 230 588 l 230 588 q 293 588 338 566 q 383 543 407 500 q 431 457 431 395 l 431 395 l 431 182 q 431 120 407 77 q 383 33 338 11 q 293 -12 230 -12 m 230 104 l 230 104 q 243 104 252 110 q 260 116 265 131 q 269 146 269 172 l 269 172 l 269 221 l 188 221 l 188 164 q 188 141 194 128 q 199 115 209 110 q 218 104 230 104"},"ʒ":{"x_min":22,"x_max":458,"ha":485,"o":"m 238 -205 l 238 -205 q 157 -205 110 -172 q 63 -140 43 -82 q 22 -25 22 50 l 22 50 l 22 79 l 182 79 q 182 78 182 68 q 182 58 182 50 l 182 50 q 182 -27 194 -59 q 206 -91 240 -91 l 240 -91 q 263 -91 275 -76 q 287 -62 291 -32 q 295 -2 295 44 l 295 44 q 295 106 287 143 q 278 179 255 195 q 231 211 185 211 l 185 211 l 121 211 l 121 306 l 270 493 l 290 459 l 57 459 l 57 578 l 413 578 l 413 479 l 238 261 l 189 297 l 238 297 q 325 297 373 268 q 420 239 439 184 q 458 128 458 49 l 458 49 q 458 -25 437 -82 q 416 -140 368 -172 q 319 -205 238 -205"},"ǯ":{"x_min":22,"x_max":458,"ha":485,"o":"m 238 -205 l 238 -205 q 157 -205 110 -172 q 63 -140 43 -82 q 22 -25 22 50 l 22 50 l 22 79 l 182 79 q 182 78 182 68 q 182 58 182 50 l 182 50 q 182 -27 194 -59 q 206 -91 240 -91 l 240 -91 q 263 -91 275 -76 q 287 -62 291 -32 q 295 -2 295 44 l 295 44 q 295 106 287 143 q 278 179 255 195 q 231 211 185 211 l 185 211 l 121 211 l 121 306 l 270 493 l 290 459 l 57 459 l 57 578 l 413 578 l 413 479 l 238 261 l 189 297 l 238 297 q 325 297 373 268 q 420 239 439 184 q 458 128 458 49 l 458 49 q 458 -25 437 -82 q 416 -140 368 -172 q 319 -205 238 -205 m 322 639 l 164 639 l 76 826 l 192 826 l 243 716 l 294 826 l 410 826 l 322 639"},"f":{"x_min":17,"x_max":308,"ha":320,"o":"m 235 0 l 72 0 l 72 468 l 17 468 l 17 578 l 72 578 l 72 621 q 72 672 83 710 q 93 748 127 769 q 160 790 230 790 l 230 790 q 249 790 268 789 q 286 788 308 785 l 308 785 l 308 664 q 301 666 292 668 q 282 669 273 669 l 273 669 q 255 669 245 659 q 235 648 235 624 l 235 624 l 235 578 l 308 578 l 308 468 l 235 468 l 235 0"},"ḟ":{"x_min":17,"x_max":308,"ha":320,"o":"m 235 0 l 72 0 l 72 468 l 17 468 l 17 578 l 72 578 l 72 621 q 72 672 83 710 q 93 748 127 769 q 160 790 230 790 l 230 790 q 249 790 268 789 q 286 788 308 785 l 308 785 l 308 664 q 301 666 292 668 q 282 669 273 669 l 273 669 q 255 669 245 659 q 235 648 235 624 l 235 624 l 235 578 l 308 578 l 308 468 l 235 468 l 235 0 m 273 859 l 119 859 l 119 1013 l 273 1013 l 273 859"},"g":{"x_min":25,"x_max":517,"ha":502,"o":"m 240 -200 l 240 -200 q 175 -200 127 -187 q 78 -174 52 -148 q 25 -122 25 -83 l 25 -83 q 25 -53 39 -29 q 52 -6 77 11 q 101 28 132 40 l 132 40 l 195 29 q 184 20 175 11 q 165 1 159 -9 q 153 -20 153 -34 l 153 -34 q 153 -56 178 -67 q 203 -78 261 -78 l 261 -78 q 309 -78 336 -69 q 362 -61 362 -36 l 362 -36 q 362 -22 355 -14 q 348 -6 332 -1 q 316 4 288 7 l 288 7 l 144 25 q 98 31 71 58 q 44 85 44 125 l 44 125 q 44 160 66 190 q 87 220 122 249 l 122 249 l 179 217 q 167 205 160 195 q 153 184 153 171 l 153 171 q 153 159 165 152 q 177 145 208 141 l 208 141 l 345 123 q 419 114 454 74 q 488 34 488 -29 l 488 -29 q 488 -85 464 -123 q 439 -161 385 -180 q 330 -200 240 -200 m 250 187 l 250 187 q 182 187 136 211 q 89 235 66 280 q 42 324 42 387 l 42 387 q 42 452 66 497 q 90 542 137 565 q 183 588 250 588 l 250 588 q 314 588 358 564 q 402 540 426 496 q 449 451 449 387 l 449 387 q 449 324 427 280 q 404 235 360 211 q 316 187 250 187 m 250 284 l 250 284 q 264 284 273 290 q 281 295 286 307 q 290 319 292 339 q 294 359 294 387 l 294 387 q 294 416 292 436 q 290 455 286 468 q 281 480 273 486 q 264 491 250 491 l 250 491 q 237 491 228 486 q 219 480 214 468 q 209 456 207 436 q 205 416 205 387 l 205 387 q 205 359 207 340 q 209 320 214 308 q 218 295 227 290 q 236 284 250 284 m 414 487 l 414 487 l 380 531 q 395 560 418 578 q 440 595 478 613 l 478 613 l 517 535 q 507 532 488 524 q 468 515 448 505 q 427 495 414 487"},"ǵ":{"x_min":25,"x_max":517,"ha":502,"o":"m 240 -200 l 240 -200 q 175 -200 127 -187 q 78 -174 52 -148 q 25 -122 25 -83 l 25 -83 q 25 -53 39 -29 q 52 -6 77 11 q 101 28 132 40 l 132 40 l 195 29 q 184 20 175 11 q 165 1 159 -9 q 153 -20 153 -34 l 153 -34 q 153 -56 178 -67 q 203 -78 261 -78 l 261 -78 q 309 -78 336 -69 q 362 -61 362 -36 l 362 -36 q 362 -22 355 -14 q 348 -6 332 -1 q 316 4 288 7 l 288 7 l 144 25 q 98 31 71 58 q 44 85 44 125 l 44 125 q 44 160 66 190 q 87 220 122 249 l 122 249 l 179 217 q 167 205 160 195 q 153 184 153 171 l 153 171 q 153 159 165 152 q 177 145 208 141 l 208 141 l 345 123 q 419 114 454 74 q 488 34 488 -29 l 488 -29 q 488 -85 464 -123 q 439 -161 385 -180 q 330 -200 240 -200 m 250 187 l 250 187 q 182 187 136 211 q 89 235 66 280 q 42 324 42 387 l 42 387 q 42 452 66 497 q 90 542 137 565 q 183 588 250 588 l 250 588 q 314 588 358 564 q 402 540 426 496 q 449 451 449 387 l 449 387 q 449 324 427 280 q 404 235 360 211 q 316 187 250 187 m 250 284 l 250 284 q 264 284 273 290 q 281 295 286 307 q 290 319 292 339 q 294 359 294 387 l 294 387 q 294 416 292 436 q 290 455 286 468 q 281 480 273 486 q 264 491 250 491 l 250 491 q 237 491 228 486 q 219 480 214 468 q 209 456 207 436 q 205 416 205 387 l 205 387 q 205 359 207 340 q 209 320 214 308 q 218 295 227 290 q 236 284 250 284 m 414 487 l 414 487 l 380 531 q 395 560 418 578 q 440 595 478 613 l 478 613 l 517 535 q 507 532 488 524 q 468 515 448 505 q 427 495 414 487 m 300 642 l 197 642 l 260 843 l 426 843 l 300 642"},"ğ":{"x_min":25,"x_max":517,"ha":502,"o":"m 240 -200 l 240 -200 q 175 -200 127 -187 q 78 -174 52 -148 q 25 -122 25 -83 l 25 -83 q 25 -53 39 -29 q 52 -6 77 11 q 101 28 132 40 l 132 40 l 195 29 q 184 20 175 11 q 165 1 159 -9 q 153 -20 153 -34 l 153 -34 q 153 -56 178 -67 q 203 -78 261 -78 l 261 -78 q 309 -78 336 -69 q 362 -61 362 -36 l 362 -36 q 362 -22 355 -14 q 348 -6 332 -1 q 316 4 288 7 l 288 7 l 144 25 q 98 31 71 58 q 44 85 44 125 l 44 125 q 44 160 66 190 q 87 220 122 249 l 122 249 l 179 217 q 167 205 160 195 q 153 184 153 171 l 153 171 q 153 159 165 152 q 177 145 208 141 l 208 141 l 345 123 q 419 114 454 74 q 488 34 488 -29 l 488 -29 q 488 -85 464 -123 q 439 -161 385 -180 q 330 -200 240 -200 m 250 187 l 250 187 q 182 187 136 211 q 89 235 66 280 q 42 324 42 387 l 42 387 q 42 452 66 497 q 90 542 137 565 q 183 588 250 588 l 250 588 q 314 588 358 564 q 402 540 426 496 q 449 451 449 387 l 449 387 q 449 324 427 280 q 404 235 360 211 q 316 187 250 187 m 250 284 l 250 284 q 264 284 273 290 q 281 295 286 307 q 290 319 292 339 q 294 359 294 387 l 294 387 q 294 416 292 436 q 290 455 286 468 q 281 480 273 486 q 264 491 250 491 l 250 491 q 237 491 228 486 q 219 480 214 468 q 209 456 207 436 q 205 416 205 387 l 205 387 q 205 359 207 340 q 209 320 214 308 q 218 295 227 290 q 236 284 250 284 m 414 487 l 414 487 l 380 531 q 395 560 418 578 q 440 595 478 613 l 478 613 l 517 535 q 507 532 488 524 q 468 515 448 505 q 427 495 414 487 m 251 643 l 251 643 q 180 643 137 683 q 94 723 94 799 l 94 799 l 186 799 q 186 762 201 744 q 215 726 251 726 l 251 726 q 286 726 301 745 q 316 763 316 799 l 316 799 l 408 799 q 408 723 365 683 q 322 643 251 643"},"ǧ":{"x_min":25,"x_max":517,"ha":502,"o":"m 240 -200 l 240 -200 q 175 -200 127 -187 q 78 -174 52 -148 q 25 -122 25 -83 l 25 -83 q 25 -53 39 -29 q 52 -6 77 11 q 101 28 132 40 l 132 40 l 195 29 q 184 20 175 11 q 165 1 159 -9 q 153 -20 153 -34 l 153 -34 q 153 -56 178 -67 q 203 -78 261 -78 l 261 -78 q 309 -78 336 -69 q 362 -61 362 -36 l 362 -36 q 362 -22 355 -14 q 348 -6 332 -1 q 316 4 288 7 l 288 7 l 144 25 q 98 31 71 58 q 44 85 44 125 l 44 125 q 44 160 66 190 q 87 220 122 249 l 122 249 l 179 217 q 167 205 160 195 q 153 184 153 171 l 153 171 q 153 159 165 152 q 177 145 208 141 l 208 141 l 345 123 q 419 114 454 74 q 488 34 488 -29 l 488 -29 q 488 -85 464 -123 q 439 -161 385 -180 q 330 -200 240 -200 m 250 187 l 250 187 q 182 187 136 211 q 89 235 66 280 q 42 324 42 387 l 42 387 q 42 452 66 497 q 90 542 137 565 q 183 588 250 588 l 250 588 q 314 588 358 564 q 402 540 426 496 q 449 451 449 387 l 449 387 q 449 324 427 280 q 404 235 360 211 q 316 187 250 187 m 250 284 l 250 284 q 264 284 273 290 q 281 295 286 307 q 290 319 292 339 q 294 359 294 387 l 294 387 q 294 416 292 436 q 290 455 286 468 q 281 480 273 486 q 264 491 250 491 l 250 491 q 237 491 228 486 q 219 480 214 468 q 209 456 207 436 q 205 416 205 387 l 205 387 q 205 359 207 340 q 209 320 214 308 q 218 295 227 290 q 236 284 250 284 m 414 487 l 414 487 l 380 531 q 395 560 418 578 q 440 595 478 613 l 478 613 l 517 535 q 507 532 488 524 q 468 515 448 505 q 427 495 414 487 m 330 639 l 172 639 l 84 826 l 200 826 l 251 716 l 302 826 l 418 826 l 330 639"},"ĝ":{"x_min":25,"x_max":517,"ha":502,"o":"m 240 -200 l 240 -200 q 175 -200 127 -187 q 78 -174 52 -148 q 25 -122 25 -83 l 25 -83 q 25 -53 39 -29 q 52 -6 77 11 q 101 28 132 40 l 132 40 l 195 29 q 184 20 175 11 q 165 1 159 -9 q 153 -20 153 -34 l 153 -34 q 153 -56 178 -67 q 203 -78 261 -78 l 261 -78 q 309 -78 336 -69 q 362 -61 362 -36 l 362 -36 q 362 -22 355 -14 q 348 -6 332 -1 q 316 4 288 7 l 288 7 l 144 25 q 98 31 71 58 q 44 85 44 125 l 44 125 q 44 160 66 190 q 87 220 122 249 l 122 249 l 179 217 q 167 205 160 195 q 153 184 153 171 l 153 171 q 153 159 165 152 q 177 145 208 141 l 208 141 l 345 123 q 419 114 454 74 q 488 34 488 -29 l 488 -29 q 488 -85 464 -123 q 439 -161 385 -180 q 330 -200 240 -200 m 250 187 l 250 187 q 182 187 136 211 q 89 235 66 280 q 42 324 42 387 l 42 387 q 42 452 66 497 q 90 542 137 565 q 183 588 250 588 l 250 588 q 314 588 358 564 q 402 540 426 496 q 449 451 449 387 l 449 387 q 449 324 427 280 q 404 235 360 211 q 316 187 250 187 m 250 284 l 250 284 q 264 284 273 290 q 281 295 286 307 q 290 319 292 339 q 294 359 294 387 l 294 387 q 294 416 292 436 q 290 455 286 468 q 281 480 273 486 q 264 491 250 491 l 250 491 q 237 491 228 486 q 219 480 214 468 q 209 456 207 436 q 205 416 205 387 l 205 387 q 205 359 207 340 q 209 320 214 308 q 218 295 227 290 q 236 284 250 284 m 414 487 l 414 487 l 380 531 q 395 560 418 578 q 440 595 478 613 l 478 613 l 517 535 q 507 532 488 524 q 468 515 448 505 q 427 495 414 487 m 207 649 l 88 649 l 183 841 l 316 841 l 414 649 l 294 649 l 250 768 l 207 649"},"ģ":{"x_min":25,"x_max":517,"ha":502,"o":"m 240 -200 l 240 -200 q 175 -200 127 -187 q 78 -174 52 -148 q 25 -122 25 -83 l 25 -83 q 25 -53 39 -29 q 52 -6 77 11 q 101 28 132 40 l 132 40 l 195 29 q 184 20 175 11 q 165 1 159 -9 q 153 -20 153 -34 l 153 -34 q 153 -56 178 -67 q 203 -78 261 -78 l 261 -78 q 309 -78 336 -69 q 362 -61 362 -36 l 362 -36 q 362 -22 355 -14 q 348 -6 332 -1 q 316 4 288 7 l 288 7 l 144 25 q 98 31 71 58 q 44 85 44 125 l 44 125 q 44 160 66 190 q 87 220 122 249 l 122 249 l 179 217 q 167 205 160 195 q 153 184 153 171 l 153 171 q 153 159 165 152 q 177 145 208 141 l 208 141 l 345 123 q 419 114 454 74 q 488 34 488 -29 l 488 -29 q 488 -85 464 -123 q 439 -161 385 -180 q 330 -200 240 -200 m 250 187 l 250 187 q 182 187 136 211 q 89 235 66 280 q 42 324 42 387 l 42 387 q 42 452 66 497 q 90 542 137 565 q 183 588 250 588 l 250 588 q 314 588 358 564 q 402 540 426 496 q 449 451 449 387 l 449 387 q 449 324 427 280 q 404 235 360 211 q 316 187 250 187 m 250 284 l 250 284 q 264 284 273 290 q 281 295 286 307 q 290 319 292 339 q 294 359 294 387 l 294 387 q 294 416 292 436 q 290 455 286 468 q 281 480 273 486 q 264 491 250 491 l 250 491 q 237 491 228 486 q 219 480 214 468 q 209 456 207 436 q 205 416 205 387 l 205 387 q 205 359 207 340 q 209 320 214 308 q 218 295 227 290 q 236 284 250 284 m 414 487 l 414 487 l 380 531 q 395 560 418 578 q 440 595 478 613 l 478 613 l 517 535 q 507 532 488 524 q 468 515 448 505 q 427 495 414 487 m 301 932 l 301 932 l 314 878 q 286 872 265 856 q 243 839 243 797 l 243 797 l 328 797 l 328 645 l 175 645 l 175 775 q 175 849 205 890 q 235 930 301 932"},"ġ":{"x_min":25,"x_max":517,"ha":502,"o":"m 240 -200 l 240 -200 q 175 -200 127 -187 q 78 -174 52 -148 q 25 -122 25 -83 l 25 -83 q 25 -53 39 -29 q 52 -6 77 11 q 101 28 132 40 l 132 40 l 195 29 q 184 20 175 11 q 165 1 159 -9 q 153 -20 153 -34 l 153 -34 q 153 -56 178 -67 q 203 -78 261 -78 l 261 -78 q 309 -78 336 -69 q 362 -61 362 -36 l 362 -36 q 362 -22 355 -14 q 348 -6 332 -1 q 316 4 288 7 l 288 7 l 144 25 q 98 31 71 58 q 44 85 44 125 l 44 125 q 44 160 66 190 q 87 220 122 249 l 122 249 l 179 217 q 167 205 160 195 q 153 184 153 171 l 153 171 q 153 159 165 152 q 177 145 208 141 l 208 141 l 345 123 q 419 114 454 74 q 488 34 488 -29 l 488 -29 q 488 -85 464 -123 q 439 -161 385 -180 q 330 -200 240 -200 m 250 187 l 250 187 q 182 187 136 211 q 89 235 66 280 q 42 324 42 387 l 42 387 q 42 452 66 497 q 90 542 137 565 q 183 588 250 588 l 250 588 q 314 588 358 564 q 402 540 426 496 q 449 451 449 387 l 449 387 q 449 324 427 280 q 404 235 360 211 q 316 187 250 187 m 250 284 l 250 284 q 264 284 273 290 q 281 295 286 307 q 290 319 292 339 q 294 359 294 387 l 294 387 q 294 416 292 436 q 290 455 286 468 q 281 480 273 486 q 264 491 250 491 l 250 491 q 237 491 228 486 q 219 480 214 468 q 209 456 207 436 q 205 416 205 387 l 205 387 q 205 359 207 340 q 209 320 214 308 q 218 295 227 290 q 236 284 250 284 m 414 487 l 414 487 l 380 531 q 395 560 418 578 q 440 595 478 613 l 478 613 l 517 535 q 507 532 488 524 q 468 515 448 505 q 427 495 414 487 m 328 652 l 174 652 l 174 806 l 328 806 l 328 652"},"ǥ":{"x_min":-9,"x_max":522,"ha":501,"o":"m 239 -200 l 239 -200 q 174 -200 126 -186 q 78 -173 52 -145 q 25 -117 25 -72 l 25 -72 q 25 -44 36 -22 q 47 0 67 18 q 87 35 113 47 l 113 47 q 76 58 56 79 q 35 100 35 125 l 35 125 q 35 160 52 186 q 69 211 99 237 l 99 237 q 71 262 57 299 q 42 335 42 387 l 42 387 q 42 452 66 497 q 90 542 137 565 q 183 588 249 588 l 249 588 q 294 588 328 577 q 362 566 386 543 l 386 543 q 397 560 415 576 q 433 592 456 603 l 456 603 l 477 613 l 515 535 q 506 532 490 525 q 474 518 457 510 q 439 502 425 494 l 425 494 q 436 472 442 444 q 448 416 448 386 l 448 386 q 448 324 426 279 q 403 234 359 211 q 315 187 249 187 l 249 187 q 221 187 196 192 q 171 196 150 203 l 150 203 q 144 196 140 190 q 135 183 135 175 l 135 175 q 135 165 147 161 q 159 157 190 154 l 190 154 l 342 136 q 416 128 451 87 q 486 46 486 -30 l 486 -30 q 486 -85 462 -123 q 437 -161 383 -180 q 328 -200 239 -200 m 522 -53 l -9 -53 l -9 -2 l 522 -2 l 522 -53 m 260 -89 l 260 -89 q 319 -89 347 -75 q 374 -62 374 -28 l 374 -28 q 374 -10 366 0 q 358 10 340 16 q 321 21 287 24 l 287 24 l 180 35 q 170 27 161 18 q 151 8 146 -3 q 140 -14 140 -26 l 140 -26 q 140 -56 165 -72 q 190 -89 260 -89 m 249 284 l 249 284 q 263 284 272 290 q 281 295 286 307 q 290 319 292 339 q 294 359 294 387 l 294 387 q 294 416 292 436 q 290 455 286 468 q 281 480 272 486 q 263 491 249 491 l 249 491 q 235 491 226 486 q 217 480 213 468 q 208 456 206 436 q 204 416 204 387 l 204 387 q 204 359 206 340 q 208 320 213 308 q 217 295 226 290 q 235 284 249 284"},"h":{"x_min":52,"x_max":462,"ha":509,"o":"m 214 0 l 52 0 l 52 810 l 214 810 l 214 527 q 246 559 281 574 q 316 588 356 588 l 356 588 q 391 588 415 571 q 438 553 450 523 q 462 492 462 453 l 462 453 l 462 0 l 300 0 l 300 430 q 300 451 293 462 q 286 473 267 473 l 267 473 q 257 473 243 468 q 229 462 214 452 l 214 452 l 214 0"},"ħ":{"x_min":6,"x_max":462,"ha":510,"o":"m 215 0 l 52 0 l 52 671 l 6 671 l 6 746 l 52 746 l 52 810 l 215 810 l 215 746 l 333 746 l 333 671 l 215 671 l 215 527 q 247 559 282 574 q 317 588 356 588 l 356 588 q 391 588 415 571 q 438 553 450 523 q 462 492 462 453 l 462 453 l 462 0 l 300 0 l 300 430 q 300 451 294 462 q 287 473 268 473 l 268 473 q 257 473 244 468 q 230 462 215 452 l 215 452 l 215 0"},"ȟ":{"x_min":52,"x_max":504,"ha":509,"o":"m 214 0 l 52 0 l 52 810 l 214 810 l 214 527 q 246 559 281 574 q 316 588 356 588 l 356 588 q 391 588 415 571 q 438 553 450 523 q 462 492 462 453 l 462 453 l 462 0 l 300 0 l 300 430 q 300 451 293 462 q 286 473 267 473 l 267 473 q 257 473 243 468 q 229 462 214 452 l 214 452 l 214 0 m 416 833 l 258 833 l 170 1020 l 286 1020 l 337 910 l 388 1020 l 504 1020 l 416 833"},"ĥ":{"x_min":-30,"x_max":462,"ha":509,"o":"m 214 0 l 52 0 l 52 810 l 214 810 l 214 527 q 246 559 281 574 q 316 588 356 588 l 356 588 q 391 588 415 571 q 438 553 450 523 q 462 492 462 453 l 462 453 l 462 0 l 300 0 l 300 430 q 300 451 293 462 q 286 473 267 473 l 267 473 q 257 473 243 468 q 229 462 214 452 l 214 452 l 214 0 m 89 881 l -30 881 l 65 1073 l 198 1073 l 296 881 l 176 881 l 132 1000 l 89 881"},"i":{"x_min":51,"x_max":215,"ha":265,"o":"m 215 0 l 52 0 l 52 578 l 215 578 l 215 0 m 215 676 l 51 676 l 51 789 l 215 789 l 215 676"},"ı":{"x_min":59,"x_max":222,"ha":280,"o":"m 222 0 l 59 0 l 59 578 l 222 578 l 222 0"},"í":{"x_min":59,"x_max":316,"ha":280,"o":"m 222 0 l 59 0 l 59 578 l 222 578 l 222 0 m 190 642 l 87 642 l 150 843 l 316 843 l 190 642"},"ĭ":{"x_min":-16,"x_max":298,"ha":280,"o":"m 222 0 l 59 0 l 59 578 l 222 578 l 222 0 m 141 643 l 141 643 q 70 643 27 683 q -16 723 -16 799 l -16 799 l 76 799 q 76 762 91 744 q 105 726 141 726 l 141 726 q 176 726 191 745 q 206 763 206 799 l 206 799 l 298 799 q 298 723 255 683 q 212 643 141 643"},"î":{"x_min":-22,"x_max":304,"ha":280,"o":"m 222 0 l 59 0 l 59 578 l 222 578 l 222 0 m 97 649 l -22 649 l 73 841 l 206 841 l 304 649 l 184 649 l 140 768 l 97 649"},"ȉ":{"x_min":-82,"x_max":279,"ha":280,"o":"m 222 0 l 59 0 l 59 578 l 222 578 l 222 0 m 106 638 l 18 638 l -82 845 l 42 845 l 106 638 m 279 638 l 193 638 l 101 845 l 220 845 l 279 638"},"ï":{"x_min":-33,"x_max":315,"ha":280,"o":"m 222 0 l 59 0 l 59 578 l 222 578 l 222 0 m 315 662 l 185 662 l 185 810 l 315 810 l 315 662 m 97 662 l -33 662 l -33 810 l 97 810 l 97 662"},"ị":{"x_min":51,"x_max":215,"ha":265,"o":"m 215 0 l 52 0 l 52 578 l 215 578 l 215 0 m 215 676 l 51 676 l 51 789 l 215 789 l 215 676 m 203 -208 l 64 -208 l 64 -70 l 203 -70 l 203 -208"},"ì":{"x_min":-34,"x_max":222,"ha":280,"o":"m 222 0 l 59 0 l 59 578 l 222 578 l 222 0 m 195 642 l 93 642 l -34 843 l 134 843 l 195 642"},"ỉ":{"x_min":39,"x_max":263,"ha":280,"o":"m 222 0 l 59 0 l 59 578 l 222 578 l 222 0 m 141 627 l 141 627 l 86 679 q 116 693 137 707 q 158 720 158 743 l 158 743 q 158 763 142 771 q 126 778 101 778 l 101 778 q 86 778 69 776 q 52 774 39 771 l 39 771 l 39 839 q 87 852 141 852 l 141 852 q 173 852 201 842 q 229 832 246 811 q 263 789 263 753 l 263 753 q 263 718 246 694 q 229 670 202 655 q 174 639 141 627"},"ȋ":{"x_min":-16,"x_max":298,"ha":280,"o":"m 222 0 l 59 0 l 59 578 l 222 578 l 222 0 m 76 649 l -16 649 q -16 701 3 736 q 22 771 58 790 q 93 808 141 808 l 141 808 q 190 808 225 790 q 260 771 279 736 q 298 701 298 649 l 298 649 l 206 649 q 206 688 191 707 q 176 725 141 725 l 141 725 q 106 725 91 707 q 76 689 76 649 l 76 649"},"ī":{"x_min":3,"x_max":279,"ha":280,"o":"m 222 0 l 59 0 l 59 578 l 222 578 l 222 0 m 279 666 l 3 666 l 3 743 l 279 743 l 279 666"},"į":{"x_min":20,"x_max":228,"ha":265,"o":"m 215 0 l 52 0 l 52 578 l 215 578 l 215 0 m 215 676 l 51 676 l 51 789 l 215 789 l 215 676 m 179 -260 l 179 -260 q 154 -260 126 -256 q 98 -253 74 -242 q 50 -231 35 -209 q 20 -188 20 -152 l 20 -152 q 20 -126 31 -97 q 42 -69 60 -43 q 78 -18 98 0 l 98 0 l 171 0 q 162 -17 154 -37 q 145 -58 140 -79 q 135 -100 135 -121 l 135 -121 q 135 -155 155 -167 q 174 -180 199 -180 l 199 -180 q 207 -180 215 -179 q 223 -179 228 -178 l 228 -178 l 212 -257 q 206 -258 198 -259 q 189 -260 179 -260"},"ĩ":{"x_min":-17,"x_max":299,"ha":280,"o":"m 222 0 l 59 0 l 59 578 l 222 578 l 222 0 m 222 668 l 222 668 q 197 668 176 680 q 155 692 136 704 q 117 715 97 715 l 97 715 q 75 715 68 703 q 61 690 61 674 l 61 674 l -17 674 q -17 715 -9 747 q -1 779 19 798 q 39 816 73 816 l 73 816 q 98 816 118 805 q 137 794 156 783 q 175 772 196 772 l 196 772 q 213 772 220 783 q 227 794 227 810 l 227 810 l 299 810 q 299 778 295 745 q 290 712 274 690 q 257 668 222 668"},"ĳ":{"x_min":51,"x_max":485,"ha":534,"o":"m 215 0 l 52 0 l 52 578 l 215 578 l 215 0 m 215 676 l 51 676 l 51 789 l 215 789 l 215 676 m 335 -180 l 335 -180 q 313 -180 291 -176 q 268 -173 248 -167 l 248 -167 l 248 -50 q 256 -51 264 -52 q 271 -54 277 -54 l 277 -54 q 291 -54 301 -49 q 311 -44 317 -33 q 322 -23 322 -5 l 322 -5 l 322 578 l 484 578 l 484 -25 q 484 -93 447 -136 q 409 -180 335 -180 m 485 676 l 321 676 l 321 789 l 485 789 l 485 676"},"j":{"x_min":-17,"x_max":220,"ha":269,"o":"m 70 -180 l 70 -180 q 48 -180 26 -176 q 3 -173 -17 -167 l -17 -167 l -17 -50 q -9 -51 -1 -52 q 6 -54 12 -54 l 12 -54 q 26 -54 36 -49 q 46 -44 52 -33 q 57 -23 57 -5 l 57 -5 l 57 578 l 219 578 l 219 -25 q 219 -93 182 -136 q 144 -180 70 -180 m 220 676 l 56 676 l 56 789 l 220 789 l 220 676"},"ȷ":{"x_min":-9,"x_max":227,"ha":277,"o":"m 78 -180 l 78 -180 q 55 -180 33 -176 q 11 -173 -9 -167 l -9 -167 l -9 -50 q -2 -51 6 -52 q 13 -54 20 -54 l 20 -54 q 34 -54 44 -49 q 53 -44 59 -33 q 64 -23 64 -5 l 64 -5 l 64 578 l 227 578 l 227 -25 q 227 -93 190 -136 q 152 -180 78 -180"},"ĵ":{"x_min":-17,"x_max":309,"ha":277,"o":"m 78 -180 l 78 -180 q 55 -180 33 -176 q 11 -173 -9 -167 l -9 -167 l -9 -50 q -2 -51 6 -52 q 13 -54 20 -54 l 20 -54 q 34 -54 44 -49 q 53 -44 59 -33 q 64 -23 64 -5 l 64 -5 l 64 578 l 227 578 l 227 -25 q 227 -93 190 -136 q 152 -180 78 -180 m 102 649 l -17 649 l 78 841 l 211 841 l 309 649 l 189 649 l 145 768 l 102 649"},"k":{"x_min":51,"x_max":507,"ha":510,"o":"m 208 0 l 51 0 l 51 810 l 208 810 l 208 361 l 326 578 l 507 578 l 368 341 l 506 0 l 330 0 l 244 275 l 208 220 l 208 0"},"ǩ":{"x_min":51,"x_max":507,"ha":510,"o":"m 208 0 l 51 0 l 51 810 l 208 810 l 208 361 l 326 578 l 507 578 l 368 341 l 506 0 l 330 0 l 244 275 l 208 220 l 208 0 m 410 812 l 252 812 l 164 999 l 280 999 l 331 889 l 382 999 l 498 999 l 410 812"},"ķ":{"x_min":51,"x_max":507,"ha":510,"o":"m 208 0 l 51 0 l 51 810 l 208 810 l 208 361 l 326 578 l 507 578 l 368 341 l 506 0 l 330 0 l 244 275 l 208 220 l 208 0 m 210 -356 l 210 -356 l 197 -302 q 225 -297 247 -280 q 268 -264 268 -221 l 268 -221 l 183 -221 l 183 -69 l 336 -69 l 336 -199 q 336 -273 306 -313 q 276 -354 210 -356"},"ĸ":{"x_min":50,"x_max":502,"ha":508,"o":"m 213 0 l 50 0 l 50 578 l 213 578 l 213 337 l 324 578 l 500 578 l 382 321 l 502 0 l 331 0 l 239 267 l 213 229 l 213 0"},"l":{"x_min":58,"x_max":220,"ha":274,"o":"m 220 0 l 58 0 l 58 810 l 220 810 l 220 0"},"ĺ":{"x_min":58,"x_max":314,"ha":274,"o":"m 220 0 l 58 0 l 58 810 l 220 810 l 220 0 m 188 874 l 85 874 l 148 1075 l 314 1075 l 188 874"},"ľ":{"x_min":58,"x_max":423,"ha":408,"o":"m 220 0 l 58 0 l 58 810 l 220 810 l 220 0 m 294 517 l 294 517 l 284 569 q 310 576 333 595 q 355 614 355 657 l 355 657 l 269 657 l 269 811 l 423 811 l 423 677 q 423 603 391 563 q 359 522 294 517"},"ļ":{"x_min":58,"x_max":220,"ha":274,"o":"m 220 0 l 58 0 l 58 810 l 220 810 l 220 0 m 89 -356 l 89 -356 l 76 -302 q 104 -297 126 -280 q 147 -264 147 -221 l 147 -221 l 62 -221 l 62 -69 l 215 -69 l 215 -199 q 215 -273 185 -313 q 155 -354 89 -356"},"ŀ":{"x_min":58,"x_max":376,"ha":363,"o":"m 220 0 l 58 0 l 58 810 l 220 810 l 220 0 m 376 365 l 265 365 l 265 517 l 376 517 l 376 365"},"ǉ":{"x_min":58,"x_max":494,"ha":543,"o":"m 220 0 l 58 0 l 58 810 l 220 810 l 220 0 m 344 -180 l 344 -180 q 322 -180 300 -176 q 277 -173 257 -167 l 257 -167 l 257 -50 q 265 -51 273 -52 q 280 -54 286 -54 l 286 -54 q 300 -54 310 -49 q 320 -44 326 -33 q 331 -23 331 -5 l 331 -5 l 331 578 l 493 578 l 493 -25 q 493 -93 456 -136 q 418 -180 344 -180 m 494 676 l 330 676 l 330 789 l 494 789 l 494 676"},"ł":{"x_min":20,"x_max":326,"ha":334,"o":"m 249 0 l 87 0 l 87 414 l 20 385 l 20 476 l 87 505 l 87 810 l 249 810 l 249 574 l 326 607 l 326 516 l 249 484 l 249 0"},"m":{"x_min":51,"x_max":706,"ha":753,"o":"m 211 0 l 51 0 l 51 578 l 211 578 l 211 532 q 243 563 278 576 q 312 589 348 589 l 348 589 q 383 589 409 572 q 434 554 447 520 l 447 520 q 481 558 519 574 q 556 589 594 589 l 594 589 q 628 589 653 573 q 678 556 692 525 q 706 493 706 449 l 706 449 l 706 0 l 546 0 l 546 432 q 546 456 538 467 q 529 477 512 477 l 512 477 q 502 477 487 472 q 472 466 458 456 l 458 456 q 458 454 458 453 q 458 451 458 449 l 458 449 l 458 0 l 300 0 l 300 432 q 300 456 291 467 q 282 477 265 477 l 265 477 q 254 477 240 472 q 225 466 211 456 l 211 456 l 211 0"},"ṁ":{"x_min":51,"x_max":706,"ha":753,"o":"m 211 0 l 51 0 l 51 578 l 211 578 l 211 532 q 243 563 278 576 q 312 589 348 589 l 348 589 q 383 589 409 572 q 434 554 447 520 l 447 520 q 481 558 519 574 q 556 589 594 589 l 594 589 q 628 589 653 573 q 678 556 692 525 q 706 493 706 449 l 706 449 l 706 0 l 546 0 l 546 432 q 546 456 538 467 q 529 477 512 477 l 512 477 q 502 477 487 472 q 472 466 458 456 l 458 456 q 458 454 458 453 q 458 451 458 449 l 458 449 l 458 0 l 300 0 l 300 432 q 300 456 291 467 q 282 477 265 477 l 265 477 q 254 477 240 472 q 225 466 211 456 l 211 456 l 211 0 m 453 652 l 299 652 l 299 806 l 453 806 l 453 652"},"n":{"x_min":51,"x_max":460,"ha":507,"o":"m 214 0 l 51 0 l 51 578 l 214 578 l 214 520 q 246 552 281 570 q 315 588 353 588 l 353 588 q 389 588 413 571 q 436 553 448 523 q 460 492 460 453 l 460 453 l 460 0 l 298 0 l 298 430 q 298 451 291 462 q 284 473 265 473 l 265 473 q 255 473 242 468 q 228 462 214 452 l 214 452 l 214 0"},"ń":{"x_min":51,"x_max":460,"ha":507,"o":"m 214 0 l 51 0 l 51 578 l 214 578 l 214 520 q 246 552 281 570 q 315 588 353 588 l 353 588 q 389 588 413 571 q 436 553 448 523 q 460 492 460 453 l 460 453 l 460 0 l 298 0 l 298 430 q 298 451 291 462 q 284 473 265 473 l 265 473 q 255 473 242 468 q 228 462 214 452 l 214 452 l 214 0 m 303 642 l 200 642 l 263 843 l 429 843 l 303 642"},"ŉ":{"x_min":32,"x_max":552,"ha":585,"o":"m 57 627 l 57 627 l 47 680 q 73 687 96 706 q 118 724 118 767 l 118 767 l 32 767 l 32 921 l 187 921 l 187 788 q 186 714 154 673 q 122 632 57 627 m 306 0 l 143 0 l 143 578 l 306 578 l 306 520 q 338 552 373 570 q 407 588 445 588 l 445 588 q 481 588 505 571 q 528 553 540 523 q 552 492 552 453 l 552 453 l 552 0 l 390 0 l 390 430 q 390 451 383 462 q 376 473 357 473 l 357 473 q 347 473 334 468 q 320 462 306 452 l 306 452 l 306 0"},"ň":{"x_min":51,"x_max":460,"ha":507,"o":"m 214 0 l 51 0 l 51 578 l 214 578 l 214 520 q 246 552 281 570 q 315 588 353 588 l 353 588 q 389 588 413 571 q 436 553 448 523 q 460 492 460 453 l 460 453 l 460 0 l 298 0 l 298 430 q 298 451 291 462 q 284 473 265 473 l 265 473 q 255 473 242 468 q 228 462 214 452 l 214 452 l 214 0 m 333 639 l 175 639 l 87 826 l 203 826 l 254 716 l 305 826 l 421 826 l 333 639"},"ņ":{"x_min":51,"x_max":460,"ha":507,"o":"m 214 0 l 51 0 l 51 578 l 214 578 l 214 520 q 246 552 281 570 q 315 588 353 588 l 353 588 q 389 588 413 571 q 436 553 448 523 q 460 492 460 453 l 460 453 l 460 0 l 298 0 l 298 430 q 298 451 291 462 q 284 473 265 473 l 265 473 q 255 473 242 468 q 228 462 214 452 l 214 452 l 214 0 m 204 -356 l 204 -356 l 191 -302 q 219 -297 241 -280 q 262 -264 262 -221 l 262 -221 l 177 -221 l 177 -69 l 330 -69 l 330 -199 q 330 -273 300 -313 q 270 -354 204 -356"},"ǌ":{"x_min":51,"x_max":727,"ha":776,"o":"m 214 0 l 51 0 l 51 578 l 214 578 l 214 520 q 246 552 281 570 q 315 588 353 588 l 353 588 q 389 588 413 571 q 436 553 448 523 q 460 492 460 453 l 460 453 l 460 0 l 298 0 l 298 430 q 298 451 291 462 q 284 473 265 473 l 265 473 q 255 473 242 468 q 228 462 214 452 l 214 452 l 214 0 m 577 -180 l 577 -180 q 555 -180 533 -176 q 510 -173 490 -167 l 490 -167 l 490 -50 q 498 -51 506 -52 q 513 -54 519 -54 l 519 -54 q 533 -54 543 -49 q 553 -44 559 -33 q 564 -23 564 -5 l 564 -5 l 564 578 l 726 578 l 726 -25 q 726 -93 689 -136 q 651 -180 577 -180 m 727 676 l 563 676 l 563 789 l 727 789 l 727 676"},"ñ":{"x_min":51,"x_max":460,"ha":507,"o":"m 214 0 l 51 0 l 51 578 l 214 578 l 214 520 q 246 552 281 570 q 315 588 353 588 l 353 588 q 389 588 413 571 q 436 553 448 523 q 460 492 460 453 l 460 453 l 460 0 l 298 0 l 298 430 q 298 451 291 462 q 284 473 265 473 l 265 473 q 255 473 242 468 q 228 462 214 452 l 214 452 l 214 0 m 335 668 l 335 668 q 310 668 289 680 q 268 692 249 704 q 230 715 210 715 l 210 715 q 188 715 181 703 q 174 690 174 674 l 174 674 l 96 674 q 96 715 104 747 q 112 779 132 798 q 152 816 186 816 l 186 816 q 211 816 231 805 q 250 794 269 783 q 288 772 309 772 l 309 772 q 326 772 333 783 q 340 794 340 810 l 340 810 l 412 810 q 412 778 408 745 q 403 712 387 690 q 370 668 335 668"},"ŋ":{"x_min":42,"x_max":452,"ha":476,"o":"m 237 -195 l 178 -195 l 178 -92 q 224 -92 248 -84 q 272 -77 281 -58 q 289 -39 289 -5 l 289 -5 l 289 430 q 289 451 283 462 q 276 473 257 473 l 257 473 q 246 473 233 468 q 219 462 205 452 l 205 452 l 205 0 l 42 0 l 42 578 l 205 578 l 205 527 q 237 559 272 574 q 306 588 345 588 l 345 588 q 380 588 404 571 q 428 553 440 523 q 452 492 452 453 l 452 453 l 452 -6 q 452 -74 432 -115 q 412 -157 365 -176 q 318 -195 237 -195 l 237 -195"},"o":{"x_min":39,"x_max":444,"ha":483,"o":"m 241 -10 l 241 -10 q 179 -10 134 11 q 88 32 64 74 q 39 116 39 179 l 39 179 l 39 399 q 39 462 64 504 q 88 546 134 567 q 179 588 241 588 l 241 588 q 303 588 349 567 q 394 546 419 504 q 444 462 444 399 l 444 399 l 444 179 q 444 116 419 74 q 394 32 349 11 q 303 -10 241 -10 m 242 98 l 242 98 q 258 98 267 107 q 276 115 280 131 q 283 146 283 168 l 283 168 l 283 410 q 283 432 280 448 q 276 463 267 472 q 258 480 242 480 l 242 480 q 226 480 217 472 q 208 463 204 448 q 200 432 200 410 l 200 410 l 200 168 q 200 146 204 131 q 208 115 217 107 q 226 98 242 98"},"ó":{"x_min":39,"x_max":444,"ha":483,"o":"m 241 -10 l 241 -10 q 179 -10 134 11 q 88 32 64 74 q 39 116 39 179 l 39 179 l 39 399 q 39 462 64 504 q 88 546 134 567 q 179 588 241 588 l 241 588 q 303 588 349 567 q 394 546 419 504 q 444 462 444 399 l 444 399 l 444 179 q 444 116 419 74 q 394 32 349 11 q 303 -10 241 -10 m 242 98 l 242 98 q 258 98 267 107 q 276 115 280 131 q 283 146 283 168 l 283 168 l 283 410 q 283 432 280 448 q 276 463 267 472 q 258 480 242 480 l 242 480 q 226 480 217 472 q 208 463 204 448 q 200 432 200 410 l 200 410 l 200 168 q 200 146 204 131 q 208 115 217 107 q 226 98 242 98 m 290 642 l 187 642 l 250 843 l 416 843 l 290 642"},"ŏ":{"x_min":39,"x_max":444,"ha":483,"o":"m 241 -10 l 241 -10 q 179 -10 134 11 q 88 32 64 74 q 39 116 39 179 l 39 179 l 39 399 q 39 462 64 504 q 88 546 134 567 q 179 588 241 588 l 241 588 q 303 588 349 567 q 394 546 419 504 q 444 462 444 399 l 444 399 l 444 179 q 444 116 419 74 q 394 32 349 11 q 303 -10 241 -10 m 242 98 l 242 98 q 258 98 267 107 q 276 115 280 131 q 283 146 283 168 l 283 168 l 283 410 q 283 432 280 448 q 276 463 267 472 q 258 480 242 480 l 242 480 q 226 480 217 472 q 208 463 204 448 q 200 432 200 410 l 200 410 l 200 168 q 200 146 204 131 q 208 115 217 107 q 226 98 242 98 m 241 643 l 241 643 q 170 643 127 683 q 84 723 84 799 l 84 799 l 176 799 q 176 762 191 744 q 205 726 241 726 l 241 726 q 276 726 291 745 q 306 763 306 799 l 306 799 l 398 799 q 398 723 355 683 q 312 643 241 643"},"ô":{"x_min":39,"x_max":444,"ha":483,"o":"m 241 -10 l 241 -10 q 179 -10 134 11 q 88 32 64 74 q 39 116 39 179 l 39 179 l 39 399 q 39 462 64 504 q 88 546 134 567 q 179 588 241 588 l 241 588 q 303 588 349 567 q 394 546 419 504 q 444 462 444 399 l 444 399 l 444 179 q 444 116 419 74 q 394 32 349 11 q 303 -10 241 -10 m 242 98 l 242 98 q 258 98 267 107 q 276 115 280 131 q 283 146 283 168 l 283 168 l 283 410 q 283 432 280 448 q 276 463 267 472 q 258 480 242 480 l 242 480 q 226 480 217 472 q 208 463 204 448 q 200 432 200 410 l 200 410 l 200 168 q 200 146 204 131 q 208 115 217 107 q 226 98 242 98 m 197 649 l 78 649 l 173 841 l 306 841 l 404 649 l 284 649 l 240 768 l 197 649"},"ố":{"x_min":39,"x_max":550,"ha":483,"o":"m 241 -10 l 241 -10 q 179 -10 134 11 q 88 32 64 74 q 39 116 39 179 l 39 179 l 39 399 q 39 462 64 504 q 88 546 134 567 q 179 588 241 588 l 241 588 q 303 588 349 567 q 394 546 419 504 q 444 462 444 399 l 444 399 l 444 179 q 444 116 419 74 q 394 32 349 11 q 303 -10 241 -10 m 242 98 l 242 98 q 258 98 267 107 q 276 115 280 131 q 283 146 283 168 l 283 168 l 283 410 q 283 432 280 448 q 276 463 267 472 q 258 480 242 480 l 242 480 q 226 480 217 472 q 208 463 204 448 q 200 432 200 410 l 200 410 l 200 168 q 200 146 204 131 q 208 115 217 107 q 226 98 242 98 m 193 649 l 78 649 l 173 816 l 306 816 l 404 649 l 288 649 l 240 749 l 193 649 m 462 767 l 376 767 l 429 890 l 550 890 l 462 767"},"ộ":{"x_min":39,"x_max":444,"ha":483,"o":"m 241 -10 l 241 -10 q 179 -10 134 11 q 88 32 64 74 q 39 116 39 179 l 39 179 l 39 399 q 39 462 64 504 q 88 546 134 567 q 179 588 241 588 l 241 588 q 303 588 349 567 q 394 546 419 504 q 444 462 444 399 l 444 399 l 444 179 q 444 116 419 74 q 394 32 349 11 q 303 -10 241 -10 m 242 98 l 242 98 q 258 98 267 107 q 276 115 280 131 q 283 146 283 168 l 283 168 l 283 410 q 283 432 280 448 q 276 463 267 472 q 258 480 242 480 l 242 480 q 226 480 217 472 q 208 463 204 448 q 200 432 200 410 l 200 410 l 200 168 q 200 146 204 131 q 208 115 217 107 q 226 98 242 98 m 312 -208 l 173 -208 l 173 -70 l 312 -70 l 312 -208 m 193 649 l 78 649 l 173 816 l 306 816 l 404 649 l 288 649 l 240 749 l 193 649"},"ồ":{"x_min":39,"x_max":492,"ha":483,"o":"m 241 -10 l 241 -10 q 179 -10 134 11 q 88 32 64 74 q 39 116 39 179 l 39 179 l 39 399 q 39 462 64 504 q 88 546 134 567 q 179 588 241 588 l 241 588 q 303 588 349 567 q 394 546 419 504 q 444 462 444 399 l 444 399 l 444 179 q 444 116 419 74 q 394 32 349 11 q 303 -10 241 -10 m 242 98 l 242 98 q 258 98 267 107 q 276 115 280 131 q 283 146 283 168 l 283 168 l 283 410 q 283 432 280 448 q 276 463 267 472 q 258 480 242 480 l 242 480 q 226 480 217 472 q 208 463 204 448 q 200 432 200 410 l 200 410 l 200 168 q 200 146 204 131 q 208 115 217 107 q 226 98 242 98 m 193 649 l 78 649 l 173 816 l 306 816 l 404 649 l 288 649 l 240 749 l 193 649 m 492 767 l 405 767 l 317 890 l 439 890 l 492 767"},"ổ":{"x_min":39,"x_max":508,"ha":483,"o":"m 241 -10 l 241 -10 q 179 -10 134 11 q 88 32 64 74 q 39 116 39 179 l 39 179 l 39 399 q 39 462 64 504 q 88 546 134 567 q 179 588 241 588 l 241 588 q 303 588 349 567 q 394 546 419 504 q 444 462 444 399 l 444 399 l 444 179 q 444 116 419 74 q 394 32 349 11 q 303 -10 241 -10 m 242 98 l 242 98 q 258 98 267 107 q 276 115 280 131 q 283 146 283 168 l 283 168 l 283 410 q 283 432 280 448 q 276 463 267 472 q 258 480 242 480 l 242 480 q 226 480 217 472 q 208 463 204 448 q 200 432 200 410 l 200 410 l 200 168 q 200 146 204 131 q 208 115 217 107 q 226 98 242 98 m 417 741 l 417 741 l 371 790 q 388 804 398 818 q 408 831 408 850 l 408 850 q 408 869 396 880 q 383 890 362 890 l 362 890 q 346 890 334 887 q 321 884 311 880 l 311 880 l 311 948 q 331 956 351 960 q 371 964 393 964 l 393 964 q 443 964 476 940 q 508 915 508 865 l 508 865 q 508 817 481 789 q 453 761 417 741 m 193 649 l 78 649 l 173 816 l 306 816 l 404 649 l 288 649 l 240 749 l 193 649"},"ỗ":{"x_min":39,"x_max":444,"ha":483,"o":"m 241 -10 l 241 -10 q 179 -10 134 11 q 88 32 64 74 q 39 116 39 179 l 39 179 l 39 399 q 39 462 64 504 q 88 546 134 567 q 179 588 241 588 l 241 588 q 303 588 349 567 q 394 546 419 504 q 444 462 444 399 l 444 399 l 444 179 q 444 116 419 74 q 394 32 349 11 q 303 -10 241 -10 m 242 98 l 242 98 q 258 98 267 107 q 276 115 280 131 q 283 146 283 168 l 283 168 l 283 410 q 283 432 280 448 q 276 463 267 472 q 258 480 242 480 l 242 480 q 226 480 217 472 q 208 463 204 448 q 200 432 200 410 l 200 410 l 200 168 q 200 146 204 131 q 208 115 217 107 q 226 98 242 98 m 193 649 l 78 649 l 173 816 l 306 816 l 404 649 l 288 649 l 240 749 l 193 649 m 322 865 l 322 865 q 297 865 276 877 q 255 889 236 901 q 217 912 197 912 l 197 912 q 175 912 168 900 q 161 887 161 871 l 161 871 l 83 871 q 83 912 91 944 q 99 976 119 995 q 139 1013 173 1013 l 173 1013 q 198 1013 218 1002 q 237 991 256 980 q 275 969 296 969 l 296 969 q 313 969 320 980 q 327 991 327 1007 l 327 1007 l 399 1007 q 399 975 395 942 q 390 909 374 887 q 357 865 322 865"}}}
